%TF.GenerationSoftware,KiCad,Pcbnew,7.0.6*%
%TF.CreationDate,2023-07-14T20:33:36-05:00*%
%TF.ProjectId,RTD,5254442e-6b69-4636-9164-5f7063625858,rev?*%
%TF.SameCoordinates,Original*%
%TF.FileFunction,Copper,L1,Top*%
%TF.FilePolarity,Positive*%
%FSLAX46Y46*%
G04 Gerber Fmt 4.6, Leading zero omitted, Abs format (unit mm)*
G04 Created by KiCad (PCBNEW 7.0.6) date 2023-07-14 20:33:36*
%MOMM*%
%LPD*%
G01*
G04 APERTURE LIST*
G04 Aperture macros list*
%AMRoundRect*
0 Rectangle with rounded corners*
0 $1 Rounding radius*
0 $2 $3 $4 $5 $6 $7 $8 $9 X,Y pos of 4 corners*
0 Add a 4 corners polygon primitive as box body*
4,1,4,$2,$3,$4,$5,$6,$7,$8,$9,$2,$3,0*
0 Add four circle primitives for the rounded corners*
1,1,$1+$1,$2,$3*
1,1,$1+$1,$4,$5*
1,1,$1+$1,$6,$7*
1,1,$1+$1,$8,$9*
0 Add four rect primitives between the rounded corners*
20,1,$1+$1,$2,$3,$4,$5,0*
20,1,$1+$1,$4,$5,$6,$7,0*
20,1,$1+$1,$6,$7,$8,$9,0*
20,1,$1+$1,$8,$9,$2,$3,0*%
G04 Aperture macros list end*
%TA.AperFunction,ComponentPad*%
%ADD10C,2.400000*%
%TD*%
%TA.AperFunction,ComponentPad*%
%ADD11O,2.400000X2.400000*%
%TD*%
%TA.AperFunction,ComponentPad*%
%ADD12R,3.000000X3.000000*%
%TD*%
%TA.AperFunction,ComponentPad*%
%ADD13C,3.000000*%
%TD*%
%TA.AperFunction,ComponentPad*%
%ADD14R,1.676400X1.676400*%
%TD*%
%TA.AperFunction,ComponentPad*%
%ADD15C,1.676400*%
%TD*%
%TA.AperFunction,ComponentPad*%
%ADD16R,1.600000X1.600000*%
%TD*%
%TA.AperFunction,ComponentPad*%
%ADD17C,1.600000*%
%TD*%
%TA.AperFunction,ComponentPad*%
%ADD18RoundRect,0.375000X0.375000X-1.025000X0.375000X1.025000X-0.375000X1.025000X-0.375000X-1.025000X0*%
%TD*%
%TA.AperFunction,ComponentPad*%
%ADD19RoundRect,0.375000X-0.375000X1.025000X-0.375000X-1.025000X0.375000X-1.025000X0.375000X1.025000X0*%
%TD*%
%TA.AperFunction,ComponentPad*%
%ADD20O,1.600000X1.600000*%
%TD*%
%TA.AperFunction,ComponentPad*%
%ADD21C,1.440000*%
%TD*%
%TA.AperFunction,ComponentPad*%
%ADD22R,1.170000X1.170000*%
%TD*%
%TA.AperFunction,ComponentPad*%
%ADD23C,1.270000*%
%TD*%
%TA.AperFunction,ComponentPad*%
%ADD24O,1.700000X1.700000*%
%TD*%
%TA.AperFunction,ComponentPad*%
%ADD25R,1.700000X1.700000*%
%TD*%
G04 APERTURE END LIST*
D10*
%TO.P,R9,1*%
%TO.N,Net-(R7-Pad2)*%
X100000000Y-112180000D03*
D11*
%TO.P,R9,2*%
%TO.N,GND*%
X100000000Y-99480000D03*
%TD*%
D12*
%TO.P,J3,1,Pin_1*%
%TO.N,GND*%
X124968000Y-58674000D03*
D13*
%TO.P,J3,2,Pin_2*%
%TO.N,+5V*%
X119888000Y-58674000D03*
%TD*%
D12*
%TO.P,J2,1,Pin_1*%
%TO.N,GND*%
X163690000Y-79990000D03*
D13*
%TO.P,J2,2,Pin_2*%
%TO.N,VEE*%
X163690000Y-74910000D03*
%TO.P,J2,3,Pin_3*%
%TO.N,VCC*%
X163690000Y-69830000D03*
%TD*%
D14*
%TO.P,U1,1,Rg*%
%TO.N,Net-(RV1-Pad2)*%
X131572000Y-87122000D03*
D15*
%TO.P,U1,2,-*%
%TO.N,Net-(U1--)*%
X134112000Y-87122000D03*
%TO.P,U1,3,+*%
%TO.N,Net-(SW1A-B)*%
X136652000Y-87122000D03*
%TO.P,U1,4,V-*%
%TO.N,VEE*%
X139192000Y-87122000D03*
%TO.P,U1,5,Ref*%
%TO.N,GND*%
X139192000Y-79502000D03*
%TO.P,U1,6*%
%TO.N,Net-(R5-Pad1)*%
X136652000Y-79502000D03*
%TO.P,U1,7,V+*%
%TO.N,VCC*%
X134112000Y-79502000D03*
%TO.P,U1,8,Rg*%
%TO.N,Net-(RV1-Pad3)*%
X131572000Y-79502000D03*
%TD*%
D16*
%TO.P,C6,1*%
%TO.N,GND*%
X156145113Y-87122000D03*
D17*
%TO.P,C6,2*%
%TO.N,VEE*%
X153645113Y-87122000D03*
%TD*%
D10*
%TO.P,R2,1*%
%TO.N,+5V*%
X112522000Y-61214000D03*
D11*
%TO.P,R2,2*%
%TO.N,Net-(U1--)*%
X112522000Y-73914000D03*
%TD*%
D10*
%TO.P,R7,1*%
%TO.N,Net-(SW2A-A)*%
X107650000Y-112030000D03*
D11*
%TO.P,R7,2*%
%TO.N,Net-(R7-Pad2)*%
X107650000Y-99330000D03*
%TD*%
D12*
%TO.P,J1,1,Pin_1*%
%TO.N,Net-(J1-Pin_1)*%
X98982050Y-81812000D03*
D13*
%TO.P,J1,2,Pin_2*%
%TO.N,GND*%
X98982050Y-86892000D03*
%TD*%
D10*
%TO.P,R3,1*%
%TO.N,Net-(U1--)*%
X124968000Y-86868000D03*
D11*
%TO.P,R3,2*%
%TO.N,GND*%
X124968000Y-74168000D03*
%TD*%
D18*
%TO.P,SW1,6,C*%
%TO.N,unconnected-(SW1B-C-Pad6)*%
X113582050Y-79502000D03*
%TO.P,SW1,5,B*%
%TO.N,Net-(SW1B-B)*%
X113582050Y-83502000D03*
D19*
%TO.P,SW1,4,A*%
%TO.N,Net-(SW1B-A)*%
X113582050Y-87502000D03*
D18*
%TO.P,SW1,3,C*%
%TO.N,Net-(J1-Pin_1)*%
X111082050Y-79502000D03*
%TO.P,SW1,2,B*%
%TO.N,Net-(SW1A-B)*%
X111082050Y-83502000D03*
%TO.P,SW1,1,A*%
%TO.N,Net-(SW1A-A)*%
X111082050Y-87502000D03*
%TD*%
D17*
%TO.P,R8,1*%
%TO.N,Net-(U3-ADC_VREF)*%
X161500000Y-89550000D03*
D20*
%TO.P,R8,2*%
%TO.N,Net-(U3-3V3)*%
X164040000Y-89550000D03*
%TD*%
D16*
%TO.P,C2,1*%
%TO.N,Net-(U2A-+)*%
X169080000Y-85730000D03*
D17*
%TO.P,C2,2*%
%TO.N,GND*%
X166580000Y-85730000D03*
%TD*%
D16*
%TO.P,C1,1*%
%TO.N,Net-(U2A--)*%
X149606000Y-52324000D03*
D17*
%TO.P,C1,2*%
%TO.N,Net-(C1-Pad2)*%
X147106000Y-52324000D03*
%TD*%
D21*
%TO.P,RV1,1,1*%
%TO.N,unconnected-(RV1-Pad1)*%
X125730000Y-68580000D03*
%TO.P,RV1,2,2*%
%TO.N,Net-(RV1-Pad2)*%
X128270000Y-68580000D03*
%TO.P,RV1,3,3*%
%TO.N,Net-(RV1-Pad3)*%
X130810000Y-68580000D03*
%TD*%
D10*
%TO.P,R6,1*%
%TO.N,Net-(SW2A-C)*%
X112680000Y-95090000D03*
D11*
%TO.P,R6,2*%
%TO.N,GND*%
X99980000Y-95090000D03*
%TD*%
D16*
%TO.P,C3,1*%
%TO.N,Net-(U2A--)*%
X141692000Y-55118000D03*
D17*
%TO.P,C3,2*%
%TO.N,Net-(C1-Pad2)*%
X139192000Y-55118000D03*
%TD*%
D16*
%TO.P,C4,1*%
%TO.N,VCC*%
X154432000Y-78700000D03*
D17*
%TO.P,C4,2*%
%TO.N,GND*%
X154432000Y-76200000D03*
%TD*%
D10*
%TO.P,R4,1*%
%TO.N,Net-(C1-Pad2)*%
X145542000Y-74930000D03*
D11*
%TO.P,R4,2*%
%TO.N,Net-(U2A-+)*%
X145542000Y-62230000D03*
%TD*%
D22*
%TO.P,U2,1*%
%TO.N,Net-(U2A--)*%
X171460000Y-53802500D03*
D23*
%TO.P,U2,2,-*%
X168920000Y-53802500D03*
%TO.P,U2,3,+*%
%TO.N,Net-(U2A-+)*%
X166380000Y-53802500D03*
%TO.P,U2,4,V+*%
%TO.N,VCC*%
X163840000Y-53802500D03*
%TO.P,U2,5*%
%TO.N,N/C*%
X161300000Y-53802500D03*
%TO.P,U2,6*%
X158760000Y-53802500D03*
%TO.P,U2,7*%
X156220000Y-53802500D03*
%TO.P,U2,8*%
X156220000Y-61742500D03*
%TO.P,U2,9*%
X158760000Y-61742500D03*
%TO.P,U2,10*%
X161300000Y-61742500D03*
%TO.P,U2,11,V-*%
%TO.N,VEE*%
X163840000Y-61742500D03*
%TO.P,U2,12*%
%TO.N,N/C*%
X166380000Y-61742500D03*
%TO.P,U2,13*%
X168920000Y-61742500D03*
%TO.P,U2,14*%
X171460000Y-61742500D03*
%TD*%
D10*
%TO.P,R5,1*%
%TO.N,Net-(R5-Pad1)*%
X138938000Y-75184000D03*
D11*
%TO.P,R5,2*%
%TO.N,Net-(C1-Pad2)*%
X138938000Y-62484000D03*
%TD*%
D10*
%TO.P,JP1,2,B*%
%TO.N,Net-(JP1-B)*%
X118618000Y-86614000D03*
%TO.P,JP1,1,A*%
%TO.N,Net-(JP1-A)*%
X118618000Y-94614000D03*
%TD*%
D18*
%TO.P,SW2,1,A*%
%TO.N,Net-(SW2A-A)*%
X117330000Y-112520000D03*
%TO.P,SW2,2,B*%
%TO.N,Net-(SW1A-A)*%
X117330000Y-108520000D03*
%TO.P,SW2,3,C*%
%TO.N,Net-(SW2A-C)*%
X117330000Y-104520000D03*
D19*
%TO.P,SW2,4,A*%
%TO.N,Net-(SW2B-A)*%
X119830000Y-112520000D03*
D18*
%TO.P,SW2,5,B*%
%TO.N,Net-(SW1B-A)*%
X119830000Y-108520000D03*
%TO.P,SW2,6,C*%
%TO.N,Net-(JP1-A)*%
X119830000Y-104520000D03*
%TD*%
D10*
%TO.P,R1,1*%
%TO.N,+5V*%
X104140000Y-61722000D03*
D11*
%TO.P,R1,2*%
%TO.N,Net-(SW1A-B)*%
X104140000Y-74422000D03*
%TD*%
D16*
%TO.P,C5,1*%
%TO.N,Net-(U3-VBUS)*%
X171820000Y-91550000D03*
D17*
%TO.P,C5,2*%
%TO.N,Net-(C5-Pad2)*%
X171820000Y-89050000D03*
%TD*%
D24*
%TO.P,U3,1,GPIO0*%
%TO.N,unconnected-(U3-GPIO0-Pad1)*%
X174120000Y-115970000D03*
%TO.P,U3,2,GPIO1*%
%TO.N,unconnected-(U3-GPIO1-Pad2)*%
X171580000Y-115970000D03*
D25*
%TO.P,U3,3,GND*%
%TO.N,unconnected-(U3-GND-Pad3)*%
X169040000Y-115970000D03*
D24*
%TO.P,U3,4,GPIO2*%
%TO.N,unconnected-(U3-GPIO2-Pad4)*%
X166500000Y-115970000D03*
%TO.P,U3,5,GPIO3*%
%TO.N,unconnected-(U3-GPIO3-Pad5)*%
X163960000Y-115970000D03*
%TO.P,U3,6,GPIO4*%
%TO.N,unconnected-(U3-GPIO4-Pad6)*%
X161420000Y-115970000D03*
%TO.P,U3,7,GPIO5*%
%TO.N,unconnected-(U3-GPIO5-Pad7)*%
X158880000Y-115970000D03*
D25*
%TO.P,U3,8,GND*%
%TO.N,unconnected-(U3-GND-Pad8)*%
X156340000Y-115970000D03*
D24*
%TO.P,U3,9,GPIO6*%
%TO.N,unconnected-(U3-GPIO6-Pad9)*%
X153800000Y-115970000D03*
%TO.P,U3,10,GPIO7*%
%TO.N,unconnected-(U3-GPIO7-Pad10)*%
X151260000Y-115970000D03*
%TO.P,U3,11,GPIO8*%
%TO.N,unconnected-(U3-GPIO8-Pad11)*%
X148720000Y-115970000D03*
%TO.P,U3,12,GPIO9*%
%TO.N,unconnected-(U3-GPIO9-Pad12)*%
X146180000Y-115970000D03*
D25*
%TO.P,U3,13,GND*%
%TO.N,unconnected-(U3-GND-Pad13)*%
X143640000Y-115970000D03*
D24*
%TO.P,U3,14,GPIO10*%
%TO.N,unconnected-(U3-GPIO10-Pad14)*%
X141100000Y-115970000D03*
%TO.P,U3,15,GPIO11*%
%TO.N,unconnected-(U3-GPIO11-Pad15)*%
X138560000Y-115970000D03*
%TO.P,U3,16,GPIO12*%
%TO.N,unconnected-(U3-GPIO12-Pad16)*%
X136020000Y-115970000D03*
%TO.P,U3,17,GPIO13*%
%TO.N,unconnected-(U3-GPIO13-Pad17)*%
X133480000Y-115970000D03*
D25*
%TO.P,U3,18,GND*%
%TO.N,unconnected-(U3-GND-Pad18)*%
X130940000Y-115970000D03*
D24*
%TO.P,U3,19,GPIO14*%
%TO.N,unconnected-(U3-GPIO14-Pad19)*%
X128400000Y-115970000D03*
%TO.P,U3,20,GPIO15*%
%TO.N,unconnected-(U3-GPIO15-Pad20)*%
X125860000Y-115970000D03*
%TO.P,U3,21,GPIO16*%
%TO.N,unconnected-(U3-GPIO16-Pad21)*%
X125860000Y-98190000D03*
%TO.P,U3,22,GPIO17*%
%TO.N,unconnected-(U3-GPIO17-Pad22)*%
X128400000Y-98190000D03*
D25*
%TO.P,U3,23,GND*%
%TO.N,unconnected-(U3-GND-Pad23)*%
X130940000Y-98190000D03*
D24*
%TO.P,U3,24,GPIO18*%
%TO.N,unconnected-(U3-GPIO18-Pad24)*%
X133480000Y-98190000D03*
%TO.P,U3,25,GPIO19*%
%TO.N,unconnected-(U3-GPIO19-Pad25)*%
X136020000Y-98190000D03*
%TO.P,U3,26,GPIO20*%
%TO.N,unconnected-(U3-GPIO20-Pad26)*%
X138560000Y-98190000D03*
%TO.P,U3,27,GPIO21*%
%TO.N,Net-(SW2B-A)*%
X141100000Y-98190000D03*
D25*
%TO.P,U3,28,GND*%
%TO.N,Net-(SW1B-B)*%
X143640000Y-98190000D03*
D24*
%TO.P,U3,29,GPIO22*%
%TO.N,Net-(JP1-B)*%
X146180000Y-98190000D03*
%TO.P,U3,30,RUN*%
%TO.N,unconnected-(U3-RUN-Pad30)*%
X148720000Y-98190000D03*
%TO.P,U3,31,GPIO26_ADC0*%
%TO.N,unconnected-(U3-GPIO26_ADC0-Pad31)*%
X151260000Y-98190000D03*
%TO.P,U3,32,GPIO27_ADC1*%
%TO.N,unconnected-(U3-GPIO27_ADC1-Pad32)*%
X153800000Y-98190000D03*
D25*
%TO.P,U3,33,AGND*%
%TO.N,GND*%
X156340000Y-98190000D03*
D24*
%TO.P,U3,34,GPIO28_ADC2*%
%TO.N,Net-(U2A--)*%
X158880000Y-98190000D03*
%TO.P,U3,35,ADC_VREF*%
%TO.N,Net-(U3-ADC_VREF)*%
X161420000Y-98190000D03*
%TO.P,U3,36,3V3*%
%TO.N,Net-(U3-3V3)*%
X163960000Y-98190000D03*
%TO.P,U3,37,3V3_EN*%
%TO.N,unconnected-(U3-3V3_EN-Pad37)*%
X166500000Y-98190000D03*
D25*
%TO.P,U3,38,GND*%
%TO.N,Net-(C5-Pad2)*%
X169040000Y-98190000D03*
D24*
%TO.P,U3,39,VSYS*%
%TO.N,Net-(U3-VBUS)*%
X171580000Y-98190000D03*
%TO.P,U3,40,VBUS*%
X174120000Y-98190000D03*
%TO.P,U3,41,SWCLK*%
%TO.N,unconnected-(U3-SWCLK-Pad41)*%
X126090000Y-109620000D03*
D25*
%TO.P,U3,42,GND*%
%TO.N,unconnected-(U3-GND-Pad42)*%
X126090000Y-107080000D03*
D24*
%TO.P,U3,43,SWDIO*%
%TO.N,unconnected-(U3-SWDIO-Pad43)*%
X126090000Y-104540000D03*
%TD*%
M02*
