%TF.GenerationSoftware,KiCad,Pcbnew,7.0.6*%
%TF.CreationDate,2023-07-14T20:33:36-05:00*%
%TF.ProjectId,RTD,5254442e-6b69-4636-9164-5f7063625858,rev?*%
%TF.SameCoordinates,Original*%
%TF.FileFunction,Legend,Top*%
%TF.FilePolarity,Positive*%
%FSLAX46Y46*%
G04 Gerber Fmt 4.6, Leading zero omitted, Abs format (unit mm)*
G04 Created by KiCad (PCBNEW 7.0.6) date 2023-07-14 20:33:36*
%MOMM*%
%LPD*%
G01*
G04 APERTURE LIST*
%ADD10C,0.500000*%
%ADD11C,0.150000*%
%ADD12C,0.100000*%
%ADD13C,0.120000*%
%ADD14C,0.152400*%
%ADD15C,0.127000*%
%ADD16C,0.200000*%
G04 APERTURE END LIST*
D10*
X108487518Y-53506857D02*
X110344661Y-53506857D01*
X110344661Y-53506857D02*
X109344661Y-54649714D01*
X109344661Y-54649714D02*
X109773232Y-54649714D01*
X109773232Y-54649714D02*
X110058947Y-54792571D01*
X110058947Y-54792571D02*
X110201804Y-54935428D01*
X110201804Y-54935428D02*
X110344661Y-55221142D01*
X110344661Y-55221142D02*
X110344661Y-55935428D01*
X110344661Y-55935428D02*
X110201804Y-56221142D01*
X110201804Y-56221142D02*
X110058947Y-56364000D01*
X110058947Y-56364000D02*
X109773232Y-56506857D01*
X109773232Y-56506857D02*
X108916089Y-56506857D01*
X108916089Y-56506857D02*
X108630375Y-56364000D01*
X108630375Y-56364000D02*
X108487518Y-56221142D01*
X111487518Y-56364000D02*
X111916090Y-56506857D01*
X111916090Y-56506857D02*
X112630375Y-56506857D01*
X112630375Y-56506857D02*
X112916090Y-56364000D01*
X112916090Y-56364000D02*
X113058947Y-56221142D01*
X113058947Y-56221142D02*
X113201804Y-55935428D01*
X113201804Y-55935428D02*
X113201804Y-55649714D01*
X113201804Y-55649714D02*
X113058947Y-55364000D01*
X113058947Y-55364000D02*
X112916090Y-55221142D01*
X112916090Y-55221142D02*
X112630375Y-55078285D01*
X112630375Y-55078285D02*
X112058947Y-54935428D01*
X112058947Y-54935428D02*
X111773232Y-54792571D01*
X111773232Y-54792571D02*
X111630375Y-54649714D01*
X111630375Y-54649714D02*
X111487518Y-54364000D01*
X111487518Y-54364000D02*
X111487518Y-54078285D01*
X111487518Y-54078285D02*
X111630375Y-53792571D01*
X111630375Y-53792571D02*
X111773232Y-53649714D01*
X111773232Y-53649714D02*
X112058947Y-53506857D01*
X112058947Y-53506857D02*
X112773232Y-53506857D01*
X112773232Y-53506857D02*
X113201804Y-53649714D01*
X115344661Y-53506857D02*
X115344661Y-55649714D01*
X115344661Y-55649714D02*
X115201804Y-56078285D01*
X115201804Y-56078285D02*
X114916090Y-56364000D01*
X114916090Y-56364000D02*
X114487518Y-56506857D01*
X114487518Y-56506857D02*
X114201804Y-56506857D01*
D11*
X113249819Y-113012744D02*
X113249819Y-112917506D01*
X113249819Y-112917506D02*
X113297438Y-112822268D01*
X113297438Y-112822268D02*
X113345057Y-112774649D01*
X113345057Y-112774649D02*
X113440295Y-112727030D01*
X113440295Y-112727030D02*
X113630771Y-112679411D01*
X113630771Y-112679411D02*
X113868866Y-112679411D01*
X113868866Y-112679411D02*
X114059342Y-112727030D01*
X114059342Y-112727030D02*
X114154580Y-112774649D01*
X114154580Y-112774649D02*
X114202200Y-112822268D01*
X114202200Y-112822268D02*
X114249819Y-112917506D01*
X114249819Y-112917506D02*
X114249819Y-113012744D01*
X114249819Y-113012744D02*
X114202200Y-113107982D01*
X114202200Y-113107982D02*
X114154580Y-113155601D01*
X114154580Y-113155601D02*
X114059342Y-113203220D01*
X114059342Y-113203220D02*
X113868866Y-113250839D01*
X113868866Y-113250839D02*
X113630771Y-113250839D01*
X113630771Y-113250839D02*
X113440295Y-113203220D01*
X113440295Y-113203220D02*
X113345057Y-113155601D01*
X113345057Y-113155601D02*
X113297438Y-113107982D01*
X113297438Y-113107982D02*
X113249819Y-113012744D01*
X113249819Y-112107982D02*
X113297438Y-112203220D01*
X113297438Y-112203220D02*
X113392676Y-112250839D01*
X113392676Y-112250839D02*
X113487914Y-112203220D01*
X113487914Y-112203220D02*
X113535533Y-112107982D01*
X113535533Y-112107982D02*
X113487914Y-112012744D01*
X113487914Y-112012744D02*
X113392676Y-111965125D01*
X113392676Y-111965125D02*
X113297438Y-112012744D01*
X113297438Y-112012744D02*
X113249819Y-112107982D01*
X114154580Y-110917506D02*
X114202200Y-110965125D01*
X114202200Y-110965125D02*
X114249819Y-111107982D01*
X114249819Y-111107982D02*
X114249819Y-111203220D01*
X114249819Y-111203220D02*
X114202200Y-111346077D01*
X114202200Y-111346077D02*
X114106961Y-111441315D01*
X114106961Y-111441315D02*
X114011723Y-111488934D01*
X114011723Y-111488934D02*
X113821247Y-111536553D01*
X113821247Y-111536553D02*
X113678390Y-111536553D01*
X113678390Y-111536553D02*
X113487914Y-111488934D01*
X113487914Y-111488934D02*
X113392676Y-111441315D01*
X113392676Y-111441315D02*
X113297438Y-111346077D01*
X113297438Y-111346077D02*
X113249819Y-111203220D01*
X113249819Y-111203220D02*
X113249819Y-111107982D01*
X113249819Y-111107982D02*
X113297438Y-110965125D01*
X113297438Y-110965125D02*
X113345057Y-110917506D01*
X113202200Y-109012744D02*
X114487914Y-109869886D01*
X114249819Y-107393696D02*
X114249819Y-107965124D01*
X114249819Y-107679410D02*
X113249819Y-107679410D01*
X113249819Y-107679410D02*
X113392676Y-107774648D01*
X113392676Y-107774648D02*
X113487914Y-107869886D01*
X113487914Y-107869886D02*
X113535533Y-107965124D01*
X113249819Y-106774648D02*
X113249819Y-106679410D01*
X113249819Y-106679410D02*
X113297438Y-106584172D01*
X113297438Y-106584172D02*
X113345057Y-106536553D01*
X113345057Y-106536553D02*
X113440295Y-106488934D01*
X113440295Y-106488934D02*
X113630771Y-106441315D01*
X113630771Y-106441315D02*
X113868866Y-106441315D01*
X113868866Y-106441315D02*
X114059342Y-106488934D01*
X114059342Y-106488934D02*
X114154580Y-106536553D01*
X114154580Y-106536553D02*
X114202200Y-106584172D01*
X114202200Y-106584172D02*
X114249819Y-106679410D01*
X114249819Y-106679410D02*
X114249819Y-106774648D01*
X114249819Y-106774648D02*
X114202200Y-106869886D01*
X114202200Y-106869886D02*
X114154580Y-106917505D01*
X114154580Y-106917505D02*
X114059342Y-106965124D01*
X114059342Y-106965124D02*
X113868866Y-107012743D01*
X113868866Y-107012743D02*
X113630771Y-107012743D01*
X113630771Y-107012743D02*
X113440295Y-106965124D01*
X113440295Y-106965124D02*
X113345057Y-106917505D01*
X113345057Y-106917505D02*
X113297438Y-106869886D01*
X113297438Y-106869886D02*
X113249819Y-106774648D01*
X113249819Y-105822267D02*
X113249819Y-105727029D01*
X113249819Y-105727029D02*
X113297438Y-105631791D01*
X113297438Y-105631791D02*
X113345057Y-105584172D01*
X113345057Y-105584172D02*
X113440295Y-105536553D01*
X113440295Y-105536553D02*
X113630771Y-105488934D01*
X113630771Y-105488934D02*
X113868866Y-105488934D01*
X113868866Y-105488934D02*
X114059342Y-105536553D01*
X114059342Y-105536553D02*
X114154580Y-105584172D01*
X114154580Y-105584172D02*
X114202200Y-105631791D01*
X114202200Y-105631791D02*
X114249819Y-105727029D01*
X114249819Y-105727029D02*
X114249819Y-105822267D01*
X114249819Y-105822267D02*
X114202200Y-105917505D01*
X114202200Y-105917505D02*
X114154580Y-105965124D01*
X114154580Y-105965124D02*
X114059342Y-106012743D01*
X114059342Y-106012743D02*
X113868866Y-106060362D01*
X113868866Y-106060362D02*
X113630771Y-106060362D01*
X113630771Y-106060362D02*
X113440295Y-106012743D01*
X113440295Y-106012743D02*
X113345057Y-105965124D01*
X113345057Y-105965124D02*
X113297438Y-105917505D01*
X113297438Y-105917505D02*
X113249819Y-105822267D01*
X113249819Y-104917505D02*
X113297438Y-105012743D01*
X113297438Y-105012743D02*
X113392676Y-105060362D01*
X113392676Y-105060362D02*
X113487914Y-105012743D01*
X113487914Y-105012743D02*
X113535533Y-104917505D01*
X113535533Y-104917505D02*
X113487914Y-104822267D01*
X113487914Y-104822267D02*
X113392676Y-104774648D01*
X113392676Y-104774648D02*
X113297438Y-104822267D01*
X113297438Y-104822267D02*
X113249819Y-104917505D01*
X114154580Y-103727029D02*
X114202200Y-103774648D01*
X114202200Y-103774648D02*
X114249819Y-103917505D01*
X114249819Y-103917505D02*
X114249819Y-104012743D01*
X114249819Y-104012743D02*
X114202200Y-104155600D01*
X114202200Y-104155600D02*
X114106961Y-104250838D01*
X114106961Y-104250838D02*
X114011723Y-104298457D01*
X114011723Y-104298457D02*
X113821247Y-104346076D01*
X113821247Y-104346076D02*
X113678390Y-104346076D01*
X113678390Y-104346076D02*
X113487914Y-104298457D01*
X113487914Y-104298457D02*
X113392676Y-104250838D01*
X113392676Y-104250838D02*
X113297438Y-104155600D01*
X113297438Y-104155600D02*
X113249819Y-104012743D01*
X113249819Y-104012743D02*
X113249819Y-103917505D01*
X113249819Y-103917505D02*
X113297438Y-103774648D01*
X113297438Y-103774648D02*
X113345057Y-103727029D01*
X107634580Y-90301792D02*
X107682200Y-90349411D01*
X107682200Y-90349411D02*
X107729819Y-90492268D01*
X107729819Y-90492268D02*
X107729819Y-90587506D01*
X107729819Y-90587506D02*
X107682200Y-90730363D01*
X107682200Y-90730363D02*
X107586961Y-90825601D01*
X107586961Y-90825601D02*
X107491723Y-90873220D01*
X107491723Y-90873220D02*
X107301247Y-90920839D01*
X107301247Y-90920839D02*
X107158390Y-90920839D01*
X107158390Y-90920839D02*
X106967914Y-90873220D01*
X106967914Y-90873220D02*
X106872676Y-90825601D01*
X106872676Y-90825601D02*
X106777438Y-90730363D01*
X106777438Y-90730363D02*
X106729819Y-90587506D01*
X106729819Y-90587506D02*
X106729819Y-90492268D01*
X106729819Y-90492268D02*
X106777438Y-90349411D01*
X106777438Y-90349411D02*
X106825057Y-90301792D01*
X107729819Y-89444649D02*
X107206009Y-89444649D01*
X107206009Y-89444649D02*
X107110771Y-89492268D01*
X107110771Y-89492268D02*
X107063152Y-89587506D01*
X107063152Y-89587506D02*
X107063152Y-89777982D01*
X107063152Y-89777982D02*
X107110771Y-89873220D01*
X107682200Y-89444649D02*
X107729819Y-89539887D01*
X107729819Y-89539887D02*
X107729819Y-89777982D01*
X107729819Y-89777982D02*
X107682200Y-89873220D01*
X107682200Y-89873220D02*
X107586961Y-89920839D01*
X107586961Y-89920839D02*
X107491723Y-89920839D01*
X107491723Y-89920839D02*
X107396485Y-89873220D01*
X107396485Y-89873220D02*
X107348866Y-89777982D01*
X107348866Y-89777982D02*
X107348866Y-89539887D01*
X107348866Y-89539887D02*
X107301247Y-89444649D01*
X107729819Y-88825601D02*
X107682200Y-88920839D01*
X107682200Y-88920839D02*
X107586961Y-88968458D01*
X107586961Y-88968458D02*
X106729819Y-88968458D01*
X107729819Y-88444648D02*
X107063152Y-88444648D01*
X106729819Y-88444648D02*
X106777438Y-88492267D01*
X106777438Y-88492267D02*
X106825057Y-88444648D01*
X106825057Y-88444648D02*
X106777438Y-88397029D01*
X106777438Y-88397029D02*
X106729819Y-88444648D01*
X106729819Y-88444648D02*
X106825057Y-88444648D01*
X107729819Y-87968458D02*
X106729819Y-87968458D01*
X107110771Y-87968458D02*
X107063152Y-87873220D01*
X107063152Y-87873220D02*
X107063152Y-87682744D01*
X107063152Y-87682744D02*
X107110771Y-87587506D01*
X107110771Y-87587506D02*
X107158390Y-87539887D01*
X107158390Y-87539887D02*
X107253628Y-87492268D01*
X107253628Y-87492268D02*
X107539342Y-87492268D01*
X107539342Y-87492268D02*
X107634580Y-87539887D01*
X107634580Y-87539887D02*
X107682200Y-87587506D01*
X107682200Y-87587506D02*
X107729819Y-87682744D01*
X107729819Y-87682744D02*
X107729819Y-87873220D01*
X107729819Y-87873220D02*
X107682200Y-87968458D01*
X107729819Y-87063696D02*
X107063152Y-87063696D01*
X107253628Y-87063696D02*
X107158390Y-87016077D01*
X107158390Y-87016077D02*
X107110771Y-86968458D01*
X107110771Y-86968458D02*
X107063152Y-86873220D01*
X107063152Y-86873220D02*
X107063152Y-86777982D01*
X107729819Y-86016077D02*
X107206009Y-86016077D01*
X107206009Y-86016077D02*
X107110771Y-86063696D01*
X107110771Y-86063696D02*
X107063152Y-86158934D01*
X107063152Y-86158934D02*
X107063152Y-86349410D01*
X107063152Y-86349410D02*
X107110771Y-86444648D01*
X107682200Y-86016077D02*
X107729819Y-86111315D01*
X107729819Y-86111315D02*
X107729819Y-86349410D01*
X107729819Y-86349410D02*
X107682200Y-86444648D01*
X107682200Y-86444648D02*
X107586961Y-86492267D01*
X107586961Y-86492267D02*
X107491723Y-86492267D01*
X107491723Y-86492267D02*
X107396485Y-86444648D01*
X107396485Y-86444648D02*
X107348866Y-86349410D01*
X107348866Y-86349410D02*
X107348866Y-86111315D01*
X107348866Y-86111315D02*
X107301247Y-86016077D01*
X107063152Y-85682743D02*
X107063152Y-85301791D01*
X106729819Y-85539886D02*
X107586961Y-85539886D01*
X107586961Y-85539886D02*
X107682200Y-85492267D01*
X107682200Y-85492267D02*
X107729819Y-85397029D01*
X107729819Y-85397029D02*
X107729819Y-85301791D01*
X107729819Y-84968457D02*
X107063152Y-84968457D01*
X106729819Y-84968457D02*
X106777438Y-85016076D01*
X106777438Y-85016076D02*
X106825057Y-84968457D01*
X106825057Y-84968457D02*
X106777438Y-84920838D01*
X106777438Y-84920838D02*
X106729819Y-84968457D01*
X106729819Y-84968457D02*
X106825057Y-84968457D01*
X107729819Y-84349410D02*
X107682200Y-84444648D01*
X107682200Y-84444648D02*
X107634580Y-84492267D01*
X107634580Y-84492267D02*
X107539342Y-84539886D01*
X107539342Y-84539886D02*
X107253628Y-84539886D01*
X107253628Y-84539886D02*
X107158390Y-84492267D01*
X107158390Y-84492267D02*
X107110771Y-84444648D01*
X107110771Y-84444648D02*
X107063152Y-84349410D01*
X107063152Y-84349410D02*
X107063152Y-84206553D01*
X107063152Y-84206553D02*
X107110771Y-84111315D01*
X107110771Y-84111315D02*
X107158390Y-84063696D01*
X107158390Y-84063696D02*
X107253628Y-84016077D01*
X107253628Y-84016077D02*
X107539342Y-84016077D01*
X107539342Y-84016077D02*
X107634580Y-84063696D01*
X107634580Y-84063696D02*
X107682200Y-84111315D01*
X107682200Y-84111315D02*
X107729819Y-84206553D01*
X107729819Y-84206553D02*
X107729819Y-84349410D01*
X107063152Y-83587505D02*
X107729819Y-83587505D01*
X107158390Y-83587505D02*
X107110771Y-83539886D01*
X107110771Y-83539886D02*
X107063152Y-83444648D01*
X107063152Y-83444648D02*
X107063152Y-83301791D01*
X107063152Y-83301791D02*
X107110771Y-83206553D01*
X107110771Y-83206553D02*
X107206009Y-83158934D01*
X107206009Y-83158934D02*
X107729819Y-83158934D01*
X106682200Y-81968458D02*
X107967914Y-82825600D01*
X107729819Y-81635124D02*
X106729819Y-81635124D01*
X106729819Y-81635124D02*
X107444104Y-81301791D01*
X107444104Y-81301791D02*
X106729819Y-80968458D01*
X106729819Y-80968458D02*
X107729819Y-80968458D01*
X107682200Y-80111315D02*
X107729819Y-80206553D01*
X107729819Y-80206553D02*
X107729819Y-80397029D01*
X107729819Y-80397029D02*
X107682200Y-80492267D01*
X107682200Y-80492267D02*
X107586961Y-80539886D01*
X107586961Y-80539886D02*
X107206009Y-80539886D01*
X107206009Y-80539886D02*
X107110771Y-80492267D01*
X107110771Y-80492267D02*
X107063152Y-80397029D01*
X107063152Y-80397029D02*
X107063152Y-80206553D01*
X107063152Y-80206553D02*
X107110771Y-80111315D01*
X107110771Y-80111315D02*
X107206009Y-80063696D01*
X107206009Y-80063696D02*
X107301247Y-80063696D01*
X107301247Y-80063696D02*
X107396485Y-80539886D01*
X107729819Y-79206553D02*
X107206009Y-79206553D01*
X107206009Y-79206553D02*
X107110771Y-79254172D01*
X107110771Y-79254172D02*
X107063152Y-79349410D01*
X107063152Y-79349410D02*
X107063152Y-79539886D01*
X107063152Y-79539886D02*
X107110771Y-79635124D01*
X107682200Y-79206553D02*
X107729819Y-79301791D01*
X107729819Y-79301791D02*
X107729819Y-79539886D01*
X107729819Y-79539886D02*
X107682200Y-79635124D01*
X107682200Y-79635124D02*
X107586961Y-79682743D01*
X107586961Y-79682743D02*
X107491723Y-79682743D01*
X107491723Y-79682743D02*
X107396485Y-79635124D01*
X107396485Y-79635124D02*
X107348866Y-79539886D01*
X107348866Y-79539886D02*
X107348866Y-79301791D01*
X107348866Y-79301791D02*
X107301247Y-79206553D01*
X107682200Y-78777981D02*
X107729819Y-78682743D01*
X107729819Y-78682743D02*
X107729819Y-78492267D01*
X107729819Y-78492267D02*
X107682200Y-78397029D01*
X107682200Y-78397029D02*
X107586961Y-78349410D01*
X107586961Y-78349410D02*
X107539342Y-78349410D01*
X107539342Y-78349410D02*
X107444104Y-78397029D01*
X107444104Y-78397029D02*
X107396485Y-78492267D01*
X107396485Y-78492267D02*
X107396485Y-78635124D01*
X107396485Y-78635124D02*
X107348866Y-78730362D01*
X107348866Y-78730362D02*
X107253628Y-78777981D01*
X107253628Y-78777981D02*
X107206009Y-78777981D01*
X107206009Y-78777981D02*
X107110771Y-78730362D01*
X107110771Y-78730362D02*
X107063152Y-78635124D01*
X107063152Y-78635124D02*
X107063152Y-78492267D01*
X107063152Y-78492267D02*
X107110771Y-78397029D01*
X107063152Y-77492267D02*
X107729819Y-77492267D01*
X107063152Y-77920838D02*
X107586961Y-77920838D01*
X107586961Y-77920838D02*
X107682200Y-77873219D01*
X107682200Y-77873219D02*
X107729819Y-77777981D01*
X107729819Y-77777981D02*
X107729819Y-77635124D01*
X107729819Y-77635124D02*
X107682200Y-77539886D01*
X107682200Y-77539886D02*
X107634580Y-77492267D01*
X107729819Y-77016076D02*
X107063152Y-77016076D01*
X107253628Y-77016076D02*
X107158390Y-76968457D01*
X107158390Y-76968457D02*
X107110771Y-76920838D01*
X107110771Y-76920838D02*
X107063152Y-76825600D01*
X107063152Y-76825600D02*
X107063152Y-76730362D01*
X107682200Y-76016076D02*
X107729819Y-76111314D01*
X107729819Y-76111314D02*
X107729819Y-76301790D01*
X107729819Y-76301790D02*
X107682200Y-76397028D01*
X107682200Y-76397028D02*
X107586961Y-76444647D01*
X107586961Y-76444647D02*
X107206009Y-76444647D01*
X107206009Y-76444647D02*
X107110771Y-76397028D01*
X107110771Y-76397028D02*
X107063152Y-76301790D01*
X107063152Y-76301790D02*
X107063152Y-76111314D01*
X107063152Y-76111314D02*
X107110771Y-76016076D01*
X107110771Y-76016076D02*
X107206009Y-75968457D01*
X107206009Y-75968457D02*
X107301247Y-75968457D01*
X107301247Y-75968457D02*
X107396485Y-76444647D01*
X93749819Y-86613220D02*
X92749819Y-86613220D01*
X92749819Y-86613220D02*
X92749819Y-86232268D01*
X92749819Y-86232268D02*
X92797438Y-86137030D01*
X92797438Y-86137030D02*
X92845057Y-86089411D01*
X92845057Y-86089411D02*
X92940295Y-86041792D01*
X92940295Y-86041792D02*
X93083152Y-86041792D01*
X93083152Y-86041792D02*
X93178390Y-86089411D01*
X93178390Y-86089411D02*
X93226009Y-86137030D01*
X93226009Y-86137030D02*
X93273628Y-86232268D01*
X93273628Y-86232268D02*
X93273628Y-86613220D01*
X92749819Y-85756077D02*
X92749819Y-85184649D01*
X93749819Y-85470363D02*
X92749819Y-85470363D01*
X93749819Y-84327506D02*
X93749819Y-84898934D01*
X93749819Y-84613220D02*
X92749819Y-84613220D01*
X92749819Y-84613220D02*
X92892676Y-84708458D01*
X92892676Y-84708458D02*
X92987914Y-84803696D01*
X92987914Y-84803696D02*
X93035533Y-84898934D01*
X92749819Y-83708458D02*
X92749819Y-83613220D01*
X92749819Y-83613220D02*
X92797438Y-83517982D01*
X92797438Y-83517982D02*
X92845057Y-83470363D01*
X92845057Y-83470363D02*
X92940295Y-83422744D01*
X92940295Y-83422744D02*
X93130771Y-83375125D01*
X93130771Y-83375125D02*
X93368866Y-83375125D01*
X93368866Y-83375125D02*
X93559342Y-83422744D01*
X93559342Y-83422744D02*
X93654580Y-83470363D01*
X93654580Y-83470363D02*
X93702200Y-83517982D01*
X93702200Y-83517982D02*
X93749819Y-83613220D01*
X93749819Y-83613220D02*
X93749819Y-83708458D01*
X93749819Y-83708458D02*
X93702200Y-83803696D01*
X93702200Y-83803696D02*
X93654580Y-83851315D01*
X93654580Y-83851315D02*
X93559342Y-83898934D01*
X93559342Y-83898934D02*
X93368866Y-83946553D01*
X93368866Y-83946553D02*
X93130771Y-83946553D01*
X93130771Y-83946553D02*
X92940295Y-83898934D01*
X92940295Y-83898934D02*
X92845057Y-83851315D01*
X92845057Y-83851315D02*
X92797438Y-83803696D01*
X92797438Y-83803696D02*
X92749819Y-83708458D01*
X92749819Y-82756077D02*
X92749819Y-82660839D01*
X92749819Y-82660839D02*
X92797438Y-82565601D01*
X92797438Y-82565601D02*
X92845057Y-82517982D01*
X92845057Y-82517982D02*
X92940295Y-82470363D01*
X92940295Y-82470363D02*
X93130771Y-82422744D01*
X93130771Y-82422744D02*
X93368866Y-82422744D01*
X93368866Y-82422744D02*
X93559342Y-82470363D01*
X93559342Y-82470363D02*
X93654580Y-82517982D01*
X93654580Y-82517982D02*
X93702200Y-82565601D01*
X93702200Y-82565601D02*
X93749819Y-82660839D01*
X93749819Y-82660839D02*
X93749819Y-82756077D01*
X93749819Y-82756077D02*
X93702200Y-82851315D01*
X93702200Y-82851315D02*
X93654580Y-82898934D01*
X93654580Y-82898934D02*
X93559342Y-82946553D01*
X93559342Y-82946553D02*
X93368866Y-82994172D01*
X93368866Y-82994172D02*
X93130771Y-82994172D01*
X93130771Y-82994172D02*
X92940295Y-82946553D01*
X92940295Y-82946553D02*
X92845057Y-82898934D01*
X92845057Y-82898934D02*
X92797438Y-82851315D01*
X92797438Y-82851315D02*
X92749819Y-82756077D01*
X169023922Y-68999819D02*
X169357255Y-69999819D01*
X169357255Y-69999819D02*
X169690588Y-68999819D01*
X170595350Y-69904580D02*
X170547731Y-69952200D01*
X170547731Y-69952200D02*
X170404874Y-69999819D01*
X170404874Y-69999819D02*
X170309636Y-69999819D01*
X170309636Y-69999819D02*
X170166779Y-69952200D01*
X170166779Y-69952200D02*
X170071541Y-69856961D01*
X170071541Y-69856961D02*
X170023922Y-69761723D01*
X170023922Y-69761723D02*
X169976303Y-69571247D01*
X169976303Y-69571247D02*
X169976303Y-69428390D01*
X169976303Y-69428390D02*
X170023922Y-69237914D01*
X170023922Y-69237914D02*
X170071541Y-69142676D01*
X170071541Y-69142676D02*
X170166779Y-69047438D01*
X170166779Y-69047438D02*
X170309636Y-68999819D01*
X170309636Y-68999819D02*
X170404874Y-68999819D01*
X170404874Y-68999819D02*
X170547731Y-69047438D01*
X170547731Y-69047438D02*
X170595350Y-69095057D01*
X171595350Y-69904580D02*
X171547731Y-69952200D01*
X171547731Y-69952200D02*
X171404874Y-69999819D01*
X171404874Y-69999819D02*
X171309636Y-69999819D01*
X171309636Y-69999819D02*
X171166779Y-69952200D01*
X171166779Y-69952200D02*
X171071541Y-69856961D01*
X171071541Y-69856961D02*
X171023922Y-69761723D01*
X171023922Y-69761723D02*
X170976303Y-69571247D01*
X170976303Y-69571247D02*
X170976303Y-69428390D01*
X170976303Y-69428390D02*
X171023922Y-69237914D01*
X171023922Y-69237914D02*
X171071541Y-69142676D01*
X171071541Y-69142676D02*
X171166779Y-69047438D01*
X171166779Y-69047438D02*
X171309636Y-68999819D01*
X171309636Y-68999819D02*
X171404874Y-68999819D01*
X171404874Y-68999819D02*
X171547731Y-69047438D01*
X171547731Y-69047438D02*
X171595350Y-69095057D01*
X172309636Y-70380771D02*
X172262017Y-70333152D01*
X172262017Y-70333152D02*
X172166779Y-70190295D01*
X172166779Y-70190295D02*
X172119160Y-70095057D01*
X172119160Y-70095057D02*
X172071541Y-69952200D01*
X172071541Y-69952200D02*
X172023922Y-69714104D01*
X172023922Y-69714104D02*
X172023922Y-69523628D01*
X172023922Y-69523628D02*
X172071541Y-69285533D01*
X172071541Y-69285533D02*
X172119160Y-69142676D01*
X172119160Y-69142676D02*
X172166779Y-69047438D01*
X172166779Y-69047438D02*
X172262017Y-68904580D01*
X172262017Y-68904580D02*
X172309636Y-68856961D01*
X172690589Y-69618866D02*
X173452494Y-69618866D01*
X173071541Y-69999819D02*
X173071541Y-69237914D01*
X174452493Y-69999819D02*
X173881065Y-69999819D01*
X174166779Y-69999819D02*
X174166779Y-68999819D01*
X174166779Y-68999819D02*
X174071541Y-69142676D01*
X174071541Y-69142676D02*
X173976303Y-69237914D01*
X173976303Y-69237914D02*
X173881065Y-69285533D01*
X175357255Y-68999819D02*
X174881065Y-68999819D01*
X174881065Y-68999819D02*
X174833446Y-69476009D01*
X174833446Y-69476009D02*
X174881065Y-69428390D01*
X174881065Y-69428390D02*
X174976303Y-69380771D01*
X174976303Y-69380771D02*
X175214398Y-69380771D01*
X175214398Y-69380771D02*
X175309636Y-69428390D01*
X175309636Y-69428390D02*
X175357255Y-69476009D01*
X175357255Y-69476009D02*
X175404874Y-69571247D01*
X175404874Y-69571247D02*
X175404874Y-69809342D01*
X175404874Y-69809342D02*
X175357255Y-69904580D01*
X175357255Y-69904580D02*
X175309636Y-69952200D01*
X175309636Y-69952200D02*
X175214398Y-69999819D01*
X175214398Y-69999819D02*
X174976303Y-69999819D01*
X174976303Y-69999819D02*
X174881065Y-69952200D01*
X174881065Y-69952200D02*
X174833446Y-69904580D01*
X175738208Y-69333152D02*
X175976303Y-69999819D01*
X175976303Y-69999819D02*
X176214398Y-69333152D01*
X176500113Y-70380771D02*
X176547732Y-70333152D01*
X176547732Y-70333152D02*
X176642970Y-70190295D01*
X176642970Y-70190295D02*
X176690589Y-70095057D01*
X176690589Y-70095057D02*
X176738208Y-69952200D01*
X176738208Y-69952200D02*
X176785827Y-69714104D01*
X176785827Y-69714104D02*
X176785827Y-69523628D01*
X176785827Y-69523628D02*
X176738208Y-69285533D01*
X176738208Y-69285533D02*
X176690589Y-69142676D01*
X176690589Y-69142676D02*
X176642970Y-69047438D01*
X176642970Y-69047438D02*
X176547732Y-68904580D01*
X176547732Y-68904580D02*
X176500113Y-68856961D01*
X169023922Y-73829819D02*
X169357255Y-74829819D01*
X169357255Y-74829819D02*
X169690588Y-73829819D01*
X170023922Y-74306009D02*
X170357255Y-74306009D01*
X170500112Y-74829819D02*
X170023922Y-74829819D01*
X170023922Y-74829819D02*
X170023922Y-73829819D01*
X170023922Y-73829819D02*
X170500112Y-73829819D01*
X170928684Y-74306009D02*
X171262017Y-74306009D01*
X171404874Y-74829819D02*
X170928684Y-74829819D01*
X170928684Y-74829819D02*
X170928684Y-73829819D01*
X170928684Y-73829819D02*
X171404874Y-73829819D01*
X172119160Y-75210771D02*
X172071541Y-75163152D01*
X172071541Y-75163152D02*
X171976303Y-75020295D01*
X171976303Y-75020295D02*
X171928684Y-74925057D01*
X171928684Y-74925057D02*
X171881065Y-74782200D01*
X171881065Y-74782200D02*
X171833446Y-74544104D01*
X171833446Y-74544104D02*
X171833446Y-74353628D01*
X171833446Y-74353628D02*
X171881065Y-74115533D01*
X171881065Y-74115533D02*
X171928684Y-73972676D01*
X171928684Y-73972676D02*
X171976303Y-73877438D01*
X171976303Y-73877438D02*
X172071541Y-73734580D01*
X172071541Y-73734580D02*
X172119160Y-73686961D01*
X172500113Y-74448866D02*
X173262018Y-74448866D01*
X174262017Y-74829819D02*
X173690589Y-74829819D01*
X173976303Y-74829819D02*
X173976303Y-73829819D01*
X173976303Y-73829819D02*
X173881065Y-73972676D01*
X173881065Y-73972676D02*
X173785827Y-74067914D01*
X173785827Y-74067914D02*
X173690589Y-74115533D01*
X175166779Y-73829819D02*
X174690589Y-73829819D01*
X174690589Y-73829819D02*
X174642970Y-74306009D01*
X174642970Y-74306009D02*
X174690589Y-74258390D01*
X174690589Y-74258390D02*
X174785827Y-74210771D01*
X174785827Y-74210771D02*
X175023922Y-74210771D01*
X175023922Y-74210771D02*
X175119160Y-74258390D01*
X175119160Y-74258390D02*
X175166779Y-74306009D01*
X175166779Y-74306009D02*
X175214398Y-74401247D01*
X175214398Y-74401247D02*
X175214398Y-74639342D01*
X175214398Y-74639342D02*
X175166779Y-74734580D01*
X175166779Y-74734580D02*
X175119160Y-74782200D01*
X175119160Y-74782200D02*
X175023922Y-74829819D01*
X175023922Y-74829819D02*
X174785827Y-74829819D01*
X174785827Y-74829819D02*
X174690589Y-74782200D01*
X174690589Y-74782200D02*
X174642970Y-74734580D01*
X175547732Y-74163152D02*
X175785827Y-74829819D01*
X175785827Y-74829819D02*
X176023922Y-74163152D01*
X176309637Y-75210771D02*
X176357256Y-75163152D01*
X176357256Y-75163152D02*
X176452494Y-75020295D01*
X176452494Y-75020295D02*
X176500113Y-74925057D01*
X176500113Y-74925057D02*
X176547732Y-74782200D01*
X176547732Y-74782200D02*
X176595351Y-74544104D01*
X176595351Y-74544104D02*
X176595351Y-74353628D01*
X176595351Y-74353628D02*
X176547732Y-74115533D01*
X176547732Y-74115533D02*
X176500113Y-73972676D01*
X176500113Y-73972676D02*
X176452494Y-73877438D01*
X176452494Y-73877438D02*
X176357256Y-73734580D01*
X176357256Y-73734580D02*
X176309637Y-73686961D01*
X169690588Y-78707438D02*
X169595350Y-78659819D01*
X169595350Y-78659819D02*
X169452493Y-78659819D01*
X169452493Y-78659819D02*
X169309636Y-78707438D01*
X169309636Y-78707438D02*
X169214398Y-78802676D01*
X169214398Y-78802676D02*
X169166779Y-78897914D01*
X169166779Y-78897914D02*
X169119160Y-79088390D01*
X169119160Y-79088390D02*
X169119160Y-79231247D01*
X169119160Y-79231247D02*
X169166779Y-79421723D01*
X169166779Y-79421723D02*
X169214398Y-79516961D01*
X169214398Y-79516961D02*
X169309636Y-79612200D01*
X169309636Y-79612200D02*
X169452493Y-79659819D01*
X169452493Y-79659819D02*
X169547731Y-79659819D01*
X169547731Y-79659819D02*
X169690588Y-79612200D01*
X169690588Y-79612200D02*
X169738207Y-79564580D01*
X169738207Y-79564580D02*
X169738207Y-79231247D01*
X169738207Y-79231247D02*
X169547731Y-79231247D01*
X170166779Y-79659819D02*
X170166779Y-78659819D01*
X170166779Y-78659819D02*
X170738207Y-79659819D01*
X170738207Y-79659819D02*
X170738207Y-78659819D01*
X171214398Y-79659819D02*
X171214398Y-78659819D01*
X171214398Y-78659819D02*
X171452493Y-78659819D01*
X171452493Y-78659819D02*
X171595350Y-78707438D01*
X171595350Y-78707438D02*
X171690588Y-78802676D01*
X171690588Y-78802676D02*
X171738207Y-78897914D01*
X171738207Y-78897914D02*
X171785826Y-79088390D01*
X171785826Y-79088390D02*
X171785826Y-79231247D01*
X171785826Y-79231247D02*
X171738207Y-79421723D01*
X171738207Y-79421723D02*
X171690588Y-79516961D01*
X171690588Y-79516961D02*
X171595350Y-79612200D01*
X171595350Y-79612200D02*
X171452493Y-79659819D01*
X171452493Y-79659819D02*
X171214398Y-79659819D01*
X173262017Y-80040771D02*
X173214398Y-79993152D01*
X173214398Y-79993152D02*
X173119160Y-79850295D01*
X173119160Y-79850295D02*
X173071541Y-79755057D01*
X173071541Y-79755057D02*
X173023922Y-79612200D01*
X173023922Y-79612200D02*
X172976303Y-79374104D01*
X172976303Y-79374104D02*
X172976303Y-79183628D01*
X172976303Y-79183628D02*
X173023922Y-78945533D01*
X173023922Y-78945533D02*
X173071541Y-78802676D01*
X173071541Y-78802676D02*
X173119160Y-78707438D01*
X173119160Y-78707438D02*
X173214398Y-78564580D01*
X173214398Y-78564580D02*
X173262017Y-78516961D01*
X173833446Y-78659819D02*
X173928684Y-78659819D01*
X173928684Y-78659819D02*
X174023922Y-78707438D01*
X174023922Y-78707438D02*
X174071541Y-78755057D01*
X174071541Y-78755057D02*
X174119160Y-78850295D01*
X174119160Y-78850295D02*
X174166779Y-79040771D01*
X174166779Y-79040771D02*
X174166779Y-79278866D01*
X174166779Y-79278866D02*
X174119160Y-79469342D01*
X174119160Y-79469342D02*
X174071541Y-79564580D01*
X174071541Y-79564580D02*
X174023922Y-79612200D01*
X174023922Y-79612200D02*
X173928684Y-79659819D01*
X173928684Y-79659819D02*
X173833446Y-79659819D01*
X173833446Y-79659819D02*
X173738208Y-79612200D01*
X173738208Y-79612200D02*
X173690589Y-79564580D01*
X173690589Y-79564580D02*
X173642970Y-79469342D01*
X173642970Y-79469342D02*
X173595351Y-79278866D01*
X173595351Y-79278866D02*
X173595351Y-79040771D01*
X173595351Y-79040771D02*
X173642970Y-78850295D01*
X173642970Y-78850295D02*
X173690589Y-78755057D01*
X173690589Y-78755057D02*
X173738208Y-78707438D01*
X173738208Y-78707438D02*
X173833446Y-78659819D01*
X174500113Y-78993152D02*
X174738208Y-79659819D01*
X174738208Y-79659819D02*
X174976303Y-78993152D01*
X175262018Y-80040771D02*
X175309637Y-79993152D01*
X175309637Y-79993152D02*
X175404875Y-79850295D01*
X175404875Y-79850295D02*
X175452494Y-79755057D01*
X175452494Y-79755057D02*
X175500113Y-79612200D01*
X175500113Y-79612200D02*
X175547732Y-79374104D01*
X175547732Y-79374104D02*
X175547732Y-79183628D01*
X175547732Y-79183628D02*
X175500113Y-78945533D01*
X175500113Y-78945533D02*
X175452494Y-78802676D01*
X175452494Y-78802676D02*
X175404875Y-78707438D01*
X175404875Y-78707438D02*
X175309637Y-78564580D01*
X175309637Y-78564580D02*
X175262018Y-78516961D01*
X118076779Y-52108866D02*
X118838684Y-52108866D01*
X118457731Y-52489819D02*
X118457731Y-51727914D01*
X119791064Y-51489819D02*
X119314874Y-51489819D01*
X119314874Y-51489819D02*
X119267255Y-51966009D01*
X119267255Y-51966009D02*
X119314874Y-51918390D01*
X119314874Y-51918390D02*
X119410112Y-51870771D01*
X119410112Y-51870771D02*
X119648207Y-51870771D01*
X119648207Y-51870771D02*
X119743445Y-51918390D01*
X119743445Y-51918390D02*
X119791064Y-51966009D01*
X119791064Y-51966009D02*
X119838683Y-52061247D01*
X119838683Y-52061247D02*
X119838683Y-52299342D01*
X119838683Y-52299342D02*
X119791064Y-52394580D01*
X119791064Y-52394580D02*
X119743445Y-52442200D01*
X119743445Y-52442200D02*
X119648207Y-52489819D01*
X119648207Y-52489819D02*
X119410112Y-52489819D01*
X119410112Y-52489819D02*
X119314874Y-52442200D01*
X119314874Y-52442200D02*
X119267255Y-52394580D01*
X120172017Y-51823152D02*
X120410112Y-52489819D01*
X120410112Y-52489819D02*
X120648207Y-51823152D01*
X124600589Y-51537438D02*
X124505351Y-51489819D01*
X124505351Y-51489819D02*
X124362494Y-51489819D01*
X124362494Y-51489819D02*
X124219637Y-51537438D01*
X124219637Y-51537438D02*
X124124399Y-51632676D01*
X124124399Y-51632676D02*
X124076780Y-51727914D01*
X124076780Y-51727914D02*
X124029161Y-51918390D01*
X124029161Y-51918390D02*
X124029161Y-52061247D01*
X124029161Y-52061247D02*
X124076780Y-52251723D01*
X124076780Y-52251723D02*
X124124399Y-52346961D01*
X124124399Y-52346961D02*
X124219637Y-52442200D01*
X124219637Y-52442200D02*
X124362494Y-52489819D01*
X124362494Y-52489819D02*
X124457732Y-52489819D01*
X124457732Y-52489819D02*
X124600589Y-52442200D01*
X124600589Y-52442200D02*
X124648208Y-52394580D01*
X124648208Y-52394580D02*
X124648208Y-52061247D01*
X124648208Y-52061247D02*
X124457732Y-52061247D01*
X125076780Y-52489819D02*
X125076780Y-51489819D01*
X125076780Y-51489819D02*
X125648208Y-52489819D01*
X125648208Y-52489819D02*
X125648208Y-51489819D01*
X126124399Y-52489819D02*
X126124399Y-51489819D01*
X126124399Y-51489819D02*
X126362494Y-51489819D01*
X126362494Y-51489819D02*
X126505351Y-51537438D01*
X126505351Y-51537438D02*
X126600589Y-51632676D01*
X126600589Y-51632676D02*
X126648208Y-51727914D01*
X126648208Y-51727914D02*
X126695827Y-51918390D01*
X126695827Y-51918390D02*
X126695827Y-52061247D01*
X126695827Y-52061247D02*
X126648208Y-52251723D01*
X126648208Y-52251723D02*
X126600589Y-52346961D01*
X126600589Y-52346961D02*
X126505351Y-52442200D01*
X126505351Y-52442200D02*
X126362494Y-52489819D01*
X126362494Y-52489819D02*
X126124399Y-52489819D01*
X97534819Y-105996666D02*
X97058628Y-106329999D01*
X97534819Y-106568094D02*
X96534819Y-106568094D01*
X96534819Y-106568094D02*
X96534819Y-106187142D01*
X96534819Y-106187142D02*
X96582438Y-106091904D01*
X96582438Y-106091904D02*
X96630057Y-106044285D01*
X96630057Y-106044285D02*
X96725295Y-105996666D01*
X96725295Y-105996666D02*
X96868152Y-105996666D01*
X96868152Y-105996666D02*
X96963390Y-106044285D01*
X96963390Y-106044285D02*
X97011009Y-106091904D01*
X97011009Y-106091904D02*
X97058628Y-106187142D01*
X97058628Y-106187142D02*
X97058628Y-106568094D01*
X97534819Y-105520475D02*
X97534819Y-105329999D01*
X97534819Y-105329999D02*
X97487200Y-105234761D01*
X97487200Y-105234761D02*
X97439580Y-105187142D01*
X97439580Y-105187142D02*
X97296723Y-105091904D01*
X97296723Y-105091904D02*
X97106247Y-105044285D01*
X97106247Y-105044285D02*
X96725295Y-105044285D01*
X96725295Y-105044285D02*
X96630057Y-105091904D01*
X96630057Y-105091904D02*
X96582438Y-105139523D01*
X96582438Y-105139523D02*
X96534819Y-105234761D01*
X96534819Y-105234761D02*
X96534819Y-105425237D01*
X96534819Y-105425237D02*
X96582438Y-105520475D01*
X96582438Y-105520475D02*
X96630057Y-105568094D01*
X96630057Y-105568094D02*
X96725295Y-105615713D01*
X96725295Y-105615713D02*
X96963390Y-105615713D01*
X96963390Y-105615713D02*
X97058628Y-105568094D01*
X97058628Y-105568094D02*
X97106247Y-105520475D01*
X97106247Y-105520475D02*
X97153866Y-105425237D01*
X97153866Y-105425237D02*
X97153866Y-105234761D01*
X97153866Y-105234761D02*
X97106247Y-105139523D01*
X97106247Y-105139523D02*
X97058628Y-105091904D01*
X97058628Y-105091904D02*
X96963390Y-105044285D01*
X122094666Y-63208819D02*
X122094666Y-63923104D01*
X122094666Y-63923104D02*
X122047047Y-64065961D01*
X122047047Y-64065961D02*
X121951809Y-64161200D01*
X121951809Y-64161200D02*
X121808952Y-64208819D01*
X121808952Y-64208819D02*
X121713714Y-64208819D01*
X122475619Y-63208819D02*
X123094666Y-63208819D01*
X123094666Y-63208819D02*
X122761333Y-63589771D01*
X122761333Y-63589771D02*
X122904190Y-63589771D01*
X122904190Y-63589771D02*
X122999428Y-63637390D01*
X122999428Y-63637390D02*
X123047047Y-63685009D01*
X123047047Y-63685009D02*
X123094666Y-63780247D01*
X123094666Y-63780247D02*
X123094666Y-64018342D01*
X123094666Y-64018342D02*
X123047047Y-64113580D01*
X123047047Y-64113580D02*
X122999428Y-64161200D01*
X122999428Y-64161200D02*
X122904190Y-64208819D01*
X122904190Y-64208819D02*
X122618476Y-64208819D01*
X122618476Y-64208819D02*
X122523238Y-64161200D01*
X122523238Y-64161200D02*
X122475619Y-64113580D01*
X158264819Y-75248433D02*
X158979104Y-75248433D01*
X158979104Y-75248433D02*
X159121961Y-75296052D01*
X159121961Y-75296052D02*
X159217200Y-75391290D01*
X159217200Y-75391290D02*
X159264819Y-75534147D01*
X159264819Y-75534147D02*
X159264819Y-75629385D01*
X158360057Y-74819861D02*
X158312438Y-74772242D01*
X158312438Y-74772242D02*
X158264819Y-74677004D01*
X158264819Y-74677004D02*
X158264819Y-74438909D01*
X158264819Y-74438909D02*
X158312438Y-74343671D01*
X158312438Y-74343671D02*
X158360057Y-74296052D01*
X158360057Y-74296052D02*
X158455295Y-74248433D01*
X158455295Y-74248433D02*
X158550533Y-74248433D01*
X158550533Y-74248433D02*
X158693390Y-74296052D01*
X158693390Y-74296052D02*
X159264819Y-74867480D01*
X159264819Y-74867480D02*
X159264819Y-74248433D01*
X127515785Y-84111236D02*
X128845400Y-84111236D01*
X128845400Y-84111236D02*
X129001825Y-84033024D01*
X129001825Y-84033024D02*
X129080038Y-83954811D01*
X129080038Y-83954811D02*
X129158250Y-83798386D01*
X129158250Y-83798386D02*
X129158250Y-83485535D01*
X129158250Y-83485535D02*
X129080038Y-83329110D01*
X129080038Y-83329110D02*
X129001825Y-83250898D01*
X129001825Y-83250898D02*
X128845400Y-83172685D01*
X128845400Y-83172685D02*
X127515785Y-83172685D01*
X129158250Y-81530220D02*
X129158250Y-82468771D01*
X129158250Y-81999495D02*
X127515785Y-81999495D01*
X127515785Y-81999495D02*
X127750423Y-82155921D01*
X127750423Y-82155921D02*
X127906848Y-82312346D01*
X127906848Y-82312346D02*
X127985061Y-82468771D01*
X154728446Y-91231580D02*
X154680827Y-91279200D01*
X154680827Y-91279200D02*
X154537970Y-91326819D01*
X154537970Y-91326819D02*
X154442732Y-91326819D01*
X154442732Y-91326819D02*
X154299875Y-91279200D01*
X154299875Y-91279200D02*
X154204637Y-91183961D01*
X154204637Y-91183961D02*
X154157018Y-91088723D01*
X154157018Y-91088723D02*
X154109399Y-90898247D01*
X154109399Y-90898247D02*
X154109399Y-90755390D01*
X154109399Y-90755390D02*
X154157018Y-90564914D01*
X154157018Y-90564914D02*
X154204637Y-90469676D01*
X154204637Y-90469676D02*
X154299875Y-90374438D01*
X154299875Y-90374438D02*
X154442732Y-90326819D01*
X154442732Y-90326819D02*
X154537970Y-90326819D01*
X154537970Y-90326819D02*
X154680827Y-90374438D01*
X154680827Y-90374438D02*
X154728446Y-90422057D01*
X155585589Y-90326819D02*
X155395113Y-90326819D01*
X155395113Y-90326819D02*
X155299875Y-90374438D01*
X155299875Y-90374438D02*
X155252256Y-90422057D01*
X155252256Y-90422057D02*
X155157018Y-90564914D01*
X155157018Y-90564914D02*
X155109399Y-90755390D01*
X155109399Y-90755390D02*
X155109399Y-91136342D01*
X155109399Y-91136342D02*
X155157018Y-91231580D01*
X155157018Y-91231580D02*
X155204637Y-91279200D01*
X155204637Y-91279200D02*
X155299875Y-91326819D01*
X155299875Y-91326819D02*
X155490351Y-91326819D01*
X155490351Y-91326819D02*
X155585589Y-91279200D01*
X155585589Y-91279200D02*
X155633208Y-91231580D01*
X155633208Y-91231580D02*
X155680827Y-91136342D01*
X155680827Y-91136342D02*
X155680827Y-90898247D01*
X155680827Y-90898247D02*
X155633208Y-90803009D01*
X155633208Y-90803009D02*
X155585589Y-90755390D01*
X155585589Y-90755390D02*
X155490351Y-90707771D01*
X155490351Y-90707771D02*
X155299875Y-90707771D01*
X155299875Y-90707771D02*
X155204637Y-90755390D01*
X155204637Y-90755390D02*
X155157018Y-90803009D01*
X155157018Y-90803009D02*
X155109399Y-90898247D01*
X115896819Y-67730666D02*
X115420628Y-68063999D01*
X115896819Y-68302094D02*
X114896819Y-68302094D01*
X114896819Y-68302094D02*
X114896819Y-67921142D01*
X114896819Y-67921142D02*
X114944438Y-67825904D01*
X114944438Y-67825904D02*
X114992057Y-67778285D01*
X114992057Y-67778285D02*
X115087295Y-67730666D01*
X115087295Y-67730666D02*
X115230152Y-67730666D01*
X115230152Y-67730666D02*
X115325390Y-67778285D01*
X115325390Y-67778285D02*
X115373009Y-67825904D01*
X115373009Y-67825904D02*
X115420628Y-67921142D01*
X115420628Y-67921142D02*
X115420628Y-68302094D01*
X114992057Y-67349713D02*
X114944438Y-67302094D01*
X114944438Y-67302094D02*
X114896819Y-67206856D01*
X114896819Y-67206856D02*
X114896819Y-66968761D01*
X114896819Y-66968761D02*
X114944438Y-66873523D01*
X114944438Y-66873523D02*
X114992057Y-66825904D01*
X114992057Y-66825904D02*
X115087295Y-66778285D01*
X115087295Y-66778285D02*
X115182533Y-66778285D01*
X115182533Y-66778285D02*
X115325390Y-66825904D01*
X115325390Y-66825904D02*
X115896819Y-67397332D01*
X115896819Y-67397332D02*
X115896819Y-66778285D01*
X105184819Y-105846666D02*
X104708628Y-106179999D01*
X105184819Y-106418094D02*
X104184819Y-106418094D01*
X104184819Y-106418094D02*
X104184819Y-106037142D01*
X104184819Y-106037142D02*
X104232438Y-105941904D01*
X104232438Y-105941904D02*
X104280057Y-105894285D01*
X104280057Y-105894285D02*
X104375295Y-105846666D01*
X104375295Y-105846666D02*
X104518152Y-105846666D01*
X104518152Y-105846666D02*
X104613390Y-105894285D01*
X104613390Y-105894285D02*
X104661009Y-105941904D01*
X104661009Y-105941904D02*
X104708628Y-106037142D01*
X104708628Y-106037142D02*
X104708628Y-106418094D01*
X104184819Y-105513332D02*
X104184819Y-104846666D01*
X104184819Y-104846666D02*
X105184819Y-105275237D01*
X103516869Y-84685333D02*
X104231154Y-84685333D01*
X104231154Y-84685333D02*
X104374011Y-84732952D01*
X104374011Y-84732952D02*
X104469250Y-84828190D01*
X104469250Y-84828190D02*
X104516869Y-84971047D01*
X104516869Y-84971047D02*
X104516869Y-85066285D01*
X104516869Y-83685333D02*
X104516869Y-84256761D01*
X104516869Y-83971047D02*
X103516869Y-83971047D01*
X103516869Y-83971047D02*
X103659726Y-84066285D01*
X103659726Y-84066285D02*
X103754964Y-84161523D01*
X103754964Y-84161523D02*
X103802583Y-84256761D01*
X122502819Y-80684666D02*
X122026628Y-81017999D01*
X122502819Y-81256094D02*
X121502819Y-81256094D01*
X121502819Y-81256094D02*
X121502819Y-80875142D01*
X121502819Y-80875142D02*
X121550438Y-80779904D01*
X121550438Y-80779904D02*
X121598057Y-80732285D01*
X121598057Y-80732285D02*
X121693295Y-80684666D01*
X121693295Y-80684666D02*
X121836152Y-80684666D01*
X121836152Y-80684666D02*
X121931390Y-80732285D01*
X121931390Y-80732285D02*
X121979009Y-80779904D01*
X121979009Y-80779904D02*
X122026628Y-80875142D01*
X122026628Y-80875142D02*
X122026628Y-81256094D01*
X121502819Y-80351332D02*
X121502819Y-79732285D01*
X121502819Y-79732285D02*
X121883771Y-80065618D01*
X121883771Y-80065618D02*
X121883771Y-79922761D01*
X121883771Y-79922761D02*
X121931390Y-79827523D01*
X121931390Y-79827523D02*
X121979009Y-79779904D01*
X121979009Y-79779904D02*
X122074247Y-79732285D01*
X122074247Y-79732285D02*
X122312342Y-79732285D01*
X122312342Y-79732285D02*
X122407580Y-79779904D01*
X122407580Y-79779904D02*
X122455200Y-79827523D01*
X122455200Y-79827523D02*
X122502819Y-79922761D01*
X122502819Y-79922761D02*
X122502819Y-80208475D01*
X122502819Y-80208475D02*
X122455200Y-80303713D01*
X122455200Y-80303713D02*
X122407580Y-80351332D01*
D12*
X116579800Y-84963332D02*
X116627419Y-84820475D01*
X116627419Y-84820475D02*
X116627419Y-84582380D01*
X116627419Y-84582380D02*
X116579800Y-84487142D01*
X116579800Y-84487142D02*
X116532180Y-84439523D01*
X116532180Y-84439523D02*
X116436942Y-84391904D01*
X116436942Y-84391904D02*
X116341704Y-84391904D01*
X116341704Y-84391904D02*
X116246466Y-84439523D01*
X116246466Y-84439523D02*
X116198847Y-84487142D01*
X116198847Y-84487142D02*
X116151228Y-84582380D01*
X116151228Y-84582380D02*
X116103609Y-84772856D01*
X116103609Y-84772856D02*
X116055990Y-84868094D01*
X116055990Y-84868094D02*
X116008371Y-84915713D01*
X116008371Y-84915713D02*
X115913133Y-84963332D01*
X115913133Y-84963332D02*
X115817895Y-84963332D01*
X115817895Y-84963332D02*
X115722657Y-84915713D01*
X115722657Y-84915713D02*
X115675038Y-84868094D01*
X115675038Y-84868094D02*
X115627419Y-84772856D01*
X115627419Y-84772856D02*
X115627419Y-84534761D01*
X115627419Y-84534761D02*
X115675038Y-84391904D01*
X115627419Y-84058570D02*
X116627419Y-83820475D01*
X116627419Y-83820475D02*
X115913133Y-83629999D01*
X115913133Y-83629999D02*
X116627419Y-83439523D01*
X116627419Y-83439523D02*
X115627419Y-83201428D01*
X116627419Y-82296666D02*
X116627419Y-82868094D01*
X116627419Y-82582380D02*
X115627419Y-82582380D01*
X115627419Y-82582380D02*
X115770276Y-82677618D01*
X115770276Y-82677618D02*
X115865514Y-82772856D01*
X115865514Y-82772856D02*
X115913133Y-82868094D01*
D11*
X162603333Y-87284819D02*
X162270000Y-86808628D01*
X162031905Y-87284819D02*
X162031905Y-86284819D01*
X162031905Y-86284819D02*
X162412857Y-86284819D01*
X162412857Y-86284819D02*
X162508095Y-86332438D01*
X162508095Y-86332438D02*
X162555714Y-86380057D01*
X162555714Y-86380057D02*
X162603333Y-86475295D01*
X162603333Y-86475295D02*
X162603333Y-86618152D01*
X162603333Y-86618152D02*
X162555714Y-86713390D01*
X162555714Y-86713390D02*
X162508095Y-86761009D01*
X162508095Y-86761009D02*
X162412857Y-86808628D01*
X162412857Y-86808628D02*
X162031905Y-86808628D01*
X163174762Y-86713390D02*
X163079524Y-86665771D01*
X163079524Y-86665771D02*
X163031905Y-86618152D01*
X163031905Y-86618152D02*
X162984286Y-86522914D01*
X162984286Y-86522914D02*
X162984286Y-86475295D01*
X162984286Y-86475295D02*
X163031905Y-86380057D01*
X163031905Y-86380057D02*
X163079524Y-86332438D01*
X163079524Y-86332438D02*
X163174762Y-86284819D01*
X163174762Y-86284819D02*
X163365238Y-86284819D01*
X163365238Y-86284819D02*
X163460476Y-86332438D01*
X163460476Y-86332438D02*
X163508095Y-86380057D01*
X163508095Y-86380057D02*
X163555714Y-86475295D01*
X163555714Y-86475295D02*
X163555714Y-86522914D01*
X163555714Y-86522914D02*
X163508095Y-86618152D01*
X163508095Y-86618152D02*
X163460476Y-86665771D01*
X163460476Y-86665771D02*
X163365238Y-86713390D01*
X163365238Y-86713390D02*
X163174762Y-86713390D01*
X163174762Y-86713390D02*
X163079524Y-86761009D01*
X163079524Y-86761009D02*
X163031905Y-86808628D01*
X163031905Y-86808628D02*
X162984286Y-86903866D01*
X162984286Y-86903866D02*
X162984286Y-87094342D01*
X162984286Y-87094342D02*
X163031905Y-87189580D01*
X163031905Y-87189580D02*
X163079524Y-87237200D01*
X163079524Y-87237200D02*
X163174762Y-87284819D01*
X163174762Y-87284819D02*
X163365238Y-87284819D01*
X163365238Y-87284819D02*
X163460476Y-87237200D01*
X163460476Y-87237200D02*
X163508095Y-87189580D01*
X163508095Y-87189580D02*
X163555714Y-87094342D01*
X163555714Y-87094342D02*
X163555714Y-86903866D01*
X163555714Y-86903866D02*
X163508095Y-86808628D01*
X163508095Y-86808628D02*
X163460476Y-86761009D01*
X163460476Y-86761009D02*
X163365238Y-86713390D01*
X171537333Y-85957580D02*
X171489714Y-86005200D01*
X171489714Y-86005200D02*
X171346857Y-86052819D01*
X171346857Y-86052819D02*
X171251619Y-86052819D01*
X171251619Y-86052819D02*
X171108762Y-86005200D01*
X171108762Y-86005200D02*
X171013524Y-85909961D01*
X171013524Y-85909961D02*
X170965905Y-85814723D01*
X170965905Y-85814723D02*
X170918286Y-85624247D01*
X170918286Y-85624247D02*
X170918286Y-85481390D01*
X170918286Y-85481390D02*
X170965905Y-85290914D01*
X170965905Y-85290914D02*
X171013524Y-85195676D01*
X171013524Y-85195676D02*
X171108762Y-85100438D01*
X171108762Y-85100438D02*
X171251619Y-85052819D01*
X171251619Y-85052819D02*
X171346857Y-85052819D01*
X171346857Y-85052819D02*
X171489714Y-85100438D01*
X171489714Y-85100438D02*
X171537333Y-85148057D01*
X171918286Y-85148057D02*
X171965905Y-85100438D01*
X171965905Y-85100438D02*
X172061143Y-85052819D01*
X172061143Y-85052819D02*
X172299238Y-85052819D01*
X172299238Y-85052819D02*
X172394476Y-85100438D01*
X172394476Y-85100438D02*
X172442095Y-85148057D01*
X172442095Y-85148057D02*
X172489714Y-85243295D01*
X172489714Y-85243295D02*
X172489714Y-85338533D01*
X172489714Y-85338533D02*
X172442095Y-85481390D01*
X172442095Y-85481390D02*
X171870667Y-86052819D01*
X171870667Y-86052819D02*
X172489714Y-86052819D01*
X148189333Y-56433580D02*
X148141714Y-56481200D01*
X148141714Y-56481200D02*
X147998857Y-56528819D01*
X147998857Y-56528819D02*
X147903619Y-56528819D01*
X147903619Y-56528819D02*
X147760762Y-56481200D01*
X147760762Y-56481200D02*
X147665524Y-56385961D01*
X147665524Y-56385961D02*
X147617905Y-56290723D01*
X147617905Y-56290723D02*
X147570286Y-56100247D01*
X147570286Y-56100247D02*
X147570286Y-55957390D01*
X147570286Y-55957390D02*
X147617905Y-55766914D01*
X147617905Y-55766914D02*
X147665524Y-55671676D01*
X147665524Y-55671676D02*
X147760762Y-55576438D01*
X147760762Y-55576438D02*
X147903619Y-55528819D01*
X147903619Y-55528819D02*
X147998857Y-55528819D01*
X147998857Y-55528819D02*
X148141714Y-55576438D01*
X148141714Y-55576438D02*
X148189333Y-55624057D01*
X149141714Y-56528819D02*
X148570286Y-56528819D01*
X148856000Y-56528819D02*
X148856000Y-55528819D01*
X148856000Y-55528819D02*
X148760762Y-55671676D01*
X148760762Y-55671676D02*
X148665524Y-55766914D01*
X148665524Y-55766914D02*
X148570286Y-55814533D01*
X122709819Y-69175238D02*
X122233628Y-69508571D01*
X122709819Y-69746666D02*
X121709819Y-69746666D01*
X121709819Y-69746666D02*
X121709819Y-69365714D01*
X121709819Y-69365714D02*
X121757438Y-69270476D01*
X121757438Y-69270476D02*
X121805057Y-69222857D01*
X121805057Y-69222857D02*
X121900295Y-69175238D01*
X121900295Y-69175238D02*
X122043152Y-69175238D01*
X122043152Y-69175238D02*
X122138390Y-69222857D01*
X122138390Y-69222857D02*
X122186009Y-69270476D01*
X122186009Y-69270476D02*
X122233628Y-69365714D01*
X122233628Y-69365714D02*
X122233628Y-69746666D01*
X121709819Y-68889523D02*
X122709819Y-68556190D01*
X122709819Y-68556190D02*
X121709819Y-68222857D01*
X122709819Y-67365714D02*
X122709819Y-67937142D01*
X122709819Y-67651428D02*
X121709819Y-67651428D01*
X121709819Y-67651428D02*
X121852676Y-67746666D01*
X121852676Y-67746666D02*
X121947914Y-67841904D01*
X121947914Y-67841904D02*
X121995533Y-67937142D01*
X108037333Y-92656819D02*
X107704000Y-92180628D01*
X107465905Y-92656819D02*
X107465905Y-91656819D01*
X107465905Y-91656819D02*
X107846857Y-91656819D01*
X107846857Y-91656819D02*
X107942095Y-91704438D01*
X107942095Y-91704438D02*
X107989714Y-91752057D01*
X107989714Y-91752057D02*
X108037333Y-91847295D01*
X108037333Y-91847295D02*
X108037333Y-91990152D01*
X108037333Y-91990152D02*
X107989714Y-92085390D01*
X107989714Y-92085390D02*
X107942095Y-92133009D01*
X107942095Y-92133009D02*
X107846857Y-92180628D01*
X107846857Y-92180628D02*
X107465905Y-92180628D01*
X108894476Y-91656819D02*
X108704000Y-91656819D01*
X108704000Y-91656819D02*
X108608762Y-91704438D01*
X108608762Y-91704438D02*
X108561143Y-91752057D01*
X108561143Y-91752057D02*
X108465905Y-91894914D01*
X108465905Y-91894914D02*
X108418286Y-92085390D01*
X108418286Y-92085390D02*
X108418286Y-92466342D01*
X108418286Y-92466342D02*
X108465905Y-92561580D01*
X108465905Y-92561580D02*
X108513524Y-92609200D01*
X108513524Y-92609200D02*
X108608762Y-92656819D01*
X108608762Y-92656819D02*
X108799238Y-92656819D01*
X108799238Y-92656819D02*
X108894476Y-92609200D01*
X108894476Y-92609200D02*
X108942095Y-92561580D01*
X108942095Y-92561580D02*
X108989714Y-92466342D01*
X108989714Y-92466342D02*
X108989714Y-92228247D01*
X108989714Y-92228247D02*
X108942095Y-92133009D01*
X108942095Y-92133009D02*
X108894476Y-92085390D01*
X108894476Y-92085390D02*
X108799238Y-92037771D01*
X108799238Y-92037771D02*
X108608762Y-92037771D01*
X108608762Y-92037771D02*
X108513524Y-92085390D01*
X108513524Y-92085390D02*
X108465905Y-92133009D01*
X108465905Y-92133009D02*
X108418286Y-92228247D01*
X140275333Y-59227580D02*
X140227714Y-59275200D01*
X140227714Y-59275200D02*
X140084857Y-59322819D01*
X140084857Y-59322819D02*
X139989619Y-59322819D01*
X139989619Y-59322819D02*
X139846762Y-59275200D01*
X139846762Y-59275200D02*
X139751524Y-59179961D01*
X139751524Y-59179961D02*
X139703905Y-59084723D01*
X139703905Y-59084723D02*
X139656286Y-58894247D01*
X139656286Y-58894247D02*
X139656286Y-58751390D01*
X139656286Y-58751390D02*
X139703905Y-58560914D01*
X139703905Y-58560914D02*
X139751524Y-58465676D01*
X139751524Y-58465676D02*
X139846762Y-58370438D01*
X139846762Y-58370438D02*
X139989619Y-58322819D01*
X139989619Y-58322819D02*
X140084857Y-58322819D01*
X140084857Y-58322819D02*
X140227714Y-58370438D01*
X140227714Y-58370438D02*
X140275333Y-58418057D01*
X140608667Y-58322819D02*
X141227714Y-58322819D01*
X141227714Y-58322819D02*
X140894381Y-58703771D01*
X140894381Y-58703771D02*
X141037238Y-58703771D01*
X141037238Y-58703771D02*
X141132476Y-58751390D01*
X141132476Y-58751390D02*
X141180095Y-58799009D01*
X141180095Y-58799009D02*
X141227714Y-58894247D01*
X141227714Y-58894247D02*
X141227714Y-59132342D01*
X141227714Y-59132342D02*
X141180095Y-59227580D01*
X141180095Y-59227580D02*
X141132476Y-59275200D01*
X141132476Y-59275200D02*
X141037238Y-59322819D01*
X141037238Y-59322819D02*
X140751524Y-59322819D01*
X140751524Y-59322819D02*
X140656286Y-59275200D01*
X140656286Y-59275200D02*
X140608667Y-59227580D01*
X151041580Y-77616666D02*
X151089200Y-77664285D01*
X151089200Y-77664285D02*
X151136819Y-77807142D01*
X151136819Y-77807142D02*
X151136819Y-77902380D01*
X151136819Y-77902380D02*
X151089200Y-78045237D01*
X151089200Y-78045237D02*
X150993961Y-78140475D01*
X150993961Y-78140475D02*
X150898723Y-78188094D01*
X150898723Y-78188094D02*
X150708247Y-78235713D01*
X150708247Y-78235713D02*
X150565390Y-78235713D01*
X150565390Y-78235713D02*
X150374914Y-78188094D01*
X150374914Y-78188094D02*
X150279676Y-78140475D01*
X150279676Y-78140475D02*
X150184438Y-78045237D01*
X150184438Y-78045237D02*
X150136819Y-77902380D01*
X150136819Y-77902380D02*
X150136819Y-77807142D01*
X150136819Y-77807142D02*
X150184438Y-77664285D01*
X150184438Y-77664285D02*
X150232057Y-77616666D01*
X150470152Y-76759523D02*
X151136819Y-76759523D01*
X150089200Y-76997618D02*
X150803485Y-77235713D01*
X150803485Y-77235713D02*
X150803485Y-76616666D01*
X143076819Y-68746666D02*
X142600628Y-69079999D01*
X143076819Y-69318094D02*
X142076819Y-69318094D01*
X142076819Y-69318094D02*
X142076819Y-68937142D01*
X142076819Y-68937142D02*
X142124438Y-68841904D01*
X142124438Y-68841904D02*
X142172057Y-68794285D01*
X142172057Y-68794285D02*
X142267295Y-68746666D01*
X142267295Y-68746666D02*
X142410152Y-68746666D01*
X142410152Y-68746666D02*
X142505390Y-68794285D01*
X142505390Y-68794285D02*
X142553009Y-68841904D01*
X142553009Y-68841904D02*
X142600628Y-68937142D01*
X142600628Y-68937142D02*
X142600628Y-69318094D01*
X142410152Y-67889523D02*
X143076819Y-67889523D01*
X142029200Y-68127618D02*
X142743485Y-68365713D01*
X142743485Y-68365713D02*
X142743485Y-67746666D01*
X174429819Y-57709404D02*
X175239342Y-57709404D01*
X175239342Y-57709404D02*
X175334580Y-57661785D01*
X175334580Y-57661785D02*
X175382200Y-57614166D01*
X175382200Y-57614166D02*
X175429819Y-57518928D01*
X175429819Y-57518928D02*
X175429819Y-57328452D01*
X175429819Y-57328452D02*
X175382200Y-57233214D01*
X175382200Y-57233214D02*
X175334580Y-57185595D01*
X175334580Y-57185595D02*
X175239342Y-57137976D01*
X175239342Y-57137976D02*
X174429819Y-57137976D01*
X174525057Y-56709404D02*
X174477438Y-56661785D01*
X174477438Y-56661785D02*
X174429819Y-56566547D01*
X174429819Y-56566547D02*
X174429819Y-56328452D01*
X174429819Y-56328452D02*
X174477438Y-56233214D01*
X174477438Y-56233214D02*
X174525057Y-56185595D01*
X174525057Y-56185595D02*
X174620295Y-56137976D01*
X174620295Y-56137976D02*
X174715533Y-56137976D01*
X174715533Y-56137976D02*
X174858390Y-56185595D01*
X174858390Y-56185595D02*
X175429819Y-56757023D01*
X175429819Y-56757023D02*
X175429819Y-56137976D01*
X136472819Y-69000666D02*
X135996628Y-69333999D01*
X136472819Y-69572094D02*
X135472819Y-69572094D01*
X135472819Y-69572094D02*
X135472819Y-69191142D01*
X135472819Y-69191142D02*
X135520438Y-69095904D01*
X135520438Y-69095904D02*
X135568057Y-69048285D01*
X135568057Y-69048285D02*
X135663295Y-69000666D01*
X135663295Y-69000666D02*
X135806152Y-69000666D01*
X135806152Y-69000666D02*
X135901390Y-69048285D01*
X135901390Y-69048285D02*
X135949009Y-69095904D01*
X135949009Y-69095904D02*
X135996628Y-69191142D01*
X135996628Y-69191142D02*
X135996628Y-69572094D01*
X135472819Y-68095904D02*
X135472819Y-68572094D01*
X135472819Y-68572094D02*
X135949009Y-68619713D01*
X135949009Y-68619713D02*
X135901390Y-68572094D01*
X135901390Y-68572094D02*
X135853771Y-68476856D01*
X135853771Y-68476856D02*
X135853771Y-68238761D01*
X135853771Y-68238761D02*
X135901390Y-68143523D01*
X135901390Y-68143523D02*
X135949009Y-68095904D01*
X135949009Y-68095904D02*
X136044247Y-68048285D01*
X136044247Y-68048285D02*
X136282342Y-68048285D01*
X136282342Y-68048285D02*
X136377580Y-68095904D01*
X136377580Y-68095904D02*
X136425200Y-68143523D01*
X136425200Y-68143523D02*
X136472819Y-68238761D01*
X136472819Y-68238761D02*
X136472819Y-68476856D01*
X136472819Y-68476856D02*
X136425200Y-68572094D01*
X136425200Y-68572094D02*
X136377580Y-68619713D01*
D12*
X117575419Y-91447333D02*
X118289704Y-91447333D01*
X118289704Y-91447333D02*
X118432561Y-91494952D01*
X118432561Y-91494952D02*
X118527800Y-91590190D01*
X118527800Y-91590190D02*
X118575419Y-91733047D01*
X118575419Y-91733047D02*
X118575419Y-91828285D01*
X118575419Y-90971142D02*
X117575419Y-90971142D01*
X117575419Y-90971142D02*
X117575419Y-90590190D01*
X117575419Y-90590190D02*
X117623038Y-90494952D01*
X117623038Y-90494952D02*
X117670657Y-90447333D01*
X117670657Y-90447333D02*
X117765895Y-90399714D01*
X117765895Y-90399714D02*
X117908752Y-90399714D01*
X117908752Y-90399714D02*
X118003990Y-90447333D01*
X118003990Y-90447333D02*
X118051609Y-90494952D01*
X118051609Y-90494952D02*
X118099228Y-90590190D01*
X118099228Y-90590190D02*
X118099228Y-90971142D01*
X118575419Y-89447333D02*
X118575419Y-90018761D01*
X118575419Y-89733047D02*
X117575419Y-89733047D01*
X117575419Y-89733047D02*
X117718276Y-89828285D01*
X117718276Y-89828285D02*
X117813514Y-89923523D01*
X117813514Y-89923523D02*
X117861133Y-90018761D01*
X117476667Y-115979800D02*
X117619524Y-116027419D01*
X117619524Y-116027419D02*
X117857619Y-116027419D01*
X117857619Y-116027419D02*
X117952857Y-115979800D01*
X117952857Y-115979800D02*
X118000476Y-115932180D01*
X118000476Y-115932180D02*
X118048095Y-115836942D01*
X118048095Y-115836942D02*
X118048095Y-115741704D01*
X118048095Y-115741704D02*
X118000476Y-115646466D01*
X118000476Y-115646466D02*
X117952857Y-115598847D01*
X117952857Y-115598847D02*
X117857619Y-115551228D01*
X117857619Y-115551228D02*
X117667143Y-115503609D01*
X117667143Y-115503609D02*
X117571905Y-115455990D01*
X117571905Y-115455990D02*
X117524286Y-115408371D01*
X117524286Y-115408371D02*
X117476667Y-115313133D01*
X117476667Y-115313133D02*
X117476667Y-115217895D01*
X117476667Y-115217895D02*
X117524286Y-115122657D01*
X117524286Y-115122657D02*
X117571905Y-115075038D01*
X117571905Y-115075038D02*
X117667143Y-115027419D01*
X117667143Y-115027419D02*
X117905238Y-115027419D01*
X117905238Y-115027419D02*
X118048095Y-115075038D01*
X118381429Y-115027419D02*
X118619524Y-116027419D01*
X118619524Y-116027419D02*
X118810000Y-115313133D01*
X118810000Y-115313133D02*
X119000476Y-116027419D01*
X119000476Y-116027419D02*
X119238572Y-115027419D01*
X119571905Y-115122657D02*
X119619524Y-115075038D01*
X119619524Y-115075038D02*
X119714762Y-115027419D01*
X119714762Y-115027419D02*
X119952857Y-115027419D01*
X119952857Y-115027419D02*
X120048095Y-115075038D01*
X120048095Y-115075038D02*
X120095714Y-115122657D01*
X120095714Y-115122657D02*
X120143333Y-115217895D01*
X120143333Y-115217895D02*
X120143333Y-115313133D01*
X120143333Y-115313133D02*
X120095714Y-115455990D01*
X120095714Y-115455990D02*
X119524286Y-116027419D01*
X119524286Y-116027419D02*
X120143333Y-116027419D01*
D11*
X107514819Y-68238666D02*
X107038628Y-68571999D01*
X107514819Y-68810094D02*
X106514819Y-68810094D01*
X106514819Y-68810094D02*
X106514819Y-68429142D01*
X106514819Y-68429142D02*
X106562438Y-68333904D01*
X106562438Y-68333904D02*
X106610057Y-68286285D01*
X106610057Y-68286285D02*
X106705295Y-68238666D01*
X106705295Y-68238666D02*
X106848152Y-68238666D01*
X106848152Y-68238666D02*
X106943390Y-68286285D01*
X106943390Y-68286285D02*
X106991009Y-68333904D01*
X106991009Y-68333904D02*
X107038628Y-68429142D01*
X107038628Y-68429142D02*
X107038628Y-68810094D01*
X107514819Y-67286285D02*
X107514819Y-67857713D01*
X107514819Y-67571999D02*
X106514819Y-67571999D01*
X106514819Y-67571999D02*
X106657676Y-67667237D01*
X106657676Y-67667237D02*
X106752914Y-67762475D01*
X106752914Y-67762475D02*
X106800533Y-67857713D01*
X168429580Y-90466666D02*
X168477200Y-90514285D01*
X168477200Y-90514285D02*
X168524819Y-90657142D01*
X168524819Y-90657142D02*
X168524819Y-90752380D01*
X168524819Y-90752380D02*
X168477200Y-90895237D01*
X168477200Y-90895237D02*
X168381961Y-90990475D01*
X168381961Y-90990475D02*
X168286723Y-91038094D01*
X168286723Y-91038094D02*
X168096247Y-91085713D01*
X168096247Y-91085713D02*
X167953390Y-91085713D01*
X167953390Y-91085713D02*
X167762914Y-91038094D01*
X167762914Y-91038094D02*
X167667676Y-90990475D01*
X167667676Y-90990475D02*
X167572438Y-90895237D01*
X167572438Y-90895237D02*
X167524819Y-90752380D01*
X167524819Y-90752380D02*
X167524819Y-90657142D01*
X167524819Y-90657142D02*
X167572438Y-90514285D01*
X167572438Y-90514285D02*
X167620057Y-90466666D01*
X167524819Y-89561904D02*
X167524819Y-90038094D01*
X167524819Y-90038094D02*
X168001009Y-90085713D01*
X168001009Y-90085713D02*
X167953390Y-90038094D01*
X167953390Y-90038094D02*
X167905771Y-89942856D01*
X167905771Y-89942856D02*
X167905771Y-89704761D01*
X167905771Y-89704761D02*
X167953390Y-89609523D01*
X167953390Y-89609523D02*
X168001009Y-89561904D01*
X168001009Y-89561904D02*
X168096247Y-89514285D01*
X168096247Y-89514285D02*
X168334342Y-89514285D01*
X168334342Y-89514285D02*
X168429580Y-89561904D01*
X168429580Y-89561904D02*
X168477200Y-89609523D01*
X168477200Y-89609523D02*
X168524819Y-89704761D01*
X168524819Y-89704761D02*
X168524819Y-89942856D01*
X168524819Y-89942856D02*
X168477200Y-90038094D01*
X168477200Y-90038094D02*
X168429580Y-90085713D01*
%TO.C,G\u002A\u002A\u002A*%
G36*
X104788582Y-51907668D02*
G01*
X104836021Y-51913016D01*
X104898679Y-51924144D01*
X104959857Y-51939432D01*
X105019389Y-51958743D01*
X105077107Y-51981940D01*
X105132847Y-52008886D01*
X105186441Y-52039444D01*
X105237725Y-52073478D01*
X105286532Y-52110851D01*
X105332695Y-52151426D01*
X105376050Y-52195065D01*
X105416429Y-52241633D01*
X105453667Y-52290992D01*
X105487597Y-52343005D01*
X105518054Y-52397536D01*
X105544872Y-52454448D01*
X105567884Y-52513604D01*
X105569104Y-52517116D01*
X105584766Y-52567857D01*
X105597946Y-52621996D01*
X105608551Y-52679114D01*
X105614014Y-52717608D01*
X105614259Y-52719769D01*
X105614493Y-52722334D01*
X105614717Y-52725403D01*
X105614931Y-52729075D01*
X105615136Y-52733449D01*
X105615331Y-52738627D01*
X105615517Y-52744709D01*
X105615694Y-52751793D01*
X105615863Y-52759980D01*
X105616023Y-52769370D01*
X105616176Y-52780063D01*
X105616320Y-52792159D01*
X105616458Y-52805757D01*
X105616588Y-52820959D01*
X105616712Y-52837863D01*
X105616829Y-52856569D01*
X105616939Y-52877178D01*
X105617044Y-52899789D01*
X105617143Y-52924503D01*
X105617237Y-52951419D01*
X105617325Y-52980637D01*
X105617409Y-53012258D01*
X105617488Y-53046381D01*
X105617563Y-53083106D01*
X105617634Y-53122532D01*
X105617701Y-53164761D01*
X105617765Y-53209892D01*
X105617825Y-53258025D01*
X105617883Y-53309259D01*
X105617938Y-53363695D01*
X105617991Y-53421433D01*
X105618042Y-53482572D01*
X105618091Y-53547213D01*
X105618138Y-53615456D01*
X105618185Y-53687400D01*
X105618231Y-53763145D01*
X105618276Y-53842791D01*
X105618320Y-53926439D01*
X105618365Y-54014188D01*
X105618410Y-54106138D01*
X105618455Y-54202390D01*
X105618502Y-54302830D01*
X105619209Y-55857923D01*
X105648540Y-55885670D01*
X105700852Y-55938154D01*
X105750602Y-55994103D01*
X105797502Y-56053102D01*
X105841267Y-56114735D01*
X105881609Y-56178585D01*
X105918242Y-56244236D01*
X105950880Y-56311272D01*
X105966924Y-56348340D01*
X105993728Y-56418939D01*
X106016495Y-56491294D01*
X106035181Y-56565076D01*
X106049739Y-56639958D01*
X106060124Y-56715612D01*
X106066287Y-56791710D01*
X106068185Y-56867923D01*
X106065770Y-56943925D01*
X106060087Y-57009951D01*
X106049126Y-57088081D01*
X106033902Y-57164810D01*
X106014445Y-57240063D01*
X105990782Y-57313767D01*
X105962941Y-57385848D01*
X105930952Y-57456231D01*
X105894841Y-57524842D01*
X105854637Y-57591608D01*
X105817703Y-57646241D01*
X105770615Y-57708637D01*
X105720466Y-57767818D01*
X105667408Y-57823709D01*
X105611597Y-57876234D01*
X105553187Y-57925320D01*
X105492332Y-57970889D01*
X105429187Y-58012869D01*
X105363907Y-58051183D01*
X105296646Y-58085757D01*
X105227558Y-58116515D01*
X105156798Y-58143383D01*
X105084521Y-58166285D01*
X105010881Y-58185147D01*
X104936033Y-58199892D01*
X104860130Y-58210448D01*
X104783328Y-58216737D01*
X104705782Y-58218686D01*
X104642489Y-58217029D01*
X104565800Y-58211030D01*
X104489952Y-58200676D01*
X104415109Y-58186061D01*
X104341436Y-58167279D01*
X104269099Y-58144424D01*
X104198261Y-58117591D01*
X104129087Y-58086874D01*
X104061744Y-58052367D01*
X103996394Y-58014165D01*
X103933205Y-57972362D01*
X103872339Y-57927052D01*
X103813963Y-57878329D01*
X103758241Y-57826289D01*
X103705338Y-57771024D01*
X103655419Y-57712630D01*
X103608649Y-57651201D01*
X103579731Y-57609260D01*
X103562571Y-57582742D01*
X103546744Y-57556917D01*
X103531616Y-57530674D01*
X103516556Y-57502901D01*
X103500931Y-57472484D01*
X103493615Y-57457776D01*
X103462978Y-57391444D01*
X103436333Y-57324665D01*
X103413545Y-57256964D01*
X103394478Y-57187864D01*
X103378997Y-57116891D01*
X103366965Y-57043569D01*
X103360784Y-56993073D01*
X103359334Y-56976404D01*
X103358100Y-56956134D01*
X103357096Y-56933155D01*
X103356335Y-56908362D01*
X103355832Y-56882649D01*
X103355727Y-56870934D01*
X103819245Y-56870934D01*
X103819343Y-56891969D01*
X103819754Y-56911030D01*
X103820497Y-56927194D01*
X103820897Y-56932716D01*
X103828343Y-56995882D01*
X103840072Y-57057855D01*
X103855984Y-57118454D01*
X103875976Y-57177501D01*
X103899950Y-57234817D01*
X103927803Y-57290224D01*
X103959437Y-57343541D01*
X103994749Y-57394591D01*
X104033639Y-57443194D01*
X104076007Y-57489171D01*
X104121752Y-57532344D01*
X104170773Y-57572533D01*
X104187912Y-57585299D01*
X104240201Y-57620546D01*
X104294630Y-57651873D01*
X104351010Y-57679213D01*
X104409154Y-57702498D01*
X104468873Y-57721659D01*
X104529979Y-57736630D01*
X104592283Y-57747343D01*
X104655581Y-57753727D01*
X104672924Y-57754499D01*
X104693531Y-57754816D01*
X104716192Y-57754706D01*
X104739696Y-57754195D01*
X104762831Y-57753313D01*
X104784388Y-57752085D01*
X104803155Y-57750541D01*
X104805331Y-57750317D01*
X104868155Y-57741474D01*
X104929674Y-57728334D01*
X104989797Y-57710938D01*
X105048435Y-57689322D01*
X105105498Y-57663524D01*
X105160898Y-57633583D01*
X105214543Y-57599536D01*
X105266345Y-57561422D01*
X105283088Y-57547902D01*
X105297095Y-57535808D01*
X105313112Y-57521105D01*
X105330281Y-57504650D01*
X105347745Y-57487301D01*
X105364645Y-57469917D01*
X105380122Y-57453356D01*
X105393319Y-57438476D01*
X105397601Y-57433390D01*
X105436182Y-57383560D01*
X105470563Y-57332513D01*
X105500962Y-57279893D01*
X105527597Y-57225346D01*
X105533696Y-57211360D01*
X105556241Y-57152792D01*
X105574513Y-57093121D01*
X105588510Y-57032586D01*
X105598229Y-56971425D01*
X105603664Y-56909876D01*
X105604814Y-56848176D01*
X105601674Y-56786564D01*
X105594242Y-56725278D01*
X105582514Y-56664555D01*
X105566486Y-56604635D01*
X105546155Y-56545753D01*
X105543339Y-56538550D01*
X105518418Y-56481401D01*
X105489873Y-56426728D01*
X105457629Y-56374429D01*
X105421610Y-56324404D01*
X105381740Y-56276551D01*
X105337944Y-56230770D01*
X105290146Y-56186961D01*
X105262467Y-56163944D01*
X105250904Y-56154418D01*
X105239339Y-56144490D01*
X105228754Y-56135031D01*
X105220131Y-56126910D01*
X105216166Y-56122892D01*
X105197062Y-56099444D01*
X105181091Y-56072967D01*
X105168164Y-56043304D01*
X105161928Y-56024234D01*
X105156700Y-56006283D01*
X105155539Y-54387137D01*
X105155466Y-54284660D01*
X105155394Y-54186585D01*
X105155325Y-54092815D01*
X105155257Y-54003251D01*
X105155191Y-53917797D01*
X105155126Y-53836353D01*
X105155062Y-53758821D01*
X105154998Y-53685105D01*
X105154934Y-53615105D01*
X105154870Y-53548723D01*
X105154806Y-53485863D01*
X105154741Y-53426425D01*
X105154675Y-53370311D01*
X105154608Y-53317424D01*
X105154538Y-53267666D01*
X105154467Y-53220938D01*
X105154394Y-53177143D01*
X105154318Y-53136182D01*
X105154239Y-53097958D01*
X105154157Y-53062372D01*
X105154071Y-53029327D01*
X105153981Y-52998724D01*
X105153887Y-52970465D01*
X105153789Y-52944454D01*
X105153686Y-52920590D01*
X105153578Y-52898777D01*
X105153464Y-52878917D01*
X105153345Y-52860910D01*
X105153219Y-52844660D01*
X105153088Y-52830069D01*
X105152949Y-52817038D01*
X105152804Y-52805469D01*
X105152652Y-52795265D01*
X105152491Y-52786327D01*
X105152323Y-52778557D01*
X105152147Y-52771857D01*
X105151962Y-52766130D01*
X105151769Y-52761277D01*
X105151566Y-52757201D01*
X105151354Y-52753802D01*
X105151132Y-52750984D01*
X105150900Y-52748648D01*
X105150657Y-52746696D01*
X105150404Y-52745030D01*
X105150338Y-52744638D01*
X105140512Y-52699453D01*
X105127096Y-52656924D01*
X105110003Y-52616880D01*
X105089146Y-52579151D01*
X105064437Y-52543567D01*
X105035789Y-52509957D01*
X105024081Y-52497896D01*
X104990406Y-52467398D01*
X104954657Y-52440892D01*
X104916887Y-52418403D01*
X104877150Y-52399956D01*
X104835499Y-52385578D01*
X104791988Y-52375295D01*
X104760877Y-52370596D01*
X104748151Y-52369573D01*
X104732328Y-52369030D01*
X104714519Y-52368937D01*
X104695835Y-52369265D01*
X104677389Y-52369985D01*
X104660289Y-52371068D01*
X104645649Y-52372483D01*
X104636163Y-52373890D01*
X104592046Y-52384353D01*
X104549704Y-52398827D01*
X104509364Y-52417150D01*
X104471257Y-52439165D01*
X104435609Y-52464713D01*
X104402650Y-52493635D01*
X104372607Y-52525771D01*
X104345709Y-52560963D01*
X104328518Y-52587937D01*
X104313670Y-52615329D01*
X104300960Y-52643644D01*
X104290045Y-52673804D01*
X104280585Y-52706733D01*
X104273904Y-52735361D01*
X104273675Y-52736697D01*
X104273455Y-52738578D01*
X104273245Y-52741103D01*
X104273043Y-52744366D01*
X104272850Y-52748464D01*
X104272664Y-52753494D01*
X104272487Y-52759551D01*
X104272317Y-52766731D01*
X104272155Y-52775132D01*
X104271999Y-52784850D01*
X104271851Y-52795980D01*
X104271708Y-52808619D01*
X104271572Y-52822863D01*
X104271442Y-52838809D01*
X104271317Y-52856553D01*
X104271198Y-52876191D01*
X104271083Y-52897819D01*
X104270973Y-52921534D01*
X104270868Y-52947431D01*
X104270767Y-52975608D01*
X104270669Y-53006161D01*
X104270576Y-53039185D01*
X104270485Y-53074777D01*
X104270397Y-53113034D01*
X104270312Y-53154051D01*
X104270230Y-53197925D01*
X104270149Y-53244753D01*
X104270071Y-53294630D01*
X104269994Y-53347652D01*
X104269918Y-53403917D01*
X104269843Y-53463519D01*
X104269769Y-53526557D01*
X104269695Y-53593125D01*
X104269621Y-53663321D01*
X104269547Y-53737239D01*
X104269472Y-53814978D01*
X104269397Y-53896632D01*
X104269321Y-53982299D01*
X104269243Y-54072074D01*
X104269164Y-54166054D01*
X104269083Y-54264336D01*
X104268999Y-54367014D01*
X104268993Y-54374760D01*
X104267684Y-55997282D01*
X104262885Y-56016410D01*
X104252929Y-56047808D01*
X104239454Y-56077058D01*
X104222705Y-56103763D01*
X104202930Y-56127525D01*
X104182287Y-56146436D01*
X104163920Y-56161193D01*
X104148450Y-56173807D01*
X104135195Y-56184866D01*
X104123474Y-56194960D01*
X104112607Y-56204676D01*
X104101914Y-56214603D01*
X104090713Y-56225330D01*
X104088046Y-56227920D01*
X104043319Y-56274443D01*
X104002593Y-56323025D01*
X103965866Y-56373672D01*
X103933136Y-56426387D01*
X103904401Y-56481173D01*
X103879659Y-56538036D01*
X103858907Y-56596980D01*
X103842145Y-56658007D01*
X103829369Y-56721122D01*
X103824265Y-56755039D01*
X103822848Y-56768505D01*
X103821640Y-56785544D01*
X103820658Y-56805230D01*
X103819920Y-56826640D01*
X103819443Y-56848849D01*
X103819245Y-56870934D01*
X103355727Y-56870934D01*
X103355601Y-56856910D01*
X103355656Y-56832040D01*
X103356010Y-56808933D01*
X103356677Y-56788482D01*
X103357388Y-56775488D01*
X103364891Y-56696912D01*
X103376673Y-56619666D01*
X103392712Y-56543813D01*
X103412985Y-56469418D01*
X103437471Y-56396546D01*
X103466149Y-56325262D01*
X103498996Y-56255630D01*
X103535992Y-56187715D01*
X103575147Y-56124563D01*
X103602597Y-56084544D01*
X103632069Y-56044678D01*
X103662958Y-56005688D01*
X103694654Y-55968299D01*
X103726553Y-55933234D01*
X103758046Y-55901217D01*
X103779105Y-55881387D01*
X103805103Y-55857758D01*
X103805249Y-54310624D01*
X103805263Y-54195061D01*
X103805283Y-54083989D01*
X103805309Y-53977396D01*
X103805342Y-53875272D01*
X103805380Y-53777608D01*
X103805425Y-53684392D01*
X103805475Y-53595614D01*
X103805532Y-53511264D01*
X103805595Y-53431332D01*
X103805664Y-53355805D01*
X103805739Y-53284676D01*
X103805821Y-53217932D01*
X103805908Y-53155564D01*
X103806002Y-53097560D01*
X103806102Y-53043912D01*
X103806209Y-52994607D01*
X103806321Y-52949636D01*
X103806440Y-52908989D01*
X103806566Y-52872654D01*
X103806697Y-52840622D01*
X103806835Y-52812882D01*
X103806980Y-52789423D01*
X103807130Y-52770235D01*
X103807287Y-52755308D01*
X103807451Y-52744631D01*
X103807621Y-52738194D01*
X103807715Y-52736486D01*
X103815329Y-52673483D01*
X103827162Y-52611744D01*
X103843078Y-52551439D01*
X103862945Y-52492738D01*
X103886629Y-52435810D01*
X103913996Y-52380826D01*
X103944912Y-52327956D01*
X103979245Y-52277368D01*
X104016861Y-52229234D01*
X104057625Y-52183723D01*
X104101404Y-52141005D01*
X104148066Y-52101249D01*
X104197475Y-52064627D01*
X104249500Y-52031306D01*
X104304005Y-52001459D01*
X104360857Y-51975254D01*
X104419924Y-51952861D01*
X104425327Y-51951044D01*
X104484013Y-51933769D01*
X104544123Y-51920450D01*
X104605147Y-51911132D01*
X104666572Y-51905865D01*
X104727888Y-51904694D01*
X104788582Y-51907668D01*
G37*
G36*
X103197965Y-55055810D02*
G01*
X103224753Y-55055830D01*
X103248510Y-55055869D01*
X103269422Y-55055927D01*
X103287672Y-55056008D01*
X103303445Y-55056112D01*
X103316923Y-55056240D01*
X103328291Y-55056395D01*
X103337733Y-55056577D01*
X103345433Y-55056789D01*
X103351574Y-55057032D01*
X103356341Y-55057307D01*
X103359917Y-55057616D01*
X103362487Y-55057961D01*
X103364234Y-55058343D01*
X103365341Y-55058764D01*
X103365994Y-55059225D01*
X103366376Y-55059728D01*
X103366475Y-55059906D01*
X103366811Y-55062744D01*
X103367112Y-55069689D01*
X103367378Y-55080373D01*
X103367609Y-55094427D01*
X103367807Y-55111482D01*
X103367972Y-55131170D01*
X103368104Y-55153122D01*
X103368203Y-55176971D01*
X103368272Y-55202346D01*
X103368309Y-55228881D01*
X103368316Y-55256205D01*
X103368293Y-55283952D01*
X103368241Y-55311752D01*
X103368161Y-55339236D01*
X103368052Y-55366037D01*
X103367915Y-55391785D01*
X103367752Y-55416113D01*
X103367562Y-55438651D01*
X103367347Y-55459031D01*
X103367106Y-55476885D01*
X103366840Y-55491844D01*
X103366550Y-55503539D01*
X103366237Y-55511602D01*
X103365901Y-55515665D01*
X103365775Y-55516077D01*
X103363372Y-55516265D01*
X103356682Y-55516455D01*
X103345920Y-55516643D01*
X103331300Y-55516830D01*
X103313035Y-55517014D01*
X103291340Y-55517193D01*
X103266428Y-55517368D01*
X103238515Y-55517535D01*
X103207814Y-55517695D01*
X103174539Y-55517847D01*
X103138904Y-55517988D01*
X103101124Y-55518118D01*
X103061413Y-55518236D01*
X103019984Y-55518340D01*
X102977051Y-55518430D01*
X102932830Y-55518504D01*
X102913339Y-55518530D01*
X102858442Y-55518596D01*
X102807887Y-55518645D01*
X102761516Y-55518677D01*
X102719168Y-55518692D01*
X102680686Y-55518687D01*
X102645911Y-55518663D01*
X102614683Y-55518619D01*
X102586845Y-55518554D01*
X102562236Y-55518468D01*
X102540700Y-55518358D01*
X102522075Y-55518226D01*
X102506205Y-55518069D01*
X102492929Y-55517887D01*
X102482090Y-55517679D01*
X102473528Y-55517445D01*
X102467085Y-55517184D01*
X102462601Y-55516894D01*
X102459918Y-55516576D01*
X102458932Y-55516280D01*
X102458306Y-55515605D01*
X102457754Y-55514381D01*
X102457271Y-55512350D01*
X102456854Y-55509253D01*
X102456498Y-55504829D01*
X102456202Y-55498820D01*
X102455960Y-55490967D01*
X102455769Y-55481010D01*
X102455625Y-55468690D01*
X102455526Y-55453747D01*
X102455466Y-55435922D01*
X102455443Y-55414957D01*
X102455453Y-55390591D01*
X102455492Y-55362565D01*
X102455556Y-55330620D01*
X102455643Y-55294497D01*
X102455666Y-55285037D01*
X102456248Y-55056624D01*
X102910179Y-55056056D01*
X102963322Y-55055990D01*
X103012149Y-55055932D01*
X103056843Y-55055883D01*
X103097587Y-55055844D01*
X103134567Y-55055818D01*
X103167965Y-55055806D01*
X103197965Y-55055810D01*
G37*
G36*
X106798568Y-55055810D02*
G01*
X106825355Y-55055830D01*
X106849113Y-55055869D01*
X106870025Y-55055927D01*
X106888275Y-55056008D01*
X106904047Y-55056112D01*
X106917526Y-55056240D01*
X106928894Y-55056395D01*
X106938336Y-55056577D01*
X106946036Y-55056789D01*
X106952177Y-55057032D01*
X106956944Y-55057307D01*
X106960520Y-55057616D01*
X106963089Y-55057961D01*
X106964836Y-55058343D01*
X106965944Y-55058764D01*
X106966597Y-55059225D01*
X106966978Y-55059728D01*
X106967077Y-55059906D01*
X106967414Y-55062744D01*
X106967714Y-55069689D01*
X106967980Y-55080373D01*
X106968212Y-55094427D01*
X106968410Y-55111482D01*
X106968574Y-55131170D01*
X106968706Y-55153122D01*
X106968806Y-55176971D01*
X106968874Y-55202346D01*
X106968912Y-55228881D01*
X106968919Y-55256205D01*
X106968896Y-55283952D01*
X106968844Y-55311752D01*
X106968763Y-55339236D01*
X106968654Y-55366037D01*
X106968518Y-55391785D01*
X106968355Y-55416113D01*
X106968165Y-55438651D01*
X106967949Y-55459031D01*
X106967708Y-55476885D01*
X106967443Y-55491844D01*
X106967153Y-55503539D01*
X106966839Y-55511602D01*
X106966503Y-55515665D01*
X106966377Y-55516077D01*
X106963974Y-55516265D01*
X106957285Y-55516455D01*
X106946523Y-55516643D01*
X106931902Y-55516830D01*
X106913637Y-55517014D01*
X106891942Y-55517193D01*
X106867031Y-55517368D01*
X106839118Y-55517535D01*
X106808416Y-55517695D01*
X106775142Y-55517847D01*
X106739507Y-55517988D01*
X106701727Y-55518118D01*
X106662015Y-55518236D01*
X106620586Y-55518340D01*
X106577654Y-55518430D01*
X106533432Y-55518504D01*
X106513942Y-55518530D01*
X106459045Y-55518596D01*
X106408490Y-55518645D01*
X106362118Y-55518677D01*
X106319771Y-55518692D01*
X106281289Y-55518687D01*
X106246513Y-55518663D01*
X106215286Y-55518619D01*
X106187447Y-55518554D01*
X106162839Y-55518468D01*
X106141302Y-55518358D01*
X106122678Y-55518226D01*
X106106807Y-55518069D01*
X106093532Y-55517887D01*
X106082692Y-55517679D01*
X106074130Y-55517445D01*
X106067687Y-55517184D01*
X106063203Y-55516894D01*
X106060520Y-55516576D01*
X106059534Y-55516280D01*
X106058909Y-55515605D01*
X106058356Y-55514381D01*
X106057873Y-55512350D01*
X106057456Y-55509253D01*
X106057101Y-55504829D01*
X106056804Y-55498820D01*
X106056562Y-55490967D01*
X106056371Y-55481010D01*
X106056228Y-55468690D01*
X106056128Y-55453747D01*
X106056069Y-55435922D01*
X106056046Y-55414957D01*
X106056055Y-55390591D01*
X106056094Y-55362565D01*
X106056159Y-55330620D01*
X106056245Y-55294497D01*
X106056269Y-55285037D01*
X106056850Y-55056624D01*
X106510782Y-55056056D01*
X106563925Y-55055990D01*
X106612751Y-55055932D01*
X106657445Y-55055883D01*
X106698190Y-55055844D01*
X106735169Y-55055818D01*
X106768567Y-55055806D01*
X106798568Y-55055810D01*
G37*
G36*
X103197965Y-53930621D02*
G01*
X103224753Y-53930642D01*
X103248510Y-53930680D01*
X103269422Y-53930739D01*
X103287672Y-53930820D01*
X103303445Y-53930923D01*
X103316923Y-53931052D01*
X103328291Y-53931206D01*
X103337733Y-53931389D01*
X103345433Y-53931601D01*
X103351574Y-53931843D01*
X103356341Y-53932119D01*
X103359917Y-53932428D01*
X103362487Y-53932773D01*
X103364234Y-53933155D01*
X103365341Y-53933576D01*
X103365994Y-53934037D01*
X103366376Y-53934540D01*
X103366475Y-53934718D01*
X103366811Y-53937556D01*
X103367112Y-53944501D01*
X103367378Y-53955185D01*
X103367609Y-53969238D01*
X103367807Y-53986294D01*
X103367972Y-54005982D01*
X103368104Y-54027934D01*
X103368203Y-54051782D01*
X103368272Y-54077158D01*
X103368309Y-54103692D01*
X103368316Y-54131017D01*
X103368293Y-54158764D01*
X103368241Y-54186564D01*
X103368161Y-54214048D01*
X103368052Y-54240849D01*
X103367915Y-54266597D01*
X103367752Y-54290925D01*
X103367562Y-54313463D01*
X103367347Y-54333843D01*
X103367106Y-54351697D01*
X103366840Y-54366656D01*
X103366550Y-54378351D01*
X103366237Y-54386414D01*
X103365901Y-54390477D01*
X103365775Y-54390888D01*
X103363372Y-54391077D01*
X103356682Y-54391266D01*
X103345920Y-54391455D01*
X103331300Y-54391642D01*
X103313035Y-54391826D01*
X103291340Y-54392005D01*
X103266428Y-54392179D01*
X103238515Y-54392347D01*
X103207814Y-54392507D01*
X103174539Y-54392658D01*
X103138904Y-54392800D01*
X103101124Y-54392930D01*
X103061413Y-54393047D01*
X103019984Y-54393152D01*
X102977051Y-54393241D01*
X102932830Y-54393315D01*
X102913339Y-54393342D01*
X102858442Y-54393408D01*
X102807887Y-54393457D01*
X102761516Y-54393489D01*
X102719168Y-54393503D01*
X102680686Y-54393499D01*
X102645911Y-54393475D01*
X102614683Y-54393431D01*
X102586845Y-54393366D01*
X102562236Y-54393279D01*
X102540700Y-54393170D01*
X102522075Y-54393037D01*
X102506205Y-54392880D01*
X102492929Y-54392699D01*
X102482090Y-54392491D01*
X102473528Y-54392257D01*
X102467085Y-54391996D01*
X102462601Y-54391706D01*
X102459918Y-54391388D01*
X102458932Y-54391092D01*
X102458306Y-54390416D01*
X102457754Y-54389193D01*
X102457271Y-54387162D01*
X102456854Y-54384064D01*
X102456498Y-54379641D01*
X102456202Y-54373632D01*
X102455960Y-54365779D01*
X102455769Y-54355822D01*
X102455625Y-54343501D01*
X102455526Y-54328558D01*
X102455466Y-54310734D01*
X102455443Y-54289768D01*
X102455453Y-54265402D01*
X102455492Y-54237377D01*
X102455556Y-54205432D01*
X102455643Y-54169309D01*
X102455666Y-54159849D01*
X102456248Y-53931436D01*
X102910179Y-53930868D01*
X102963322Y-53930802D01*
X103012149Y-53930744D01*
X103056843Y-53930695D01*
X103097587Y-53930656D01*
X103134567Y-53930630D01*
X103167965Y-53930618D01*
X103197965Y-53930621D01*
G37*
G36*
X106798568Y-53930621D02*
G01*
X106825355Y-53930642D01*
X106849113Y-53930680D01*
X106870025Y-53930739D01*
X106888275Y-53930820D01*
X106904047Y-53930923D01*
X106917526Y-53931052D01*
X106928894Y-53931206D01*
X106938336Y-53931389D01*
X106946036Y-53931601D01*
X106952177Y-53931843D01*
X106956944Y-53932119D01*
X106960520Y-53932428D01*
X106963089Y-53932773D01*
X106964836Y-53933155D01*
X106965944Y-53933576D01*
X106966597Y-53934037D01*
X106966978Y-53934540D01*
X106967077Y-53934718D01*
X106967414Y-53937556D01*
X106967714Y-53944501D01*
X106967980Y-53955185D01*
X106968212Y-53969238D01*
X106968410Y-53986294D01*
X106968574Y-54005982D01*
X106968706Y-54027934D01*
X106968806Y-54051782D01*
X106968874Y-54077158D01*
X106968912Y-54103692D01*
X106968919Y-54131017D01*
X106968896Y-54158764D01*
X106968844Y-54186564D01*
X106968763Y-54214048D01*
X106968654Y-54240849D01*
X106968518Y-54266597D01*
X106968355Y-54290925D01*
X106968165Y-54313463D01*
X106967949Y-54333843D01*
X106967708Y-54351697D01*
X106967443Y-54366656D01*
X106967153Y-54378351D01*
X106966839Y-54386414D01*
X106966503Y-54390477D01*
X106966377Y-54390888D01*
X106963974Y-54391077D01*
X106957285Y-54391266D01*
X106946523Y-54391455D01*
X106931902Y-54391642D01*
X106913637Y-54391826D01*
X106891942Y-54392005D01*
X106867031Y-54392179D01*
X106839118Y-54392347D01*
X106808416Y-54392507D01*
X106775142Y-54392658D01*
X106739507Y-54392800D01*
X106701727Y-54392930D01*
X106662015Y-54393047D01*
X106620586Y-54393152D01*
X106577654Y-54393241D01*
X106533432Y-54393315D01*
X106513942Y-54393342D01*
X106459045Y-54393408D01*
X106408490Y-54393457D01*
X106362118Y-54393489D01*
X106319771Y-54393503D01*
X106281289Y-54393499D01*
X106246513Y-54393475D01*
X106215286Y-54393431D01*
X106187447Y-54393366D01*
X106162839Y-54393279D01*
X106141302Y-54393170D01*
X106122678Y-54393037D01*
X106106807Y-54392880D01*
X106093532Y-54392699D01*
X106082692Y-54392491D01*
X106074130Y-54392257D01*
X106067687Y-54391996D01*
X106063203Y-54391706D01*
X106060520Y-54391388D01*
X106059534Y-54391092D01*
X106058909Y-54390416D01*
X106058356Y-54389193D01*
X106057873Y-54387162D01*
X106057456Y-54384064D01*
X106057101Y-54379641D01*
X106056804Y-54373632D01*
X106056562Y-54365779D01*
X106056371Y-54355822D01*
X106056228Y-54343501D01*
X106056128Y-54328558D01*
X106056069Y-54310734D01*
X106056046Y-54289768D01*
X106056055Y-54265402D01*
X106056094Y-54237377D01*
X106056159Y-54205432D01*
X106056245Y-54169309D01*
X106056269Y-54159849D01*
X106056850Y-53931436D01*
X106510782Y-53930868D01*
X106563925Y-53930802D01*
X106612751Y-53930744D01*
X106657445Y-53930695D01*
X106698190Y-53930656D01*
X106735169Y-53930630D01*
X106768567Y-53930618D01*
X106798568Y-53930621D01*
G37*
G36*
X103197965Y-52805433D02*
G01*
X103224753Y-52805453D01*
X103248510Y-52805492D01*
X103269422Y-52805551D01*
X103287672Y-52805631D01*
X103303445Y-52805735D01*
X103316923Y-52805863D01*
X103328291Y-52806018D01*
X103337733Y-52806201D01*
X103345433Y-52806412D01*
X103351574Y-52806655D01*
X103356341Y-52806930D01*
X103359917Y-52807240D01*
X103362487Y-52807585D01*
X103364234Y-52807967D01*
X103365341Y-52808388D01*
X103365994Y-52808849D01*
X103366376Y-52809351D01*
X103366475Y-52809530D01*
X103366811Y-52812368D01*
X103367112Y-52819313D01*
X103367378Y-52829997D01*
X103367609Y-52844050D01*
X103367807Y-52861105D01*
X103367972Y-52880793D01*
X103368104Y-52902746D01*
X103368203Y-52926594D01*
X103368272Y-52951970D01*
X103368309Y-52978504D01*
X103368316Y-53005829D01*
X103368293Y-53033575D01*
X103368241Y-53061375D01*
X103368161Y-53088860D01*
X103368052Y-53115660D01*
X103367915Y-53141409D01*
X103367752Y-53165736D01*
X103367562Y-53188275D01*
X103367347Y-53208655D01*
X103367106Y-53226509D01*
X103366840Y-53241467D01*
X103366550Y-53253163D01*
X103366237Y-53261226D01*
X103365901Y-53265289D01*
X103365775Y-53265700D01*
X103363372Y-53265889D01*
X103356682Y-53266078D01*
X103345920Y-53266267D01*
X103331300Y-53266454D01*
X103313035Y-53266637D01*
X103291340Y-53266817D01*
X103266428Y-53266991D01*
X103238515Y-53267159D01*
X103207814Y-53267319D01*
X103174539Y-53267470D01*
X103138904Y-53267611D01*
X103101124Y-53267741D01*
X103061413Y-53267859D01*
X103019984Y-53267964D01*
X102977051Y-53268053D01*
X102932830Y-53268127D01*
X102913339Y-53268154D01*
X102858442Y-53268219D01*
X102807887Y-53268269D01*
X102761516Y-53268301D01*
X102719168Y-53268315D01*
X102680686Y-53268311D01*
X102645911Y-53268287D01*
X102614683Y-53268243D01*
X102586845Y-53268178D01*
X102562236Y-53268091D01*
X102540700Y-53267982D01*
X102522075Y-53267849D01*
X102506205Y-53267692D01*
X102492929Y-53267510D01*
X102482090Y-53267303D01*
X102473528Y-53267069D01*
X102467085Y-53266807D01*
X102462601Y-53266518D01*
X102459918Y-53266200D01*
X102458932Y-53265903D01*
X102458306Y-53265228D01*
X102457754Y-53264004D01*
X102457271Y-53261974D01*
X102456854Y-53258876D01*
X102456498Y-53254453D01*
X102456202Y-53248444D01*
X102455960Y-53240590D01*
X102455769Y-53230633D01*
X102455625Y-53218313D01*
X102455526Y-53203370D01*
X102455466Y-53185546D01*
X102455443Y-53164580D01*
X102455453Y-53140214D01*
X102455492Y-53112188D01*
X102455556Y-53080244D01*
X102455643Y-53044121D01*
X102455666Y-53034661D01*
X102456248Y-52806248D01*
X102910179Y-52805680D01*
X102963322Y-52805614D01*
X103012149Y-52805555D01*
X103056843Y-52805506D01*
X103097587Y-52805468D01*
X103134567Y-52805442D01*
X103167965Y-52805430D01*
X103197965Y-52805433D01*
G37*
G36*
X106798568Y-52805433D02*
G01*
X106825355Y-52805453D01*
X106849113Y-52805492D01*
X106870025Y-52805551D01*
X106888275Y-52805631D01*
X106904047Y-52805735D01*
X106917526Y-52805863D01*
X106928894Y-52806018D01*
X106938336Y-52806201D01*
X106946036Y-52806412D01*
X106952177Y-52806655D01*
X106956944Y-52806930D01*
X106960520Y-52807240D01*
X106963089Y-52807585D01*
X106964836Y-52807967D01*
X106965944Y-52808388D01*
X106966597Y-52808849D01*
X106966978Y-52809351D01*
X106967077Y-52809530D01*
X106967414Y-52812368D01*
X106967714Y-52819313D01*
X106967980Y-52829997D01*
X106968212Y-52844050D01*
X106968410Y-52861105D01*
X106968574Y-52880793D01*
X106968706Y-52902746D01*
X106968806Y-52926594D01*
X106968874Y-52951970D01*
X106968912Y-52978504D01*
X106968919Y-53005829D01*
X106968896Y-53033575D01*
X106968844Y-53061375D01*
X106968763Y-53088860D01*
X106968654Y-53115660D01*
X106968518Y-53141409D01*
X106968355Y-53165736D01*
X106968165Y-53188275D01*
X106967949Y-53208655D01*
X106967708Y-53226509D01*
X106967443Y-53241467D01*
X106967153Y-53253163D01*
X106966839Y-53261226D01*
X106966503Y-53265289D01*
X106966377Y-53265700D01*
X106963974Y-53265889D01*
X106957285Y-53266078D01*
X106946523Y-53266267D01*
X106931902Y-53266454D01*
X106913637Y-53266637D01*
X106891942Y-53266817D01*
X106867031Y-53266991D01*
X106839118Y-53267159D01*
X106808416Y-53267319D01*
X106775142Y-53267470D01*
X106739507Y-53267611D01*
X106701727Y-53267741D01*
X106662015Y-53267859D01*
X106620586Y-53267964D01*
X106577654Y-53268053D01*
X106533432Y-53268127D01*
X106513942Y-53268154D01*
X106459045Y-53268219D01*
X106408490Y-53268269D01*
X106362118Y-53268301D01*
X106319771Y-53268315D01*
X106281289Y-53268311D01*
X106246513Y-53268287D01*
X106215286Y-53268243D01*
X106187447Y-53268178D01*
X106162839Y-53268091D01*
X106141302Y-53267982D01*
X106122678Y-53267849D01*
X106106807Y-53267692D01*
X106093532Y-53267510D01*
X106082692Y-53267303D01*
X106074130Y-53267069D01*
X106067687Y-53266807D01*
X106063203Y-53266518D01*
X106060520Y-53266200D01*
X106059534Y-53265903D01*
X106058909Y-53265228D01*
X106058356Y-53264004D01*
X106057873Y-53261974D01*
X106057456Y-53258876D01*
X106057101Y-53254453D01*
X106056804Y-53248444D01*
X106056562Y-53240590D01*
X106056371Y-53230633D01*
X106056228Y-53218313D01*
X106056128Y-53203370D01*
X106056069Y-53185546D01*
X106056046Y-53164580D01*
X106056055Y-53140214D01*
X106056094Y-53112188D01*
X106056159Y-53080244D01*
X106056245Y-53044121D01*
X106056269Y-53034661D01*
X106056850Y-52806248D01*
X106510782Y-52805680D01*
X106563925Y-52805614D01*
X106612751Y-52805555D01*
X106657445Y-52805506D01*
X106698190Y-52805468D01*
X106735169Y-52805442D01*
X106768567Y-52805430D01*
X106798568Y-52805433D01*
G37*
G36*
X104856114Y-55505911D02*
G01*
X104874685Y-55505962D01*
X104890310Y-55506052D01*
X104903249Y-55506185D01*
X104913759Y-55506365D01*
X104922101Y-55506595D01*
X104928533Y-55506878D01*
X104933315Y-55507219D01*
X104936706Y-55507621D01*
X104938965Y-55508088D01*
X104940350Y-55508623D01*
X104941122Y-55509230D01*
X104941226Y-55509361D01*
X104941559Y-55510640D01*
X104941867Y-55513634D01*
X104942150Y-55518496D01*
X104942410Y-55525378D01*
X104942646Y-55534432D01*
X104942860Y-55545811D01*
X104943053Y-55559666D01*
X104943226Y-55576150D01*
X104943379Y-55595416D01*
X104943514Y-55617614D01*
X104943631Y-55642899D01*
X104943731Y-55671420D01*
X104943816Y-55703332D01*
X104943885Y-55738786D01*
X104943940Y-55777934D01*
X104943983Y-55820928D01*
X104944012Y-55867921D01*
X104944031Y-55919065D01*
X104944039Y-55974512D01*
X104944039Y-55991944D01*
X104944039Y-56470702D01*
X104962605Y-56482837D01*
X104998718Y-56509091D01*
X105031845Y-56538586D01*
X105061809Y-56571043D01*
X105088433Y-56606186D01*
X105111540Y-56643738D01*
X105130952Y-56683422D01*
X105146492Y-56724961D01*
X105157983Y-56768078D01*
X105163099Y-56796165D01*
X105167480Y-56840402D01*
X105167455Y-56884742D01*
X105163094Y-56928828D01*
X105154466Y-56972299D01*
X105141642Y-57014794D01*
X105124693Y-57055955D01*
X105105238Y-57092809D01*
X105080400Y-57130677D01*
X105052346Y-57165505D01*
X105021303Y-57197152D01*
X104987499Y-57225473D01*
X104951160Y-57250327D01*
X104912515Y-57271572D01*
X104871790Y-57289065D01*
X104829214Y-57302663D01*
X104785014Y-57312225D01*
X104747131Y-57317004D01*
X104729694Y-57318311D01*
X104714749Y-57318904D01*
X104700432Y-57318778D01*
X104684880Y-57317931D01*
X104671870Y-57316873D01*
X104627495Y-57310698D01*
X104584065Y-57300218D01*
X104541907Y-57285586D01*
X104501348Y-57266955D01*
X104462715Y-57244477D01*
X104426335Y-57218307D01*
X104392534Y-57188596D01*
X104387788Y-57183925D01*
X104358433Y-57151460D01*
X104332346Y-57116089D01*
X104309704Y-57078178D01*
X104290681Y-57038088D01*
X104275454Y-56996185D01*
X104264198Y-56952832D01*
X104257790Y-56914369D01*
X104256403Y-56898575D01*
X104255662Y-56879751D01*
X104255552Y-56859322D01*
X104256062Y-56838710D01*
X104257177Y-56819340D01*
X104258800Y-56803267D01*
X104266747Y-56759734D01*
X104278918Y-56717361D01*
X104295117Y-56676459D01*
X104315147Y-56637342D01*
X104338814Y-56600322D01*
X104365920Y-56565713D01*
X104396269Y-56533828D01*
X104429665Y-56504979D01*
X104459083Y-56483876D01*
X104479336Y-56470571D01*
X104480461Y-55988635D01*
X104481587Y-55506700D01*
X104710000Y-55506118D01*
X104747188Y-55506027D01*
X104780134Y-55505958D01*
X104809098Y-55505912D01*
X104834338Y-55505896D01*
X104856114Y-55505911D01*
G37*
G36*
X97329311Y-55980000D02*
G01*
X97329311Y-59985531D01*
X97148967Y-59978095D01*
X97010963Y-59971973D01*
X96840060Y-59963809D01*
X96712345Y-59957376D01*
X96456067Y-59944094D01*
X96456067Y-55983011D01*
X96456067Y-52021928D01*
X96574714Y-51998199D01*
X96668891Y-51986976D01*
X96811534Y-51978618D01*
X96975188Y-51974617D01*
X97011336Y-51974470D01*
X97329311Y-51974470D01*
X97329311Y-55980000D01*
G37*
G36*
X97794408Y-52050963D02*
G01*
X97885952Y-52065694D01*
X98031315Y-52105340D01*
X98214806Y-52164246D01*
X98420737Y-52236758D01*
X98633415Y-52317222D01*
X98837152Y-52399983D01*
X99016258Y-52479387D01*
X99107547Y-52524191D01*
X99292972Y-52627854D01*
X99491274Y-52750909D01*
X99666148Y-52870564D01*
X99702256Y-52897508D01*
X99968025Y-53100583D01*
X99978118Y-54151129D01*
X99988210Y-55201674D01*
X99475741Y-55201674D01*
X98963271Y-55201674D01*
X98953092Y-54299955D01*
X98942913Y-53398236D01*
X98772061Y-53398236D01*
X98601209Y-53398236D01*
X98601209Y-54480299D01*
X98601209Y-55562362D01*
X99294109Y-55572710D01*
X99987009Y-55583058D01*
X99987009Y-57210767D01*
X99987009Y-58838475D01*
X99711747Y-59047478D01*
X99542538Y-59167273D01*
X99342787Y-59295936D01*
X99150328Y-59409314D01*
X99113765Y-59429250D01*
X98928008Y-59519322D01*
X98699015Y-59616401D01*
X98450614Y-59711636D01*
X98206637Y-59796177D01*
X97990912Y-59861175D01*
X97875753Y-59889034D01*
X97804017Y-59899792D01*
X97766017Y-59882019D01*
X97745802Y-59818489D01*
X97733377Y-59735274D01*
X97727803Y-59656995D01*
X97722676Y-59512548D01*
X97718146Y-59311697D01*
X97714363Y-59064208D01*
X97711475Y-58779845D01*
X97709632Y-58468373D01*
X97708982Y-58139558D01*
X97708982Y-58138827D01*
X97708982Y-56720359D01*
X98145604Y-56720359D01*
X98582226Y-56720359D01*
X98582226Y-57612586D01*
X98582226Y-58504813D01*
X98772061Y-58504813D01*
X98961897Y-58504813D01*
X98961897Y-57441734D01*
X98961897Y-56378655D01*
X98335439Y-56378655D01*
X97708982Y-56378655D01*
X97708982Y-54214529D01*
X97708982Y-52050404D01*
X97794408Y-52050963D01*
G37*
G36*
X95991917Y-52105122D02*
G01*
X95995834Y-52146115D01*
X95999799Y-52257959D01*
X96003763Y-52435572D01*
X96007675Y-52673870D01*
X96011484Y-52967771D01*
X96015139Y-53312192D01*
X96018592Y-53702050D01*
X96021790Y-54132261D01*
X96024684Y-54597744D01*
X96027223Y-55093416D01*
X96029356Y-55614192D01*
X96030614Y-56002132D01*
X96032323Y-56646841D01*
X96033488Y-57219466D01*
X96034071Y-57723857D01*
X96034034Y-58163861D01*
X96033340Y-58543329D01*
X96031951Y-58866109D01*
X96029829Y-59136049D01*
X96026936Y-59356999D01*
X96023235Y-59532808D01*
X96018687Y-59667324D01*
X96013255Y-59764396D01*
X96006901Y-59827873D01*
X95999588Y-59861605D01*
X95992647Y-59869766D01*
X95937925Y-59857549D01*
X95828698Y-59826002D01*
X95682329Y-59780318D01*
X95560464Y-59740515D01*
X95056047Y-59543880D01*
X94598116Y-59301877D01*
X94165059Y-59002724D01*
X94073390Y-58930028D01*
X93911791Y-58799009D01*
X93921522Y-55967176D01*
X93931254Y-53135344D01*
X94205329Y-52925086D01*
X94356266Y-52813986D01*
X94512024Y-52706947D01*
X94644202Y-52623318D01*
X94670426Y-52608229D01*
X94861448Y-52501629D01*
X94861448Y-55503221D01*
X94861448Y-58504813D01*
X95032300Y-58504813D01*
X95203152Y-58504813D01*
X95203152Y-55411870D01*
X95203152Y-52318926D01*
X95583771Y-52198268D01*
X95743079Y-52151006D01*
X95875168Y-52117888D01*
X95963780Y-52102626D01*
X95991917Y-52105122D01*
G37*
D13*
%TO.C,R9*%
X98080000Y-110900000D02*
X98080000Y-100760000D01*
X98560000Y-110900000D02*
X98080000Y-110900000D01*
X101440000Y-110900000D02*
X101920000Y-110900000D01*
X101920000Y-110900000D02*
X101920000Y-100760000D01*
X98080000Y-100760000D02*
X98560000Y-100760000D01*
X101920000Y-100760000D02*
X101440000Y-100760000D01*
%TO.C,J3*%
X127508000Y-62484000D02*
X127508000Y-54864000D01*
X127508000Y-54864000D02*
X117348000Y-54864000D01*
X117348000Y-62484000D02*
X127508000Y-62484000D01*
X117348000Y-56134000D02*
X127508000Y-56134000D01*
X117348000Y-54864000D02*
X117348000Y-62484000D01*
%TO.C,J2*%
X159880000Y-82530000D02*
X159880000Y-67290000D01*
X166230000Y-82530000D02*
X166230000Y-67290000D01*
X167500000Y-82530000D02*
X159880000Y-82530000D01*
X167500000Y-82530000D02*
X167500000Y-67290000D01*
X167500000Y-67290000D02*
X159880000Y-67290000D01*
D14*
%TO.C,U1*%
X140462000Y-86614000D02*
X140462000Y-80010000D01*
X130302000Y-83616800D02*
X130302000Y-85979000D01*
X130302000Y-83007200D02*
X130302000Y-83616800D01*
X130302000Y-80010000D02*
X130302000Y-83007200D01*
D12*
X130302000Y-83616800D02*
G75*
G03*
X130302000Y-83007200I0J304800D01*
G01*
D13*
%TO.C,C6*%
X157699888Y-88597000D02*
X157199888Y-88597000D01*
X157449888Y-88847000D02*
X157449888Y-88347000D01*
X154895113Y-89702000D02*
X154895113Y-84542000D01*
X154855113Y-89702000D02*
X154855113Y-84542000D01*
X154815113Y-89701000D02*
X154815113Y-84543000D01*
X154775113Y-89700000D02*
X154775113Y-84544000D01*
X154735113Y-89698000D02*
X154735113Y-84546000D01*
X154695113Y-89695000D02*
X154695113Y-84549000D01*
X154655113Y-89691000D02*
X154655113Y-88162000D01*
X154655113Y-86082000D02*
X154655113Y-84553000D01*
X154615113Y-89687000D02*
X154615113Y-88162000D01*
X154615113Y-86082000D02*
X154615113Y-84557000D01*
X154575113Y-89683000D02*
X154575113Y-88162000D01*
X154575113Y-86082000D02*
X154575113Y-84561000D01*
X154535113Y-89678000D02*
X154535113Y-88162000D01*
X154535113Y-86082000D02*
X154535113Y-84566000D01*
X154495113Y-89672000D02*
X154495113Y-88162000D01*
X154495113Y-86082000D02*
X154495113Y-84572000D01*
X154455113Y-89665000D02*
X154455113Y-88162000D01*
X154455113Y-86082000D02*
X154455113Y-84579000D01*
X154415113Y-89658000D02*
X154415113Y-88162000D01*
X154415113Y-86082000D02*
X154415113Y-84586000D01*
X154375113Y-89650000D02*
X154375113Y-88162000D01*
X154375113Y-86082000D02*
X154375113Y-84594000D01*
X154335113Y-89642000D02*
X154335113Y-88162000D01*
X154335113Y-86082000D02*
X154335113Y-84602000D01*
X154295113Y-89633000D02*
X154295113Y-88162000D01*
X154295113Y-86082000D02*
X154295113Y-84611000D01*
X154255113Y-89623000D02*
X154255113Y-88162000D01*
X154255113Y-86082000D02*
X154255113Y-84621000D01*
X154215113Y-89613000D02*
X154215113Y-88162000D01*
X154215113Y-86082000D02*
X154215113Y-84631000D01*
X154174113Y-89602000D02*
X154174113Y-88162000D01*
X154174113Y-86082000D02*
X154174113Y-84642000D01*
X154134113Y-89590000D02*
X154134113Y-88162000D01*
X154134113Y-86082000D02*
X154134113Y-84654000D01*
X154094113Y-89577000D02*
X154094113Y-88162000D01*
X154094113Y-86082000D02*
X154094113Y-84667000D01*
X154054113Y-89564000D02*
X154054113Y-88162000D01*
X154054113Y-86082000D02*
X154054113Y-84680000D01*
X154014113Y-89550000D02*
X154014113Y-88162000D01*
X154014113Y-86082000D02*
X154014113Y-84694000D01*
X153974113Y-89536000D02*
X153974113Y-88162000D01*
X153974113Y-86082000D02*
X153974113Y-84708000D01*
X153934113Y-89520000D02*
X153934113Y-88162000D01*
X153934113Y-86082000D02*
X153934113Y-84724000D01*
X153894113Y-89504000D02*
X153894113Y-88162000D01*
X153894113Y-86082000D02*
X153894113Y-84740000D01*
X153854113Y-89487000D02*
X153854113Y-88162000D01*
X153854113Y-86082000D02*
X153854113Y-84757000D01*
X153814113Y-89470000D02*
X153814113Y-88162000D01*
X153814113Y-86082000D02*
X153814113Y-84774000D01*
X153774113Y-89451000D02*
X153774113Y-88162000D01*
X153774113Y-86082000D02*
X153774113Y-84793000D01*
X153734113Y-89432000D02*
X153734113Y-88162000D01*
X153734113Y-86082000D02*
X153734113Y-84812000D01*
X153694113Y-89412000D02*
X153694113Y-88162000D01*
X153694113Y-86082000D02*
X153694113Y-84832000D01*
X153654113Y-89390000D02*
X153654113Y-88162000D01*
X153654113Y-86082000D02*
X153654113Y-84854000D01*
X153614113Y-89369000D02*
X153614113Y-88162000D01*
X153614113Y-86082000D02*
X153614113Y-84875000D01*
X153574113Y-89346000D02*
X153574113Y-88162000D01*
X153574113Y-86082000D02*
X153574113Y-84898000D01*
X153534113Y-89322000D02*
X153534113Y-88162000D01*
X153534113Y-86082000D02*
X153534113Y-84922000D01*
X153494113Y-89297000D02*
X153494113Y-88162000D01*
X153494113Y-86082000D02*
X153494113Y-84947000D01*
X153454113Y-89271000D02*
X153454113Y-88162000D01*
X153454113Y-86082000D02*
X153454113Y-84973000D01*
X153414113Y-89244000D02*
X153414113Y-88162000D01*
X153414113Y-86082000D02*
X153414113Y-85000000D01*
X153374113Y-89217000D02*
X153374113Y-88162000D01*
X153374113Y-86082000D02*
X153374113Y-85027000D01*
X153334113Y-89187000D02*
X153334113Y-88162000D01*
X153334113Y-86082000D02*
X153334113Y-85057000D01*
X153294113Y-89157000D02*
X153294113Y-88162000D01*
X153294113Y-86082000D02*
X153294113Y-85087000D01*
X153254113Y-89126000D02*
X153254113Y-88162000D01*
X153254113Y-86082000D02*
X153254113Y-85118000D01*
X153214113Y-89093000D02*
X153214113Y-88162000D01*
X153214113Y-86082000D02*
X153214113Y-85151000D01*
X153174113Y-89059000D02*
X153174113Y-88162000D01*
X153174113Y-86082000D02*
X153174113Y-85185000D01*
X153134113Y-89023000D02*
X153134113Y-88162000D01*
X153134113Y-86082000D02*
X153134113Y-85221000D01*
X153094113Y-88986000D02*
X153094113Y-88162000D01*
X153094113Y-86082000D02*
X153094113Y-85258000D01*
X153054113Y-88948000D02*
X153054113Y-88162000D01*
X153054113Y-86082000D02*
X153054113Y-85296000D01*
X153014113Y-88907000D02*
X153014113Y-88162000D01*
X153014113Y-86082000D02*
X153014113Y-85337000D01*
X152974113Y-88865000D02*
X152974113Y-88162000D01*
X152974113Y-86082000D02*
X152974113Y-85379000D01*
X152934113Y-88821000D02*
X152934113Y-88162000D01*
X152934113Y-86082000D02*
X152934113Y-85423000D01*
X152894113Y-88775000D02*
X152894113Y-88162000D01*
X152894113Y-86082000D02*
X152894113Y-85469000D01*
X152854113Y-88727000D02*
X152854113Y-88162000D01*
X152854113Y-86082000D02*
X152854113Y-85517000D01*
X152814113Y-88676000D02*
X152814113Y-88162000D01*
X152814113Y-86082000D02*
X152814113Y-85568000D01*
X152774113Y-88622000D02*
X152774113Y-88162000D01*
X152774113Y-86082000D02*
X152774113Y-85622000D01*
X152734113Y-88565000D02*
X152734113Y-88162000D01*
X152734113Y-86082000D02*
X152734113Y-85679000D01*
X152694113Y-88505000D02*
X152694113Y-88162000D01*
X152694113Y-86082000D02*
X152694113Y-85739000D01*
X152654113Y-88441000D02*
X152654113Y-88162000D01*
X152654113Y-86082000D02*
X152654113Y-85803000D01*
X152614113Y-88373000D02*
X152614113Y-88162000D01*
X152614113Y-86082000D02*
X152614113Y-85871000D01*
X152574113Y-88300000D02*
X152574113Y-85944000D01*
X152534113Y-88220000D02*
X152534113Y-86024000D01*
X152494113Y-88133000D02*
X152494113Y-86111000D01*
X152454113Y-88037000D02*
X152454113Y-86207000D01*
X152414113Y-87927000D02*
X152414113Y-86317000D01*
X152374113Y-87799000D02*
X152374113Y-86445000D01*
X152334113Y-87640000D02*
X152334113Y-86604000D01*
X152294113Y-87406000D02*
X152294113Y-86838000D01*
X157515113Y-87122000D02*
G75*
G03*
X157515113Y-87122000I-2620000J0D01*
G01*
%TO.C,R2*%
X114442000Y-62494000D02*
X114442000Y-72634000D01*
X113962000Y-62494000D02*
X114442000Y-62494000D01*
X111082000Y-62494000D02*
X110602000Y-62494000D01*
X110602000Y-62494000D02*
X110602000Y-72634000D01*
X114442000Y-72634000D02*
X113962000Y-72634000D01*
X110602000Y-72634000D02*
X111082000Y-72634000D01*
%TO.C,R7*%
X105730000Y-110750000D02*
X105730000Y-100610000D01*
X106210000Y-110750000D02*
X105730000Y-110750000D01*
X109090000Y-110750000D02*
X109570000Y-110750000D01*
X109570000Y-110750000D02*
X109570000Y-100610000D01*
X105730000Y-100610000D02*
X106210000Y-100610000D01*
X109570000Y-100610000D02*
X109090000Y-100610000D01*
%TO.C,J1*%
X102792050Y-79272000D02*
X95172050Y-79272000D01*
X95172050Y-79272000D02*
X95172050Y-89432000D01*
X102792050Y-89432000D02*
X102792050Y-79272000D01*
X96442050Y-89432000D02*
X96442050Y-79272000D01*
X95172050Y-89432000D02*
X102792050Y-89432000D01*
%TO.C,R3*%
X123048000Y-85588000D02*
X123048000Y-75448000D01*
X123528000Y-85588000D02*
X123048000Y-85588000D01*
X126408000Y-85588000D02*
X126888000Y-85588000D01*
X126888000Y-85588000D02*
X126888000Y-75448000D01*
X123048000Y-75448000D02*
X123528000Y-75448000D01*
X126888000Y-75448000D02*
X126408000Y-75448000D01*
D12*
%TO.C,SW1*%
X109332050Y-89502000D02*
X115332050Y-89502000D01*
X115332050Y-89502000D02*
X115332050Y-77502000D01*
X115332050Y-77502000D02*
X109332050Y-77502000D01*
X109332050Y-77502000D02*
X109332050Y-89502000D01*
D13*
%TO.C,R8*%
X162953271Y-88750001D02*
G75*
G03*
X162844774Y-90521379I-1453271J-799999D01*
G01*
%TO.C,C2*%
X170634775Y-87205000D02*
X170134775Y-87205000D01*
X170384775Y-87455000D02*
X170384775Y-86955000D01*
X167830000Y-88310000D02*
X167830000Y-83150000D01*
X167790000Y-88310000D02*
X167790000Y-83150000D01*
X167750000Y-88309000D02*
X167750000Y-83151000D01*
X167710000Y-88308000D02*
X167710000Y-83152000D01*
X167670000Y-88306000D02*
X167670000Y-83154000D01*
X167630000Y-88303000D02*
X167630000Y-83157000D01*
X167590000Y-88299000D02*
X167590000Y-86770000D01*
X167590000Y-84690000D02*
X167590000Y-83161000D01*
X167550000Y-88295000D02*
X167550000Y-86770000D01*
X167550000Y-84690000D02*
X167550000Y-83165000D01*
X167510000Y-88291000D02*
X167510000Y-86770000D01*
X167510000Y-84690000D02*
X167510000Y-83169000D01*
X167470000Y-88286000D02*
X167470000Y-86770000D01*
X167470000Y-84690000D02*
X167470000Y-83174000D01*
X167430000Y-88280000D02*
X167430000Y-86770000D01*
X167430000Y-84690000D02*
X167430000Y-83180000D01*
X167390000Y-88273000D02*
X167390000Y-86770000D01*
X167390000Y-84690000D02*
X167390000Y-83187000D01*
X167350000Y-88266000D02*
X167350000Y-86770000D01*
X167350000Y-84690000D02*
X167350000Y-83194000D01*
X167310000Y-88258000D02*
X167310000Y-86770000D01*
X167310000Y-84690000D02*
X167310000Y-83202000D01*
X167270000Y-88250000D02*
X167270000Y-86770000D01*
X167270000Y-84690000D02*
X167270000Y-83210000D01*
X167230000Y-88241000D02*
X167230000Y-86770000D01*
X167230000Y-84690000D02*
X167230000Y-83219000D01*
X167190000Y-88231000D02*
X167190000Y-86770000D01*
X167190000Y-84690000D02*
X167190000Y-83229000D01*
X167150000Y-88221000D02*
X167150000Y-86770000D01*
X167150000Y-84690000D02*
X167150000Y-83239000D01*
X167109000Y-88210000D02*
X167109000Y-86770000D01*
X167109000Y-84690000D02*
X167109000Y-83250000D01*
X167069000Y-88198000D02*
X167069000Y-86770000D01*
X167069000Y-84690000D02*
X167069000Y-83262000D01*
X167029000Y-88185000D02*
X167029000Y-86770000D01*
X167029000Y-84690000D02*
X167029000Y-83275000D01*
X166989000Y-88172000D02*
X166989000Y-86770000D01*
X166989000Y-84690000D02*
X166989000Y-83288000D01*
X166949000Y-88158000D02*
X166949000Y-86770000D01*
X166949000Y-84690000D02*
X166949000Y-83302000D01*
X166909000Y-88144000D02*
X166909000Y-86770000D01*
X166909000Y-84690000D02*
X166909000Y-83316000D01*
X166869000Y-88128000D02*
X166869000Y-86770000D01*
X166869000Y-84690000D02*
X166869000Y-83332000D01*
X166829000Y-88112000D02*
X166829000Y-86770000D01*
X166829000Y-84690000D02*
X166829000Y-83348000D01*
X166789000Y-88095000D02*
X166789000Y-86770000D01*
X166789000Y-84690000D02*
X166789000Y-83365000D01*
X166749000Y-88078000D02*
X166749000Y-86770000D01*
X166749000Y-84690000D02*
X166749000Y-83382000D01*
X166709000Y-88059000D02*
X166709000Y-86770000D01*
X166709000Y-84690000D02*
X166709000Y-83401000D01*
X166669000Y-88040000D02*
X166669000Y-86770000D01*
X166669000Y-84690000D02*
X166669000Y-83420000D01*
X166629000Y-88020000D02*
X166629000Y-86770000D01*
X166629000Y-84690000D02*
X166629000Y-83440000D01*
X166589000Y-87998000D02*
X166589000Y-86770000D01*
X166589000Y-84690000D02*
X166589000Y-83462000D01*
X166549000Y-87977000D02*
X166549000Y-86770000D01*
X166549000Y-84690000D02*
X166549000Y-83483000D01*
X166509000Y-87954000D02*
X166509000Y-86770000D01*
X166509000Y-84690000D02*
X166509000Y-83506000D01*
X166469000Y-87930000D02*
X166469000Y-86770000D01*
X166469000Y-84690000D02*
X166469000Y-83530000D01*
X166429000Y-87905000D02*
X166429000Y-86770000D01*
X166429000Y-84690000D02*
X166429000Y-83555000D01*
X166389000Y-87879000D02*
X166389000Y-86770000D01*
X166389000Y-84690000D02*
X166389000Y-83581000D01*
X166349000Y-87852000D02*
X166349000Y-86770000D01*
X166349000Y-84690000D02*
X166349000Y-83608000D01*
X166309000Y-87825000D02*
X166309000Y-86770000D01*
X166309000Y-84690000D02*
X166309000Y-83635000D01*
X166269000Y-87795000D02*
X166269000Y-86770000D01*
X166269000Y-84690000D02*
X166269000Y-83665000D01*
X166229000Y-87765000D02*
X166229000Y-86770000D01*
X166229000Y-84690000D02*
X166229000Y-83695000D01*
X166189000Y-87734000D02*
X166189000Y-86770000D01*
X166189000Y-84690000D02*
X166189000Y-83726000D01*
X166149000Y-87701000D02*
X166149000Y-86770000D01*
X166149000Y-84690000D02*
X166149000Y-83759000D01*
X166109000Y-87667000D02*
X166109000Y-86770000D01*
X166109000Y-84690000D02*
X166109000Y-83793000D01*
X166069000Y-87631000D02*
X166069000Y-86770000D01*
X166069000Y-84690000D02*
X166069000Y-83829000D01*
X166029000Y-87594000D02*
X166029000Y-86770000D01*
X166029000Y-84690000D02*
X166029000Y-83866000D01*
X165989000Y-87556000D02*
X165989000Y-86770000D01*
X165989000Y-84690000D02*
X165989000Y-83904000D01*
X165949000Y-87515000D02*
X165949000Y-86770000D01*
X165949000Y-84690000D02*
X165949000Y-83945000D01*
X165909000Y-87473000D02*
X165909000Y-86770000D01*
X165909000Y-84690000D02*
X165909000Y-83987000D01*
X165869000Y-87429000D02*
X165869000Y-86770000D01*
X165869000Y-84690000D02*
X165869000Y-84031000D01*
X165829000Y-87383000D02*
X165829000Y-86770000D01*
X165829000Y-84690000D02*
X165829000Y-84077000D01*
X165789000Y-87335000D02*
X165789000Y-86770000D01*
X165789000Y-84690000D02*
X165789000Y-84125000D01*
X165749000Y-87284000D02*
X165749000Y-86770000D01*
X165749000Y-84690000D02*
X165749000Y-84176000D01*
X165709000Y-87230000D02*
X165709000Y-86770000D01*
X165709000Y-84690000D02*
X165709000Y-84230000D01*
X165669000Y-87173000D02*
X165669000Y-86770000D01*
X165669000Y-84690000D02*
X165669000Y-84287000D01*
X165629000Y-87113000D02*
X165629000Y-86770000D01*
X165629000Y-84690000D02*
X165629000Y-84347000D01*
X165589000Y-87049000D02*
X165589000Y-86770000D01*
X165589000Y-84690000D02*
X165589000Y-84411000D01*
X165549000Y-86981000D02*
X165549000Y-86770000D01*
X165549000Y-84690000D02*
X165549000Y-84479000D01*
X165509000Y-86908000D02*
X165509000Y-84552000D01*
X165469000Y-86828000D02*
X165469000Y-84632000D01*
X165429000Y-86741000D02*
X165429000Y-84719000D01*
X165389000Y-86645000D02*
X165389000Y-84815000D01*
X165349000Y-86535000D02*
X165349000Y-84925000D01*
X165309000Y-86407000D02*
X165309000Y-85053000D01*
X165269000Y-86248000D02*
X165269000Y-85212000D01*
X165229000Y-86014000D02*
X165229000Y-85446000D01*
X170450000Y-85730000D02*
G75*
G03*
X170450000Y-85730000I-2620000J0D01*
G01*
%TO.C,C1*%
X151160775Y-53799000D02*
X150660775Y-53799000D01*
X150910775Y-54049000D02*
X150910775Y-53549000D01*
X148356000Y-54904000D02*
X148356000Y-49744000D01*
X148316000Y-54904000D02*
X148316000Y-49744000D01*
X148276000Y-54903000D02*
X148276000Y-49745000D01*
X148236000Y-54902000D02*
X148236000Y-49746000D01*
X148196000Y-54900000D02*
X148196000Y-49748000D01*
X148156000Y-54897000D02*
X148156000Y-49751000D01*
X148116000Y-54893000D02*
X148116000Y-53364000D01*
X148116000Y-51284000D02*
X148116000Y-49755000D01*
X148076000Y-54889000D02*
X148076000Y-53364000D01*
X148076000Y-51284000D02*
X148076000Y-49759000D01*
X148036000Y-54885000D02*
X148036000Y-53364000D01*
X148036000Y-51284000D02*
X148036000Y-49763000D01*
X147996000Y-54880000D02*
X147996000Y-53364000D01*
X147996000Y-51284000D02*
X147996000Y-49768000D01*
X147956000Y-54874000D02*
X147956000Y-53364000D01*
X147956000Y-51284000D02*
X147956000Y-49774000D01*
X147916000Y-54867000D02*
X147916000Y-53364000D01*
X147916000Y-51284000D02*
X147916000Y-49781000D01*
X147876000Y-54860000D02*
X147876000Y-53364000D01*
X147876000Y-51284000D02*
X147876000Y-49788000D01*
X147836000Y-54852000D02*
X147836000Y-53364000D01*
X147836000Y-51284000D02*
X147836000Y-49796000D01*
X147796000Y-54844000D02*
X147796000Y-53364000D01*
X147796000Y-51284000D02*
X147796000Y-49804000D01*
X147756000Y-54835000D02*
X147756000Y-53364000D01*
X147756000Y-51284000D02*
X147756000Y-49813000D01*
X147716000Y-54825000D02*
X147716000Y-53364000D01*
X147716000Y-51284000D02*
X147716000Y-49823000D01*
X147676000Y-54815000D02*
X147676000Y-53364000D01*
X147676000Y-51284000D02*
X147676000Y-49833000D01*
X147635000Y-54804000D02*
X147635000Y-53364000D01*
X147635000Y-51284000D02*
X147635000Y-49844000D01*
X147595000Y-54792000D02*
X147595000Y-53364000D01*
X147595000Y-51284000D02*
X147595000Y-49856000D01*
X147555000Y-54779000D02*
X147555000Y-53364000D01*
X147555000Y-51284000D02*
X147555000Y-49869000D01*
X147515000Y-54766000D02*
X147515000Y-53364000D01*
X147515000Y-51284000D02*
X147515000Y-49882000D01*
X147475000Y-54752000D02*
X147475000Y-53364000D01*
X147475000Y-51284000D02*
X147475000Y-49896000D01*
X147435000Y-54738000D02*
X147435000Y-53364000D01*
X147435000Y-51284000D02*
X147435000Y-49910000D01*
X147395000Y-54722000D02*
X147395000Y-53364000D01*
X147395000Y-51284000D02*
X147395000Y-49926000D01*
X147355000Y-54706000D02*
X147355000Y-53364000D01*
X147355000Y-51284000D02*
X147355000Y-49942000D01*
X147315000Y-54689000D02*
X147315000Y-53364000D01*
X147315000Y-51284000D02*
X147315000Y-49959000D01*
X147275000Y-54672000D02*
X147275000Y-53364000D01*
X147275000Y-51284000D02*
X147275000Y-49976000D01*
X147235000Y-54653000D02*
X147235000Y-53364000D01*
X147235000Y-51284000D02*
X147235000Y-49995000D01*
X147195000Y-54634000D02*
X147195000Y-53364000D01*
X147195000Y-51284000D02*
X147195000Y-50014000D01*
X147155000Y-54614000D02*
X147155000Y-53364000D01*
X147155000Y-51284000D02*
X147155000Y-50034000D01*
X147115000Y-54592000D02*
X147115000Y-53364000D01*
X147115000Y-51284000D02*
X147115000Y-50056000D01*
X147075000Y-54571000D02*
X147075000Y-53364000D01*
X147075000Y-51284000D02*
X147075000Y-50077000D01*
X147035000Y-54548000D02*
X147035000Y-53364000D01*
X147035000Y-51284000D02*
X147035000Y-50100000D01*
X146995000Y-54524000D02*
X146995000Y-53364000D01*
X146995000Y-51284000D02*
X146995000Y-50124000D01*
X146955000Y-54499000D02*
X146955000Y-53364000D01*
X146955000Y-51284000D02*
X146955000Y-50149000D01*
X146915000Y-54473000D02*
X146915000Y-53364000D01*
X146915000Y-51284000D02*
X146915000Y-50175000D01*
X146875000Y-54446000D02*
X146875000Y-53364000D01*
X146875000Y-51284000D02*
X146875000Y-50202000D01*
X146835000Y-54419000D02*
X146835000Y-53364000D01*
X146835000Y-51284000D02*
X146835000Y-50229000D01*
X146795000Y-54389000D02*
X146795000Y-53364000D01*
X146795000Y-51284000D02*
X146795000Y-50259000D01*
X146755000Y-54359000D02*
X146755000Y-53364000D01*
X146755000Y-51284000D02*
X146755000Y-50289000D01*
X146715000Y-54328000D02*
X146715000Y-53364000D01*
X146715000Y-51284000D02*
X146715000Y-50320000D01*
X146675000Y-54295000D02*
X146675000Y-53364000D01*
X146675000Y-51284000D02*
X146675000Y-50353000D01*
X146635000Y-54261000D02*
X146635000Y-53364000D01*
X146635000Y-51284000D02*
X146635000Y-50387000D01*
X146595000Y-54225000D02*
X146595000Y-53364000D01*
X146595000Y-51284000D02*
X146595000Y-50423000D01*
X146555000Y-54188000D02*
X146555000Y-53364000D01*
X146555000Y-51284000D02*
X146555000Y-50460000D01*
X146515000Y-54150000D02*
X146515000Y-53364000D01*
X146515000Y-51284000D02*
X146515000Y-50498000D01*
X146475000Y-54109000D02*
X146475000Y-53364000D01*
X146475000Y-51284000D02*
X146475000Y-50539000D01*
X146435000Y-54067000D02*
X146435000Y-53364000D01*
X146435000Y-51284000D02*
X146435000Y-50581000D01*
X146395000Y-54023000D02*
X146395000Y-53364000D01*
X146395000Y-51284000D02*
X146395000Y-50625000D01*
X146355000Y-53977000D02*
X146355000Y-53364000D01*
X146355000Y-51284000D02*
X146355000Y-50671000D01*
X146315000Y-53929000D02*
X146315000Y-53364000D01*
X146315000Y-51284000D02*
X146315000Y-50719000D01*
X146275000Y-53878000D02*
X146275000Y-53364000D01*
X146275000Y-51284000D02*
X146275000Y-50770000D01*
X146235000Y-53824000D02*
X146235000Y-53364000D01*
X146235000Y-51284000D02*
X146235000Y-50824000D01*
X146195000Y-53767000D02*
X146195000Y-53364000D01*
X146195000Y-51284000D02*
X146195000Y-50881000D01*
X146155000Y-53707000D02*
X146155000Y-53364000D01*
X146155000Y-51284000D02*
X146155000Y-50941000D01*
X146115000Y-53643000D02*
X146115000Y-53364000D01*
X146115000Y-51284000D02*
X146115000Y-51005000D01*
X146075000Y-53575000D02*
X146075000Y-53364000D01*
X146075000Y-51284000D02*
X146075000Y-51073000D01*
X146035000Y-53502000D02*
X146035000Y-51146000D01*
X145995000Y-53422000D02*
X145995000Y-51226000D01*
X145955000Y-53335000D02*
X145955000Y-51313000D01*
X145915000Y-53239000D02*
X145915000Y-51409000D01*
X145875000Y-53129000D02*
X145875000Y-51519000D01*
X145835000Y-53001000D02*
X145835000Y-51647000D01*
X145795000Y-52842000D02*
X145795000Y-51806000D01*
X145755000Y-52608000D02*
X145755000Y-52040000D01*
X150976000Y-52324000D02*
G75*
G03*
X150976000Y-52324000I-2620000J0D01*
G01*
%TO.C,RV1*%
X123385000Y-71115000D02*
X133155000Y-71115000D01*
X123385000Y-71115000D02*
X123385000Y-66045000D01*
X133155000Y-71115000D02*
X133155000Y-66045000D01*
X123385000Y-66045000D02*
X133155000Y-66045000D01*
%TO.C,R6*%
X111400000Y-97010000D02*
X101260000Y-97010000D01*
X111400000Y-96530000D02*
X111400000Y-97010000D01*
X111400000Y-93650000D02*
X111400000Y-93170000D01*
X111400000Y-93170000D02*
X101260000Y-93170000D01*
X101260000Y-97010000D02*
X101260000Y-96530000D01*
X101260000Y-93170000D02*
X101260000Y-93650000D01*
%TO.C,C3*%
X143246775Y-56593000D02*
X142746775Y-56593000D01*
X142996775Y-56843000D02*
X142996775Y-56343000D01*
X140442000Y-57698000D02*
X140442000Y-52538000D01*
X140402000Y-57698000D02*
X140402000Y-52538000D01*
X140362000Y-57697000D02*
X140362000Y-52539000D01*
X140322000Y-57696000D02*
X140322000Y-52540000D01*
X140282000Y-57694000D02*
X140282000Y-52542000D01*
X140242000Y-57691000D02*
X140242000Y-52545000D01*
X140202000Y-57687000D02*
X140202000Y-56158000D01*
X140202000Y-54078000D02*
X140202000Y-52549000D01*
X140162000Y-57683000D02*
X140162000Y-56158000D01*
X140162000Y-54078000D02*
X140162000Y-52553000D01*
X140122000Y-57679000D02*
X140122000Y-56158000D01*
X140122000Y-54078000D02*
X140122000Y-52557000D01*
X140082000Y-57674000D02*
X140082000Y-56158000D01*
X140082000Y-54078000D02*
X140082000Y-52562000D01*
X140042000Y-57668000D02*
X140042000Y-56158000D01*
X140042000Y-54078000D02*
X140042000Y-52568000D01*
X140002000Y-57661000D02*
X140002000Y-56158000D01*
X140002000Y-54078000D02*
X140002000Y-52575000D01*
X139962000Y-57654000D02*
X139962000Y-56158000D01*
X139962000Y-54078000D02*
X139962000Y-52582000D01*
X139922000Y-57646000D02*
X139922000Y-56158000D01*
X139922000Y-54078000D02*
X139922000Y-52590000D01*
X139882000Y-57638000D02*
X139882000Y-56158000D01*
X139882000Y-54078000D02*
X139882000Y-52598000D01*
X139842000Y-57629000D02*
X139842000Y-56158000D01*
X139842000Y-54078000D02*
X139842000Y-52607000D01*
X139802000Y-57619000D02*
X139802000Y-56158000D01*
X139802000Y-54078000D02*
X139802000Y-52617000D01*
X139762000Y-57609000D02*
X139762000Y-56158000D01*
X139762000Y-54078000D02*
X139762000Y-52627000D01*
X139721000Y-57598000D02*
X139721000Y-56158000D01*
X139721000Y-54078000D02*
X139721000Y-52638000D01*
X139681000Y-57586000D02*
X139681000Y-56158000D01*
X139681000Y-54078000D02*
X139681000Y-52650000D01*
X139641000Y-57573000D02*
X139641000Y-56158000D01*
X139641000Y-54078000D02*
X139641000Y-52663000D01*
X139601000Y-57560000D02*
X139601000Y-56158000D01*
X139601000Y-54078000D02*
X139601000Y-52676000D01*
X139561000Y-57546000D02*
X139561000Y-56158000D01*
X139561000Y-54078000D02*
X139561000Y-52690000D01*
X139521000Y-57532000D02*
X139521000Y-56158000D01*
X139521000Y-54078000D02*
X139521000Y-52704000D01*
X139481000Y-57516000D02*
X139481000Y-56158000D01*
X139481000Y-54078000D02*
X139481000Y-52720000D01*
X139441000Y-57500000D02*
X139441000Y-56158000D01*
X139441000Y-54078000D02*
X139441000Y-52736000D01*
X139401000Y-57483000D02*
X139401000Y-56158000D01*
X139401000Y-54078000D02*
X139401000Y-52753000D01*
X139361000Y-57466000D02*
X139361000Y-56158000D01*
X139361000Y-54078000D02*
X139361000Y-52770000D01*
X139321000Y-57447000D02*
X139321000Y-56158000D01*
X139321000Y-54078000D02*
X139321000Y-52789000D01*
X139281000Y-57428000D02*
X139281000Y-56158000D01*
X139281000Y-54078000D02*
X139281000Y-52808000D01*
X139241000Y-57408000D02*
X139241000Y-56158000D01*
X139241000Y-54078000D02*
X139241000Y-52828000D01*
X139201000Y-57386000D02*
X139201000Y-56158000D01*
X139201000Y-54078000D02*
X139201000Y-52850000D01*
X139161000Y-57365000D02*
X139161000Y-56158000D01*
X139161000Y-54078000D02*
X139161000Y-52871000D01*
X139121000Y-57342000D02*
X139121000Y-56158000D01*
X139121000Y-54078000D02*
X139121000Y-52894000D01*
X139081000Y-57318000D02*
X139081000Y-56158000D01*
X139081000Y-54078000D02*
X139081000Y-52918000D01*
X139041000Y-57293000D02*
X139041000Y-56158000D01*
X139041000Y-54078000D02*
X139041000Y-52943000D01*
X139001000Y-57267000D02*
X139001000Y-56158000D01*
X139001000Y-54078000D02*
X139001000Y-52969000D01*
X138961000Y-57240000D02*
X138961000Y-56158000D01*
X138961000Y-54078000D02*
X138961000Y-52996000D01*
X138921000Y-57213000D02*
X138921000Y-56158000D01*
X138921000Y-54078000D02*
X138921000Y-53023000D01*
X138881000Y-57183000D02*
X138881000Y-56158000D01*
X138881000Y-54078000D02*
X138881000Y-53053000D01*
X138841000Y-57153000D02*
X138841000Y-56158000D01*
X138841000Y-54078000D02*
X138841000Y-53083000D01*
X138801000Y-57122000D02*
X138801000Y-56158000D01*
X138801000Y-54078000D02*
X138801000Y-53114000D01*
X138761000Y-57089000D02*
X138761000Y-56158000D01*
X138761000Y-54078000D02*
X138761000Y-53147000D01*
X138721000Y-57055000D02*
X138721000Y-56158000D01*
X138721000Y-54078000D02*
X138721000Y-53181000D01*
X138681000Y-57019000D02*
X138681000Y-56158000D01*
X138681000Y-54078000D02*
X138681000Y-53217000D01*
X138641000Y-56982000D02*
X138641000Y-56158000D01*
X138641000Y-54078000D02*
X138641000Y-53254000D01*
X138601000Y-56944000D02*
X138601000Y-56158000D01*
X138601000Y-54078000D02*
X138601000Y-53292000D01*
X138561000Y-56903000D02*
X138561000Y-56158000D01*
X138561000Y-54078000D02*
X138561000Y-53333000D01*
X138521000Y-56861000D02*
X138521000Y-56158000D01*
X138521000Y-54078000D02*
X138521000Y-53375000D01*
X138481000Y-56817000D02*
X138481000Y-56158000D01*
X138481000Y-54078000D02*
X138481000Y-53419000D01*
X138441000Y-56771000D02*
X138441000Y-56158000D01*
X138441000Y-54078000D02*
X138441000Y-53465000D01*
X138401000Y-56723000D02*
X138401000Y-56158000D01*
X138401000Y-54078000D02*
X138401000Y-53513000D01*
X138361000Y-56672000D02*
X138361000Y-56158000D01*
X138361000Y-54078000D02*
X138361000Y-53564000D01*
X138321000Y-56618000D02*
X138321000Y-56158000D01*
X138321000Y-54078000D02*
X138321000Y-53618000D01*
X138281000Y-56561000D02*
X138281000Y-56158000D01*
X138281000Y-54078000D02*
X138281000Y-53675000D01*
X138241000Y-56501000D02*
X138241000Y-56158000D01*
X138241000Y-54078000D02*
X138241000Y-53735000D01*
X138201000Y-56437000D02*
X138201000Y-56158000D01*
X138201000Y-54078000D02*
X138201000Y-53799000D01*
X138161000Y-56369000D02*
X138161000Y-56158000D01*
X138161000Y-54078000D02*
X138161000Y-53867000D01*
X138121000Y-56296000D02*
X138121000Y-53940000D01*
X138081000Y-56216000D02*
X138081000Y-54020000D01*
X138041000Y-56129000D02*
X138041000Y-54107000D01*
X138001000Y-56033000D02*
X138001000Y-54203000D01*
X137961000Y-55923000D02*
X137961000Y-54313000D01*
X137921000Y-55795000D02*
X137921000Y-54441000D01*
X137881000Y-55636000D02*
X137881000Y-54600000D01*
X137841000Y-55402000D02*
X137841000Y-54834000D01*
X143062000Y-55118000D02*
G75*
G03*
X143062000Y-55118000I-2620000J0D01*
G01*
%TO.C,C4*%
X152957000Y-80254775D02*
X152957000Y-79754775D01*
X152707000Y-80004775D02*
X153207000Y-80004775D01*
X151852000Y-77450000D02*
X157012000Y-77450000D01*
X151852000Y-77410000D02*
X157012000Y-77410000D01*
X151853000Y-77370000D02*
X157011000Y-77370000D01*
X151854000Y-77330000D02*
X157010000Y-77330000D01*
X151856000Y-77290000D02*
X157008000Y-77290000D01*
X151859000Y-77250000D02*
X157005000Y-77250000D01*
X151863000Y-77210000D02*
X153392000Y-77210000D01*
X155472000Y-77210000D02*
X157001000Y-77210000D01*
X151867000Y-77170000D02*
X153392000Y-77170000D01*
X155472000Y-77170000D02*
X156997000Y-77170000D01*
X151871000Y-77130000D02*
X153392000Y-77130000D01*
X155472000Y-77130000D02*
X156993000Y-77130000D01*
X151876000Y-77090000D02*
X153392000Y-77090000D01*
X155472000Y-77090000D02*
X156988000Y-77090000D01*
X151882000Y-77050000D02*
X153392000Y-77050000D01*
X155472000Y-77050000D02*
X156982000Y-77050000D01*
X151889000Y-77010000D02*
X153392000Y-77010000D01*
X155472000Y-77010000D02*
X156975000Y-77010000D01*
X151896000Y-76970000D02*
X153392000Y-76970000D01*
X155472000Y-76970000D02*
X156968000Y-76970000D01*
X151904000Y-76930000D02*
X153392000Y-76930000D01*
X155472000Y-76930000D02*
X156960000Y-76930000D01*
X151912000Y-76890000D02*
X153392000Y-76890000D01*
X155472000Y-76890000D02*
X156952000Y-76890000D01*
X151921000Y-76850000D02*
X153392000Y-76850000D01*
X155472000Y-76850000D02*
X156943000Y-76850000D01*
X151931000Y-76810000D02*
X153392000Y-76810000D01*
X155472000Y-76810000D02*
X156933000Y-76810000D01*
X151941000Y-76770000D02*
X153392000Y-76770000D01*
X155472000Y-76770000D02*
X156923000Y-76770000D01*
X151952000Y-76729000D02*
X153392000Y-76729000D01*
X155472000Y-76729000D02*
X156912000Y-76729000D01*
X151964000Y-76689000D02*
X153392000Y-76689000D01*
X155472000Y-76689000D02*
X156900000Y-76689000D01*
X151977000Y-76649000D02*
X153392000Y-76649000D01*
X155472000Y-76649000D02*
X156887000Y-76649000D01*
X151990000Y-76609000D02*
X153392000Y-76609000D01*
X155472000Y-76609000D02*
X156874000Y-76609000D01*
X152004000Y-76569000D02*
X153392000Y-76569000D01*
X155472000Y-76569000D02*
X156860000Y-76569000D01*
X152018000Y-76529000D02*
X153392000Y-76529000D01*
X155472000Y-76529000D02*
X156846000Y-76529000D01*
X152034000Y-76489000D02*
X153392000Y-76489000D01*
X155472000Y-76489000D02*
X156830000Y-76489000D01*
X152050000Y-76449000D02*
X153392000Y-76449000D01*
X155472000Y-76449000D02*
X156814000Y-76449000D01*
X152067000Y-76409000D02*
X153392000Y-76409000D01*
X155472000Y-76409000D02*
X156797000Y-76409000D01*
X152084000Y-76369000D02*
X153392000Y-76369000D01*
X155472000Y-76369000D02*
X156780000Y-76369000D01*
X152103000Y-76329000D02*
X153392000Y-76329000D01*
X155472000Y-76329000D02*
X156761000Y-76329000D01*
X152122000Y-76289000D02*
X153392000Y-76289000D01*
X155472000Y-76289000D02*
X156742000Y-76289000D01*
X152142000Y-76249000D02*
X153392000Y-76249000D01*
X155472000Y-76249000D02*
X156722000Y-76249000D01*
X152164000Y-76209000D02*
X153392000Y-76209000D01*
X155472000Y-76209000D02*
X156700000Y-76209000D01*
X152185000Y-76169000D02*
X153392000Y-76169000D01*
X155472000Y-76169000D02*
X156679000Y-76169000D01*
X152208000Y-76129000D02*
X153392000Y-76129000D01*
X155472000Y-76129000D02*
X156656000Y-76129000D01*
X152232000Y-76089000D02*
X153392000Y-76089000D01*
X155472000Y-76089000D02*
X156632000Y-76089000D01*
X152257000Y-76049000D02*
X153392000Y-76049000D01*
X155472000Y-76049000D02*
X156607000Y-76049000D01*
X152283000Y-76009000D02*
X153392000Y-76009000D01*
X155472000Y-76009000D02*
X156581000Y-76009000D01*
X152310000Y-75969000D02*
X153392000Y-75969000D01*
X155472000Y-75969000D02*
X156554000Y-75969000D01*
X152337000Y-75929000D02*
X153392000Y-75929000D01*
X155472000Y-75929000D02*
X156527000Y-75929000D01*
X152367000Y-75889000D02*
X153392000Y-75889000D01*
X155472000Y-75889000D02*
X156497000Y-75889000D01*
X152397000Y-75849000D02*
X153392000Y-75849000D01*
X155472000Y-75849000D02*
X156467000Y-75849000D01*
X152428000Y-75809000D02*
X153392000Y-75809000D01*
X155472000Y-75809000D02*
X156436000Y-75809000D01*
X152461000Y-75769000D02*
X153392000Y-75769000D01*
X155472000Y-75769000D02*
X156403000Y-75769000D01*
X152495000Y-75729000D02*
X153392000Y-75729000D01*
X155472000Y-75729000D02*
X156369000Y-75729000D01*
X152531000Y-75689000D02*
X153392000Y-75689000D01*
X155472000Y-75689000D02*
X156333000Y-75689000D01*
X152568000Y-75649000D02*
X153392000Y-75649000D01*
X155472000Y-75649000D02*
X156296000Y-75649000D01*
X152606000Y-75609000D02*
X153392000Y-75609000D01*
X155472000Y-75609000D02*
X156258000Y-75609000D01*
X152647000Y-75569000D02*
X153392000Y-75569000D01*
X155472000Y-75569000D02*
X156217000Y-75569000D01*
X152689000Y-75529000D02*
X153392000Y-75529000D01*
X155472000Y-75529000D02*
X156175000Y-75529000D01*
X152733000Y-75489000D02*
X153392000Y-75489000D01*
X155472000Y-75489000D02*
X156131000Y-75489000D01*
X152779000Y-75449000D02*
X153392000Y-75449000D01*
X155472000Y-75449000D02*
X156085000Y-75449000D01*
X152827000Y-75409000D02*
X153392000Y-75409000D01*
X155472000Y-75409000D02*
X156037000Y-75409000D01*
X152878000Y-75369000D02*
X153392000Y-75369000D01*
X155472000Y-75369000D02*
X155986000Y-75369000D01*
X152932000Y-75329000D02*
X153392000Y-75329000D01*
X155472000Y-75329000D02*
X155932000Y-75329000D01*
X152989000Y-75289000D02*
X153392000Y-75289000D01*
X155472000Y-75289000D02*
X155875000Y-75289000D01*
X153049000Y-75249000D02*
X153392000Y-75249000D01*
X155472000Y-75249000D02*
X155815000Y-75249000D01*
X153113000Y-75209000D02*
X153392000Y-75209000D01*
X155472000Y-75209000D02*
X155751000Y-75209000D01*
X153181000Y-75169000D02*
X153392000Y-75169000D01*
X155472000Y-75169000D02*
X155683000Y-75169000D01*
X153254000Y-75129000D02*
X155610000Y-75129000D01*
X153334000Y-75089000D02*
X155530000Y-75089000D01*
X153421000Y-75049000D02*
X155443000Y-75049000D01*
X153517000Y-75009000D02*
X155347000Y-75009000D01*
X153627000Y-74969000D02*
X155237000Y-74969000D01*
X153755000Y-74929000D02*
X155109000Y-74929000D01*
X153914000Y-74889000D02*
X154950000Y-74889000D01*
X154148000Y-74849000D02*
X154716000Y-74849000D01*
X157052000Y-77450000D02*
G75*
G03*
X157052000Y-77450000I-2620000J0D01*
G01*
%TO.C,R4*%
X143622000Y-73650000D02*
X143622000Y-63510000D01*
X144102000Y-73650000D02*
X143622000Y-73650000D01*
X146982000Y-73650000D02*
X147462000Y-73650000D01*
X147462000Y-73650000D02*
X147462000Y-63510000D01*
X143622000Y-63510000D02*
X144102000Y-63510000D01*
X147462000Y-63510000D02*
X146982000Y-63510000D01*
D15*
%TO.C,U2*%
X173685000Y-54472500D02*
X173685000Y-61072500D01*
X172365000Y-54472500D02*
X173685000Y-54472500D01*
X153995000Y-54472500D02*
X155315000Y-54472500D01*
X173685000Y-61072500D02*
X172365000Y-61072500D01*
X155315000Y-61072500D02*
X153995000Y-61072500D01*
X153995000Y-61072500D02*
X153995000Y-54472500D01*
D16*
X171560000Y-52717500D02*
G75*
G03*
X171560000Y-52717500I-100000J0D01*
G01*
D13*
%TO.C,R5*%
X137018000Y-73904000D02*
X137018000Y-63764000D01*
X137498000Y-73904000D02*
X137018000Y-73904000D01*
X140378000Y-73904000D02*
X140858000Y-73904000D01*
X140858000Y-73904000D02*
X140858000Y-63764000D01*
X137018000Y-63764000D02*
X137498000Y-63764000D01*
X140858000Y-63764000D02*
X140378000Y-63764000D01*
D12*
%TO.C,SW2*%
X115580000Y-114520000D02*
X121580000Y-114520000D01*
X121580000Y-114520000D02*
X121580000Y-102520000D01*
X121580000Y-102520000D02*
X115580000Y-102520000D01*
X115580000Y-102520000D02*
X115580000Y-114520000D01*
D13*
%TO.C,R1*%
X106060000Y-63002000D02*
X106060000Y-73142000D01*
X105580000Y-63002000D02*
X106060000Y-63002000D01*
X102700000Y-63002000D02*
X102220000Y-63002000D01*
X102220000Y-63002000D02*
X102220000Y-73142000D01*
X106060000Y-73142000D02*
X105580000Y-73142000D01*
X102220000Y-73142000D02*
X102700000Y-73142000D01*
%TO.C,C5*%
X170345000Y-93104775D02*
X170345000Y-92604775D01*
X170095000Y-92854775D02*
X170595000Y-92854775D01*
X169240000Y-90300000D02*
X174400000Y-90300000D01*
X169240000Y-90260000D02*
X174400000Y-90260000D01*
X169241000Y-90220000D02*
X174399000Y-90220000D01*
X169242000Y-90180000D02*
X174398000Y-90180000D01*
X169244000Y-90140000D02*
X174396000Y-90140000D01*
X169247000Y-90100000D02*
X174393000Y-90100000D01*
X169251000Y-90060000D02*
X170780000Y-90060000D01*
X172860000Y-90060000D02*
X174389000Y-90060000D01*
X169255000Y-90020000D02*
X170780000Y-90020000D01*
X172860000Y-90020000D02*
X174385000Y-90020000D01*
X169259000Y-89980000D02*
X170780000Y-89980000D01*
X172860000Y-89980000D02*
X174381000Y-89980000D01*
X169264000Y-89940000D02*
X170780000Y-89940000D01*
X172860000Y-89940000D02*
X174376000Y-89940000D01*
X169270000Y-89900000D02*
X170780000Y-89900000D01*
X172860000Y-89900000D02*
X174370000Y-89900000D01*
X169277000Y-89860000D02*
X170780000Y-89860000D01*
X172860000Y-89860000D02*
X174363000Y-89860000D01*
X169284000Y-89820000D02*
X170780000Y-89820000D01*
X172860000Y-89820000D02*
X174356000Y-89820000D01*
X169292000Y-89780000D02*
X170780000Y-89780000D01*
X172860000Y-89780000D02*
X174348000Y-89780000D01*
X169300000Y-89740000D02*
X170780000Y-89740000D01*
X172860000Y-89740000D02*
X174340000Y-89740000D01*
X169309000Y-89700000D02*
X170780000Y-89700000D01*
X172860000Y-89700000D02*
X174331000Y-89700000D01*
X169319000Y-89660000D02*
X170780000Y-89660000D01*
X172860000Y-89660000D02*
X174321000Y-89660000D01*
X169329000Y-89620000D02*
X170780000Y-89620000D01*
X172860000Y-89620000D02*
X174311000Y-89620000D01*
X169340000Y-89579000D02*
X170780000Y-89579000D01*
X172860000Y-89579000D02*
X174300000Y-89579000D01*
X169352000Y-89539000D02*
X170780000Y-89539000D01*
X172860000Y-89539000D02*
X174288000Y-89539000D01*
X169365000Y-89499000D02*
X170780000Y-89499000D01*
X172860000Y-89499000D02*
X174275000Y-89499000D01*
X169378000Y-89459000D02*
X170780000Y-89459000D01*
X172860000Y-89459000D02*
X174262000Y-89459000D01*
X169392000Y-89419000D02*
X170780000Y-89419000D01*
X172860000Y-89419000D02*
X174248000Y-89419000D01*
X169406000Y-89379000D02*
X170780000Y-89379000D01*
X172860000Y-89379000D02*
X174234000Y-89379000D01*
X169422000Y-89339000D02*
X170780000Y-89339000D01*
X172860000Y-89339000D02*
X174218000Y-89339000D01*
X169438000Y-89299000D02*
X170780000Y-89299000D01*
X172860000Y-89299000D02*
X174202000Y-89299000D01*
X169455000Y-89259000D02*
X170780000Y-89259000D01*
X172860000Y-89259000D02*
X174185000Y-89259000D01*
X169472000Y-89219000D02*
X170780000Y-89219000D01*
X172860000Y-89219000D02*
X174168000Y-89219000D01*
X169491000Y-89179000D02*
X170780000Y-89179000D01*
X172860000Y-89179000D02*
X174149000Y-89179000D01*
X169510000Y-89139000D02*
X170780000Y-89139000D01*
X172860000Y-89139000D02*
X174130000Y-89139000D01*
X169530000Y-89099000D02*
X170780000Y-89099000D01*
X172860000Y-89099000D02*
X174110000Y-89099000D01*
X169552000Y-89059000D02*
X170780000Y-89059000D01*
X172860000Y-89059000D02*
X174088000Y-89059000D01*
X169573000Y-89019000D02*
X170780000Y-89019000D01*
X172860000Y-89019000D02*
X174067000Y-89019000D01*
X169596000Y-88979000D02*
X170780000Y-88979000D01*
X172860000Y-88979000D02*
X174044000Y-88979000D01*
X169620000Y-88939000D02*
X170780000Y-88939000D01*
X172860000Y-88939000D02*
X174020000Y-88939000D01*
X169645000Y-88899000D02*
X170780000Y-88899000D01*
X172860000Y-88899000D02*
X173995000Y-88899000D01*
X169671000Y-88859000D02*
X170780000Y-88859000D01*
X172860000Y-88859000D02*
X173969000Y-88859000D01*
X169698000Y-88819000D02*
X170780000Y-88819000D01*
X172860000Y-88819000D02*
X173942000Y-88819000D01*
X169725000Y-88779000D02*
X170780000Y-88779000D01*
X172860000Y-88779000D02*
X173915000Y-88779000D01*
X169755000Y-88739000D02*
X170780000Y-88739000D01*
X172860000Y-88739000D02*
X173885000Y-88739000D01*
X169785000Y-88699000D02*
X170780000Y-88699000D01*
X172860000Y-88699000D02*
X173855000Y-88699000D01*
X169816000Y-88659000D02*
X170780000Y-88659000D01*
X172860000Y-88659000D02*
X173824000Y-88659000D01*
X169849000Y-88619000D02*
X170780000Y-88619000D01*
X172860000Y-88619000D02*
X173791000Y-88619000D01*
X169883000Y-88579000D02*
X170780000Y-88579000D01*
X172860000Y-88579000D02*
X173757000Y-88579000D01*
X169919000Y-88539000D02*
X170780000Y-88539000D01*
X172860000Y-88539000D02*
X173721000Y-88539000D01*
X169956000Y-88499000D02*
X170780000Y-88499000D01*
X172860000Y-88499000D02*
X173684000Y-88499000D01*
X169994000Y-88459000D02*
X170780000Y-88459000D01*
X172860000Y-88459000D02*
X173646000Y-88459000D01*
X170035000Y-88419000D02*
X170780000Y-88419000D01*
X172860000Y-88419000D02*
X173605000Y-88419000D01*
X170077000Y-88379000D02*
X170780000Y-88379000D01*
X172860000Y-88379000D02*
X173563000Y-88379000D01*
X170121000Y-88339000D02*
X170780000Y-88339000D01*
X172860000Y-88339000D02*
X173519000Y-88339000D01*
X170167000Y-88299000D02*
X170780000Y-88299000D01*
X172860000Y-88299000D02*
X173473000Y-88299000D01*
X170215000Y-88259000D02*
X170780000Y-88259000D01*
X172860000Y-88259000D02*
X173425000Y-88259000D01*
X170266000Y-88219000D02*
X170780000Y-88219000D01*
X172860000Y-88219000D02*
X173374000Y-88219000D01*
X170320000Y-88179000D02*
X170780000Y-88179000D01*
X172860000Y-88179000D02*
X173320000Y-88179000D01*
X170377000Y-88139000D02*
X170780000Y-88139000D01*
X172860000Y-88139000D02*
X173263000Y-88139000D01*
X170437000Y-88099000D02*
X170780000Y-88099000D01*
X172860000Y-88099000D02*
X173203000Y-88099000D01*
X170501000Y-88059000D02*
X170780000Y-88059000D01*
X172860000Y-88059000D02*
X173139000Y-88059000D01*
X170569000Y-88019000D02*
X170780000Y-88019000D01*
X172860000Y-88019000D02*
X173071000Y-88019000D01*
X170642000Y-87979000D02*
X172998000Y-87979000D01*
X170722000Y-87939000D02*
X172918000Y-87939000D01*
X170809000Y-87899000D02*
X172831000Y-87899000D01*
X170905000Y-87859000D02*
X172735000Y-87859000D01*
X171015000Y-87819000D02*
X172625000Y-87819000D01*
X171143000Y-87779000D02*
X172497000Y-87779000D01*
X171302000Y-87739000D02*
X172338000Y-87739000D01*
X171536000Y-87699000D02*
X172104000Y-87699000D01*
X174440000Y-90300000D02*
G75*
G03*
X174440000Y-90300000I-2620000J0D01*
G01*
%TD*%
M02*
