M48
; DRILL file {KiCad 7.0.6} date Fri Jul 14 20:34:48 2023
; FORMAT={-:-/ absolute / metric / decimal}
; #@! TF.CreationDate,2023-07-14T20:34:48-05:00
; #@! TF.GenerationSoftware,Kicad,Pcbnew,7.0.6
; #@! TF.FileFunction,Plated,1,2,PTH
FMAT,2
METRIC
; #@! TA.AperFunction,Plated,PTH,ComponentDrill
T1C0.770
; #@! TA.AperFunction,Plated,PTH,ComponentDrill
T2C0.800
; #@! TA.AperFunction,Plated,PTH,ComponentDrill
T3C1.020
; #@! TA.AperFunction,Plated,PTH,ComponentDrill
T4C1.118
; #@! TA.AperFunction,Plated,PTH,ComponentDrill
T5C1.200
; #@! TA.AperFunction,Plated,PTH,ComponentDrill
T6C1.520
%
G90
G05
T1
X156.22Y-53.802
X156.22Y-61.742
X158.76Y-53.802
X158.76Y-61.742
X161.3Y-53.802
X161.3Y-61.742
X163.84Y-53.802
X163.84Y-61.742
X166.38Y-53.802
X166.38Y-61.742
X168.92Y-53.802
X168.92Y-61.742
X171.46Y-53.802
X171.46Y-61.742
T2
X125.73Y-68.58
X128.27Y-68.58
X130.81Y-68.58
X139.192Y-55.118
X141.692Y-55.118
X147.106Y-52.324
X149.606Y-52.324
X153.645Y-87.122
X154.432Y-76.2
X154.432Y-78.7
X156.145Y-87.122
X161.5Y-89.55
X164.04Y-89.55
X166.58Y-85.73
X169.08Y-85.73
X171.82Y-89.05
X171.82Y-91.55
T3
X125.86Y-98.19
X125.86Y-115.97
X126.09Y-104.54
X126.09Y-107.08
X126.09Y-109.62
X128.4Y-98.19
X128.4Y-115.97
X130.94Y-98.19
X130.94Y-115.97
X133.48Y-98.19
X133.48Y-115.97
X136.02Y-98.19
X136.02Y-115.97
X138.56Y-98.19
X138.56Y-115.97
X141.1Y-98.19
X141.1Y-115.97
X143.64Y-98.19
X143.64Y-115.97
X146.18Y-98.19
X146.18Y-115.97
X148.72Y-98.19
X148.72Y-115.97
X151.26Y-98.19
X151.26Y-115.97
X153.8Y-98.19
X153.8Y-115.97
X156.34Y-98.19
X156.34Y-115.97
X158.88Y-98.19
X158.88Y-115.97
X161.42Y-98.19
X161.42Y-115.97
X163.96Y-98.19
X163.96Y-115.97
X166.5Y-98.19
X166.5Y-115.97
X169.04Y-98.19
X169.04Y-115.97
X171.58Y-98.19
X171.58Y-115.97
X174.12Y-98.19
X174.12Y-115.97
T4
X131.572Y-79.502
X131.572Y-87.122
X134.112Y-79.502
X134.112Y-87.122
X136.652Y-79.502
X136.652Y-87.122
X139.192Y-79.502
X139.192Y-87.122
T5
X99.98Y-95.09
X100.0Y-99.48
X100.0Y-112.18
X104.14Y-61.722
X104.14Y-74.422
X107.65Y-99.33
X107.65Y-112.03
X112.522Y-61.214
X112.522Y-73.914
X112.68Y-95.09
X118.618Y-86.614
X118.618Y-94.614
X124.968Y-74.168
X124.968Y-86.868
X138.938Y-62.484
X138.938Y-75.184
X145.542Y-62.23
X145.542Y-74.93
T6
X98.982Y-81.812
X98.982Y-86.892
X119.888Y-58.674
X124.968Y-58.674
X163.69Y-69.83
X163.69Y-74.91
X163.69Y-79.99
T2
G00X111.082Y-80.052
M15
G01X111.082Y-78.952
M16
G05
G00X111.082Y-84.052
M15
G01X111.082Y-82.952
M16
G05
G00X111.082Y-88.052
M15
G01X111.082Y-86.952
M16
G05
G00X113.582Y-80.052
M15
G01X113.582Y-78.952
M16
G05
G00X113.582Y-84.052
M15
G01X113.582Y-82.952
M16
G05
G00X113.582Y-86.952
M15
G01X113.582Y-88.052
M16
G05
G00X117.33Y-105.07
M15
G01X117.33Y-103.97
M16
G05
G00X117.33Y-109.07
M15
G01X117.33Y-107.97
M16
G05
G00X117.33Y-113.07
M15
G01X117.33Y-111.97
M16
G05
G00X119.83Y-105.07
M15
G01X119.83Y-103.97
M16
G05
G00X119.83Y-109.07
M15
G01X119.83Y-107.97
M16
G05
G00X119.83Y-111.97
M15
G01X119.83Y-113.07
M16
G05
T0
M30
